<?xml version="1.0" encoding="UTF-8"?>
<svg id="Layer_3" data-name="Layer 3" xmlns="http://www.w3.org/2000/svg" xmlns:xlink="http://www.w3.org/1999/xlink" viewBox="0 0 1280 746">
  <defs>
    <style>
      .cls-1 {
        fill: none;
        stroke: #0500bf;
        stroke-miterlimit: 10;
        stroke-width: .25px;
      }

      .cls-2 {
        filter: url(#drop-shadow-2);
      }

      .cls-3 {
        fill: #006cff;
      }

      .cls-4 {
        filter: url(#drop-shadow-6);
      }

      .cls-5 {
        fill: #4d4d4d;
      }

      .cls-6 {
        fill: #023fff;
      }

      .cls-7 {
        filter: url(#drop-shadow-5);
      }

      .cls-8 {
        fill: #fff;
      }

      .cls-9 {
        fill: #fb0;
      }

      .cls-10 {
        fill: #0500bf;
      }

      .cls-11 {
        filter: url(#drop-shadow-4);
      }

      .cls-12 {
        filter: url(#drop-shadow-7);
      }

      .cls-13 {
        fill: #f2f2f2;
      }

      .cls-14 {
        fill: #eeb715;
      }

      .cls-15 {
        filter: url(#drop-shadow-3);
      }

      .cls-16 {
        fill: #727175;
      }

      .cls-17 {
        fill: rgba(255, 255, 255, 0);
      }
    </style>
    <filter id="drop-shadow-2" x="523.96" y="280.16" width="149.28" height="137.04" filterUnits="userSpaceOnUse">
      <feOffset dx="2" dy="2"/>
      <feGaussianBlur result="blur" stdDeviation="1"/>
      <feFlood flood-color="#000" flood-opacity=".2"/>
      <feComposite in2="blur" operator="in"/>
      <feComposite in="SourceGraphic"/>
    </filter>
    <filter id="drop-shadow-3" x="639.88" y="308.96" width="114.96" height="141.6" filterUnits="userSpaceOnUse">
      <feOffset dx="2" dy="2"/>
      <feGaussianBlur result="blur-2" stdDeviation="1"/>
      <feFlood flood-color="#000" flood-opacity=".2"/>
      <feComposite in2="blur-2" operator="in"/>
      <feComposite in="SourceGraphic"/>
    </filter>
    <filter id="drop-shadow-4" x="713.8" y="236.96" width="574.56" height="274.08" filterUnits="userSpaceOnUse">
      <feOffset dx="1" dy="1"/>
      <feGaussianBlur result="blur-3" stdDeviation="1"/>
      <feFlood flood-color="#000" flood-opacity=".1"/>
      <feComposite in2="blur-3" operator="in"/>
      <feComposite in="SourceGraphic"/>
    </filter>
    <filter id="drop-shadow-5" x="48.52" y="140" width="409.2" height="462.48" filterUnits="userSpaceOnUse">
      <feOffset dx="2" dy="2"/>
      <feGaussianBlur result="blur-4" stdDeviation="1"/>
      <feFlood flood-color="#000" flood-opacity=".12"/>
      <feComposite in2="blur-4" operator="in"/>
      <feComposite in="SourceGraphic"/>
    </filter>
    <filter id="drop-shadow-6" x="92.2" y="140.96" width="358.56" height="358.56" filterUnits="userSpaceOnUse">
      <feOffset dx="-1" dy="1"/>
      <feGaussianBlur result="blur-5" stdDeviation="1"/>
      <feFlood flood-color="#000" flood-opacity=".1"/>
      <feComposite in2="blur-5" operator="in"/>
      <feComposite in="SourceGraphic"/>
    </filter>
    <filter id="drop-shadow-7" x="49.52" y="513.01" width="403.15" height="51" filterUnits="userSpaceOnUse">
      <feOffset dx="1" dy="1"/>
      <feGaussianBlur result="blur-6" stdDeviation="2"/>
      <feFlood flood-color="#000" flood-opacity=".18"/>
      <feComposite in2="blur-6" operator="in"/>
      <feComposite in="SourceGraphic"/>
    </filter>
  </defs>
  <g>
    <g class="cls-2">
      <path class="cls-5" d="M668.06,281.21l-56.66,130.9h-29.92l-56.47-130.9h32.72l39.83,93.5,40.39-93.5h30.11Z"/>
    </g>
    <g class="cls-15">
      <path class="cls-6" d="M640.92,430.2l10.28-22.81c11.03,8.04,27.49,13.65,43.2,13.65,17.95,0,25.24-5.98,25.24-14.02,0-24.5-76.11-7.67-76.11-56.29,0-22.25,17.95-40.77,55.16-40.77,16.46,0,33.29,3.93,45.44,11.59l-9.35,23c-12.16-6.92-24.68-10.29-36.28-10.29-17.95,0-24.87,6.73-24.87,14.96,0,24.12,76.11,7.48,76.11,55.54,0,21.88-18.14,40.58-55.54,40.58-20.76,0-41.7-6.17-53.29-15.15Z"/>
    </g>
  </g>
  <g class="cls-11">
    <rect class="cls-17" x="715.89" y="239" width="568.35" height="268"/>
    <g>
      <g>
        <path d="M958.23,432.42v4.47h-1.99v-29.67h1.99v13.57c1.79-2.73,4.43-5.12,8.53-5.12,4.99,0,10.08,4.03,10.08,10.77v.08c0,6.76-5.09,10.84-10.08,10.84-4.15,0-6.83-2.36-8.53-4.96v.02ZM974.7,426.61v-.08c0-5.45-3.78-8.95-8.13-8.95s-8.46,3.61-8.46,8.9v.08c0,5.33,4.15,8.9,8.46,8.9s8.13-3.29,8.13-8.85Z"/>
        <path d="M998.26,416.17h2.19l-8.98,21.46c-1.82,4.35-3.94,5.9-6.91,5.9-1.59,0-2.73-.29-4.11-.89l.69-1.75c1.1.52,1.99.77,3.54.77,2.16,0,3.57-1.26,5.12-4.87l-9.96-20.6h2.31l8.61,18.53,7.48-18.53.02-.02Z"/>
        <path d="M1018,408.43h12.76c3.25,0,5.81.89,7.44,2.51,1.26,1.26,1.91,2.8,1.91,4.72v.08c0,3.42-1.95,5.24-4.06,6.34,3.34,1.13,5.65,3.05,5.65,6.91v.08c0,5.09-4.18,7.8-10.52,7.8h-13.17v-28.45l-.02.02ZM1035.11,416.47c0-2.24-1.79-3.61-4.99-3.61h-7.2v7.57h6.83c3.22,0,5.36-1.26,5.36-3.86v-.09ZM1030.84,424.64h-7.92v7.8h8.29c3.42,0,5.48-1.35,5.48-3.91v-.08c0-2.4-1.91-3.81-5.85-3.81Z"/>
        <path d="M1046.79,415.43h4.92v4.84c1.35-3.22,3.81-5.41,7.6-5.24v5.21h-.29c-4.3,0-7.32,2.8-7.32,8.49v8.16h-4.92v-21.46h.02Z"/>
        <path d="M1061.66,426.28v-.08c0-6.14,4.87-11.21,11.46-11.21s11.43,4.99,11.43,11.14v.08c0,6.1-4.87,11.18-11.5,11.18s-11.38-4.99-11.38-11.09v-.02ZM1079.63,426.28v-.08c0-3.78-2.73-6.91-6.59-6.91s-6.46,3.09-6.46,6.83v.08c0,3.74,2.73,6.86,6.54,6.86s6.51-3.09,6.51-6.79Z"/>
        <path d="M1088.11,430.72v-.08c0-4.64,3.61-6.91,8.87-6.91,2.4,0,4.11.37,5.77.89v-.52c0-3.05-1.87-4.67-5.33-4.67-2.4,0-4.18.52-6.14,1.35l-1.3-3.86c2.36-1.06,4.67-1.75,8.09-1.75,3.22,0,5.61.86,7.11,2.4,1.59,1.55,2.31,3.81,2.31,6.63v12.73h-4.79v-2.68c-1.47,1.75-3.71,3.12-6.98,3.12-4.03,0-7.6-2.31-7.6-6.63v-.03ZM1102.83,429.17v-1.47c-1.26-.49-2.93-.86-4.87-.86-3.17,0-5.04,1.35-5.04,3.57v.08c0,2.07,1.82,3.25,4.18,3.25,3.25,0,5.73-1.87,5.73-4.6v.03Z"/>
        <path d="M1112.28,426.2v-.08c0-7.11,4.84-11.14,9.96-11.14,3.54,0,5.77,1.75,7.32,3.78v-11.55h4.92v29.67h-4.92v-3.57c-1.58,2.24-3.81,4.03-7.32,4.03-5.04,0-9.96-4.03-9.96-11.14v-.02ZM1129.64,426.2v-.08c0-4.15-2.93-6.86-6.22-6.86s-6.17,2.6-6.17,6.86v.08c0,4.15,2.85,6.86,6.17,6.86s6.22-2.76,6.22-6.86Z"/>
        <path d="M1139.47,426.28v-.08c0-6.1,4.72-11.21,11.18-11.21,4.03,0,6.54,1.5,8.58,3.71l-3.09,3.29c-1.5-1.59-3.09-2.68-5.53-2.68-3.57,0-6.22,3.09-6.22,6.83v.08c0,3.81,2.63,6.86,6.42,6.86,2.31,0,4.03-1.06,5.58-2.63l2.97,2.93c-2.11,2.36-4.6,4.03-8.78,4.03-6.39,0-11.09-4.99-11.09-11.09l-.02-.03Z"/>
        <path d="M1162.07,426.28v-.08c0-6.14,4.87-11.21,11.46-11.21s11.43,4.99,11.43,11.14v.08c0,6.1-4.87,11.18-11.5,11.18s-11.38-4.99-11.38-11.09v-.02ZM1180.03,426.28v-.08c0-3.78-2.73-6.91-6.59-6.91s-6.46,3.09-6.46,6.83v.08c0,3.74,2.73,6.86,6.54,6.86s6.51-3.09,6.51-6.79Z"/>
        <path d="M1189.95,415.43h4.92v3.25c1.38-1.91,3.25-3.71,6.54-3.71,3.09,0,5.28,1.5,6.42,3.78,1.7-2.28,3.98-3.78,7.23-3.78,4.67,0,7.52,2.97,7.52,8.21v13.69h-4.92v-12.19c0-3.42-1.58-5.24-4.35-5.24s-4.6,1.87-4.6,5.33v12.12h-4.92v-12.24c0-3.34-1.62-5.21-4.35-5.21s-4.6,2.04-4.6,5.33v12.12h-4.92v-21.46h.02Z"/>
      </g>
      <g id="vmware_logo_gray" data-name="vmware logo gray">
        <g>
          <path class="cls-16" d="M976.83,372.28l-20.16-56.12c-.26-.78-.64-1.81-.64-2.7,0-2.44,2.05-4.75,5.01-4.75,2.57,0,4.24,1.68,5.01,4.11l16.7,48.36,16.82-48.5c.77-2.3,2.31-3.97,4.87-3.97h.52c2.7,0,4.38,1.68,5.15,3.97l16.68,48.5,16.97-48.62c.64-2.05,2.05-3.84,4.75-3.84s4.87,2.18,4.87,4.63c0,.89-.38,1.93-.64,2.71l-20.3,56.25c-1.04,2.94-3.09,4.47-5.39,4.47h-.4c-2.56,0-4.49-1.53-5.41-4.47l-16.54-47.7-16.7,47.7c-.89,2.94-2.83,4.47-5.39,4.47h-.26c-2.44,0-4.49-1.53-5.51-4.47"/>
          <path class="cls-16" d="M1123.76,313.6c0-2.71,2.18-5.02,4.87-5.02,2.83,0,5.02,2.18,5.02,5.02v11.4c4.89-11.06,15.72-16.28,22.9-16.28,2.96,0,4.9,2.19,4.9,5.01s-1.81,4.63-4.38,5.02c-12.87,1.55-23.42,11.18-23.42,30.38v22.55c0,2.7-2.05,5.01-4.89,5.01s-5.01-2.19-5.01-5.01v-58.07"/>
          <path class="cls-16" d="M1193.24,377.29c-17.91,0-32.52-13.88-32.52-34.25v-.26c0-18.95,13.23-34.24,31.26-34.24,19.27,0,30.24,15.9,30.24,33.36,0,2.67-2.16,4.58-4.53,4.58h-47.13c1.36,14.26,11.32,22.27,22.93,22.27,8.07,0,13.99-3.17,18.78-7.64.75-.63,1.64-1.13,2.77-1.13,2.37,0,4.29,1.91,4.29,4.21,0,1.13-.49,2.28-1.53,3.17-6.17,5.97-13.48,9.93-24.57,9.93M1212.51,339.21c-1.01-11.96-7.83-22.39-20.8-22.39-11.35,0-19.93,9.54-21.17,22.39h41.97Z"/>
          <path class="cls-16" d="M1053.54,356.69v-.26c0-13.97,11.53-21.41,28.34-21.41,8.46,0,14.48,1.16,20.4,2.82v-2.31c0-11.93-7.34-18.09-19.76-18.09-6.68,0-10.55.86-15.44,3.03-.64.26-1.29.38-1.79.38-2.31,0-4.38-1.93-4.38-4.23,0-2.05.9-3.31,2.71-4.12,6.53-2.83,11.44-3.77,19.91-3.77,9.36,0,16.54,2.42,21.41,7.31,4.49,4.49,6.8,10.91,6.8,19.36v36.59c0,2.82-2.05,4.87-4.76,4.87s-4.72-2.05-4.72-4.63v-6.33c-4.63,6.04-12.32,11.43-23.97,11.43-12.32,0-24.77-7.06-24.77-20.65M1102.39,351.56v-6.4c-4.87-1.41-11.43-2.83-19.5-2.83-12.42,0-19.36,5.41-19.36,13.72v.26c0,8.33,7.69,13.2,16.67,13.2,12.18,0,22.18-7.44,22.18-17.95"/>
          <path class="cls-16" d="M797.15,312.86c-2.18-4.75-7.54-6.92-12.55-4.67-5.01,2.22-6.86,7.78-4.6,12.56l21.05,45.74c3.31,7.17,6.8,10.94,13.34,10.94,6.98,0,10.05-4.11,13.34-10.94,0,0,18.37-39.98,18.53-40.38.2-.43.78-1.72,2.65-1.72,1.58.02,2.91,1.27,2.91,2.96v39.11c0,6.02,3.34,10.97,9.77,10.97s9.9-4.95,9.9-10.97v-31.98c0-6.17,4.43-10.17,10.45-10.17s10.03,4.14,10.03,10.17v31.98c0,6.02,3.35,10.97,9.77,10.97s9.91-4.95,9.91-10.97v-31.98c0-6.17,4.41-10.17,10.43-10.17s10.03,4.14,10.03,10.17v31.98c0,6.02,3.34,10.97,9.77,10.97s9.91-4.95,9.91-10.97v-36.41c0-13.39-10.75-22.76-23.7-22.76s-21.03,8.96-21.03,8.96c-4.3-5.58-10.23-8.95-20.28-8.95-10.6,0-19.87,8.95-19.87,8.95-4.32-5.58-11.64-8.95-17.71-8.95-9.39,0-16.85,4.12-21.38,14.54l-13.45,31.68-17.25-40.65"/>
          <path class="cls-16" d="M1223.02,316.83v-.06c0-4.47,3.63-8.24,8.2-8.24s8.21,3.72,8.21,8.2v.05c0,4.49-3.61,8.26-8.21,8.26s-8.2-3.71-8.2-8.2M1237.84,316.77h0c0-3.69-2.83-6.72-6.63-6.72s-6.65,3.06-6.65,6.72v.05c0,3.68,2.85,6.68,6.65,6.68s6.63-3.06,6.63-6.74"/>
          <path class="cls-16" d="M1228.09,313.54c0-.49.38-.89.87-.89h2.74c1.03,0,1.82.29,2.31.83.46.43.7,1.07.7,1.81v.03c0,1.26-.64,2.02-1.59,2.42l1.21,1.47c.17.21.28.4.28.66,0,.47-.4.81-.83.81-.38,0-.64-.2-.86-.44l-1.7-2.16h-1.39v1.73c0,.49-.38.87-.87.87s-.87-.38-.87-.87v-6.26ZM1231.61,316.51c.86,0,1.33-.43,1.33-1.12v-.03c0-.74-.51-1.13-1.35-1.13h-1.75v2.28h1.76Z"/>
        </g>
      </g>
    </g>
  </g>
  <g class="cls-7">
    <g class="cls-4">
      <circle class="cls-13" cx="272.52" cy="319.18" r="176.19"/>
      <path class="cls-1" d="M343.29,221.15l-59.1,33.72M297.94,197.73l-78.32,45.7M247.71,253.27l11.57-6.66v-25.4M221.62,424.96l66.72-45.03M262.8,448.13l67.26-44.71M299.98,397.6l-9.72,6.45,1.56,24.78M231.27,221.14l-39.21,21.63M187.28,240.28c-3.09-.06-5.64,2.39-5.7,5.48-.06,3.09,2.39,5.64,5.48,5.7s5.64-2.39,5.7-5.48c.06-3.09-2.39-5.64-5.48-5.7ZM236.3,212.85c-3.09-.06-5.64,2.39-5.7,5.48-.06,3.09,2.39,5.64,5.48,5.7,3.09.06,5.64-2.39,5.7-5.48.06-3.09-2.39-5.64-5.48-5.7Z"/>
      <path class="cls-6" d="M272.51,142.99c-97.29,0-176.19,78.9-176.19,176.19s78.9,176.19,176.19,176.19,176.19-78.9,176.19-176.19-78.86-176.19-176.19-176.19ZM414.13,239.88c-.14,1.03.27,2.15-.66,3.02-.11.1,0,.42-.02.64-.22,4.17-.4,8.35-.67,12.52-.1,1.45-.4,2.89-.64,4.32-.23,1.33.54,2.75-.57,4.05-.38.45-.15,1.48-.07,2.23.48,4.76-.98,9.42-.67,14.16-1.04,2.12-.6,4.4-.64,6.62-.03,1.48-.92,2.75-.74,4.33.16,1.41.58,3.01-.57,4.32-.11.12-.01.42-.02.64-.05,2.44.3,4.91-.66,7.27.51,4.21-.91,8.32-.65,12.52.11,1.71-.94,3.21-.71,4.98.22,1.72.43,3.6-.05,5.21-.63,2.13-.42,4.21-.59,6.31-.09,1.12-.48,2.22-.61,3.34-.12,1.03.2,2.11-.64,3.04-.22.24-.03.85-.03,1.28-.03,1.26.08,2.48-.63,3.68-1.08,1.82-.73,4.02-1.23,6.03-.47,1.88-1.01,3.76-1.39,5.67-.51,2.62-1.38,5.15-2.12,7.67-.74,2.5-1.48,5.07-2.55,7.46-2.3,5.17-4.1,10.59-6.9,15.5-2.17,3.81-3.93,7.84-6.55,11.44-1.67,2.29-3.11,4.82-4.69,7.22-1.61,2.44-3.44,4.69-5.16,7.03-2.79,3.79-5.97,7.24-9.2,10.66-1.44,1.53-2.68,3.32-4.25,4.75-3.88,3.52-7.67,7.16-11.77,10.41-6.41,5.08-13.3,9.53-20.07,14.11-1.68,1.14-3.21,2.52-5.11,3.43-1.93.93-3.51,2.59-5.32,3.82-1.69,1.16-3.5,2.13-5.2,3.27-9.85,6.58-19.47,13.5-29.53,19.76-2.55,1.59-4.9,3.51-7.33,5.29-.54.4-1.06.83-1.58,1.25h-5.25c-5.94-4.93-12.7-8.67-18.98-13.11-3.79-2.68-7.65-5.26-11.5-7.85-5.55-3.74-11.13-7.45-16.68-11.19-3.85-2.59-7.62-5.31-11.53-7.81-5.24-3.34-10.13-7.18-15.22-10.73-1.55-1.08-2.87-2.51-4.34-3.73-3.39-2.82-6.65-5.84-9.72-9.02-3.48-3.61-6.89-7.33-9.96-11.29-4-5.16-7.68-10.56-11.38-15.94-1.2-1.74-2.04-3.74-3.05-5.62-1.25-2.32-2.63-4.59-3.75-6.98-2.39-5.13-4.85-10.22-6.69-15.6-.88-2.56-1.95-5.1-2.75-7.71-.9-2.92-1.55-5.91-2.42-8.84-.36-1.21-.57-2.41-.69-3.67-.11-1.18-.66-2.33-1.1-3.46-.45-1.17.38-2.61-.81-3.6-.22-2.32-.6-4.63-.62-6.94-.03-3.21-1.16-6.33-.7-9.57-1.14-1.77-.58-3.75-.63-5.63-.03-1.49-1-2.75-.73-4.33.23-1.38.41-2.96-.03-4.23-.81-2.33-.4-4.65-.6-6.97-.12-1.34-.51-2.66-.61-4-.11-1.41.36-2.99-.11-4.23-.8-2.12-.48-4.22-.55-6.32-.05-1.69-.95-3.2-.74-4.98.18-1.52.51-3.21-.58-4.65-.05-.07,0-.21,0-.32-.22-3.95-.59-7.91-.58-11.86,0-1.65-.69-3.06-.77-4.65-.08-1.55.35-3.1-.52-4.71-.55-1.02-.12-2.57-.1-3.88.05-4.3-1.12-8.53-.66-12.85-1.44-2.14-.21-4.7-1.2-7.05-.88-2.09.79-4.5,3.25-5.87,4.71-2.63,9.4-5.28,14.13-7.87,4.45-2.44,8.99-4.72,13.39-7.25,4.32-2.48,8.69-4.87,13.08-7.23,4.38-2.36,8.71-4.83,13.08-7.22,4.37-2.38,8.73-4.79,13.09-7.21,4.36-2.41,8.71-4.83,13.09-7.2,4.46-2.42,8.94-4.82,13.37-7.28,4.18-2.32,8.34-4.69,12.54-6.99,4.54-2.48,9.09-4.97,13.63-7.45,4.28-2.33,8.56-4.71,12.8-7.13,1.94-1.11,3.93-2.15,6-3.29h3.2c2.59,1.51,5.19,3.13,7.88,4.57,3.94,2.12,7.88,4.25,11.77,6.45,2.82,1.59,5.65,3.21,8.54,4.69,3.54,1.82,7.07,3.6,10.39,5.82,1.08.72,2.41,1.04,3.57,1.66,5.1,2.74,10.19,5.5,15.26,8.3,4.27,2.37,8.49,4.84,12.76,7.2,4.45,2.45,8.94,4.8,13.4,7.23,4.37,2.38,8.72,4.81,13.09,7.21,4.36,2.41,8.73,4.8,13.08,7.22,4.44,2.47,8.97,4.77,13.37,7.3,4.15,2.39,8.48,4.45,12.52,7.01,1.75,1.11,3.47,2.29,5.06,3.35-.16,1.85,1.1,3.1.67,4.67-.3,1.09-.51,2.21-.66,3.33ZM414.12,231.88c-1.59-1.06-3.3-2.24-5.06-3.35-4.04-2.57-8.37-4.63-12.52-7.01-4.39-2.53-8.93-4.83-13.37-7.3-4.35-2.42-8.72-4.81-13.08-7.22-4.36-2.41-8.71-4.83-13.09-7.21-4.46-2.43-8.96-4.78-13.4-7.23-4.28-2.36-8.49-4.83-12.76-7.2-5.07-2.8-10.16-5.56-15.26-8.3-1.15-.62-2.49-.94-3.57-1.66-3.31-2.22-6.85-4.01-10.39-5.82-2.89-1.48-5.72-3.1-8.54-4.69-3.9-2.21-7.83-4.33-11.77-6.45-2.69-1.45-5.29-3.07-7.88-4.57h-3.2c-2.08,1.13-4.06,2.18-6,3.29-4.24,2.42-8.52,4.8-12.8,7.13-4.54,2.48-9.09,4.97-13.63,7.45-4.2,2.29-8.36,4.66-12.54,6.99-4.43,2.46-8.91,4.86-13.37,7.28-4.38,2.38-8.73,4.79-13.09,7.2-4.36,2.41-8.72,4.82-13.09,7.21-4.37,2.39-8.7,4.86-13.08,7.22-4.39,2.36-8.76,4.75-13.08,7.23-4.4,2.53-8.94,4.81-13.39,7.25-4.73,2.59-9.42,5.24-14.13,7.87-2.45,1.37-4.13,3.78-3.25,5.87.99,2.34-.24,4.9,1.2,7.05-.46,4.32.71,8.55.66,12.85-.02,1.31-.45,2.86.1,3.88.86,1.61.44,3.15.52,4.71.08,1.58.77,3,.77,4.65-.01,3.95.36,7.91.58,11.86,0,.11-.05.25,0,.32,1.09,1.43.76,3.12.58,4.65-.21,1.79.69,3.29.74,4.98.06,2.1-.25,4.2.55,6.32.47,1.24,0,2.82.11,4.23.1,1.34.5,2.66.61,4,.2,2.32-.21,4.64.6,6.97.44,1.27.26,2.85.03,4.23-.27,1.58.7,2.84.73,4.33.04,1.89-.51,3.86.63,5.63-.47,3.24.67,6.36.7,9.57.02,2.32.4,4.63.62,6.94,1.19.99.35,2.43.81,3.6.44,1.13.99,2.28,1.1,3.46.12,1.26.33,2.45.69,3.67.87,2.93,1.52,5.93,2.42,8.84.8,2.6,1.87,5.14,2.75,7.71,1.85,5.39,4.3,10.47,6.69,15.6,1.11,2.39,2.49,4.65,3.75,6.98,1.01,1.88,1.85,3.87,3.05,5.62,3.7,5.38,7.39,10.78,11.38,15.94,3.07,3.96,6.48,7.68,9.96,11.29,3.06,3.18,6.32,6.2,9.72,9.02,1.47,1.23,2.79,2.65,4.34,3.73,5.09,3.55,9.98,7.39,15.22,10.73,3.91,2.5,7.68,5.21,11.53,7.81,5.55,3.74,11.13,7.45,16.68,11.19,3.85,2.6,7.72,5.17,11.5,7.85,6.28,4.44,13.04,8.18,18.98,13.11h5.25c.53-.42,1.04-.85,1.58-1.25,2.43-1.78,4.78-3.7,7.33-5.29,10.07-6.26,19.68-13.18,29.53-19.76,1.7-1.14,3.51-2.11,5.2-3.27,1.8-1.24,3.38-2.89,5.32-3.82,1.9-.92,3.43-2.29,5.11-3.43,6.77-4.58,13.66-9.03,20.07-14.11,4.1-3.25,7.89-6.88,11.77-10.41,1.58-1.43,2.81-3.22,4.25-4.75,3.23-3.43,6.41-6.88,9.2-10.66,1.72-2.34,3.55-4.6,5.16-7.03,1.59-2.4,3.02-4.93,4.69-7.22,2.62-3.6,4.38-7.63,6.55-11.44,2.8-4.91,4.59-10.33,6.9-15.5,1.06-2.39,1.81-4.96,2.55-7.46.75-2.53,1.62-5.05,2.12-7.67.37-1.9.92-3.79,1.39-5.67.5-2.01.15-4.2,1.23-6.03.71-1.2.6-2.43.63-3.68,0-.44-.18-1.04.03-1.28.84-.92.52-2,.64-3.04.14-1.12.53-2.22.61-3.34.16-2.1-.04-4.19.59-6.31.47-1.61.27-3.49.05-5.21-.23-1.77.82-3.27.71-4.98-.26-4.2,1.15-8.31.65-12.52.96-2.36.6-4.83.66-7.27,0-.22-.09-.52.02-.64,1.15-1.32.73-2.92.57-4.32-.18-1.58.72-2.85.74-4.33.04-2.22-.4-4.49.64-6.62-.32-4.74,1.15-9.41.67-14.16-.08-.75-.31-1.79.07-2.23,1.11-1.31.34-2.72.57-4.05.25-1.44.55-2.87.64-4.32.27-4.17.46-8.35.67-12.52.01-.22-.09-.54.02-.64.92-.87.52-1.99.66-3.02.15-1.12.35-2.24.66-3.33.43-1.57-.83-2.82-.67-4.67ZM402.99,242.95c-.25.38-.01,1.07-.04,1.62-.21,3.96-.05,7.98-.78,11.84-.55,2.91-.3,5.75-.55,8.61-.12,1.34-.51,2.66-.61,4-.11,1.41.38,3-.12,4.22-.77,1.91-.37,3.79-.58,5.67-.16,1.45-.51,2.88-.62,4.32-.11,1.41.36,2.99-.11,4.23-.88,2.33-.35,4.66-.59,6.97-.16,1.56-.46,3.1-.63,4.65-.16,1.45.37,2.99-.64,4.34-.16.21-.06.64-.02.97.48,4.1-.44,8.15-.82,12.18-.29,3.09-.33,6.17-.51,9.26-.08,1.35-.89,2.54-.69,4,.19,1.33-.16,2.65-.5,4.01-.46,1.79-.14,3.73-.7,5.62-.87,2.94-.61,6.17-2.03,9.01.27,3.31-1.26,6.28-2.11,9.32-.69,2.49-1.39,5.07-2.47,7.49-.95,2.12-1.86,4.26-2.62,6.46-1.45,4.2-4.77,11.02-6.96,14.51-1.03,1.63-1.86,3.38-2.85,5.06-2.78,4.73-5.89,9.22-9.23,13.56-2.07,2.69-4.34,5.21-6.43,7.85-3.05,3.84-6.53,7.25-10.11,10.5-4.03,3.66-8.2,7.2-12.71,10.36-3.47,2.43-7.13,4.62-10.46,7.19-3.3,2.55-6.84,4.68-10.24,7.04-3.29,2.28-6.84,4.21-10.03,6.62-7.17,5.42-14.95,9.94-22.25,15.15-4.05,2.89-8.34,5.4-12.21,8.54-7.62-5.13-14.96-10.43-22.66-15.24-5.16-3.23-10.05-6.91-15.07-10.37-4.16-2.87-8.33-5.74-12.52-8.58-2.47-1.67-5.11-3.1-7.46-4.92-2.39-1.86-5.01-3.35-7.39-5.22-3.4-2.66-6.74-5.39-10.09-8.11-3.63-2.96-6.91-6.24-10.04-9.64-3.84-4.17-7.5-8.52-10.83-13.17-2.18-3.03-4.29-6.12-6.36-9.21-3.46-5.16-6.51-10.6-8.99-16.28-1.85-4.25-3.72-8.52-5.18-12.94-1.18-3.56-2.55-7.08-3.39-10.72-.44-1.9-.86-3.78-1.41-5.66-.53-1.79-.22-3.82-.79-5.59-.98-3.07-.62-6.39-1.9-9.37-.04-.09-.02-.22,0-.33.49-3.78-.98-7.45-.65-11.21.25-2.8-1.15-5.45-.67-8.26-1.13-1.77-.66-3.75-.62-5.63.08-3.98-1.17-7.87-.69-11.87-1.17-2.23-.55-4.62-.63-6.95-.06-1.69-.94-3.2-.75-4.98.17-1.53.5-3.21-.58-4.65-.1-.14-.04-.43-.01-.65.45-3.67-.51-7.26-.8-10.87-.25-3.08-.12-6.22-.64-9.23-.35-2.01-.15-4.05-.6-5.97-.7-2.98-.21-6-.7-8.91-.34-2.01-.48-3.98-.56-6.03,5.57-2.87,10.98-6.05,16.53-9,4.21-2.24,8.35-4.67,12.54-6.97,4.54-2.49,9.19-4.78,13.65-7.42,4.21-2.49,8.52-4.78,12.79-7.16,4.43-2.48,8.98-4.74,13.39-7.26,4.77-2.72,9.59-5.32,14.44-7.9,4.4-2.33,8.71-4.83,13.08-7.21,4.37-2.39,8.71-4.84,13.1-7.19,4.47-2.4,8.92-4.86,13.36-7.31,3.02-1.67,6.23-3.07,8.92-5.24,5.95,2.98,11.56,6.28,17.25,9.4,4.55,2.49,9.17,4.9,13.56,7.71,3.23,2.06,6.99,3.29,10.2,5.39,3.18,2.07,6.69,3.49,9.85,5.6,3.19,2.13,6.81,3.6,10.16,5.5,2.92,1.66,6.03,2.99,8.77,4.99.72.53,1.64.78,2.46,1.18,5.64,2.8,11.02,6.07,16.6,9,4.22,2.22,8.34,4.68,12.54,6.98,4.54,2.48,9.08,4.97,13.64,7.43,4.56,2.46,9.01,5.13,13.65,7.45,1.09.54,2.09,1.27,3.35,2.04-.3,1.66.54,3.59-.64,5.4ZM392.44,248.47c.14-2.18-.9-3.54-2.77-4.81-2.56-1.73-5.42-2.86-8-4.5-4.13-2.62-8.57-4.69-12.78-7.19-4.45-2.64-9.14-4.87-13.64-7.44-4.16-2.37-8.37-4.64-12.55-6.96-5.06-2.81-10.14-5.58-15.25-8.31-1.16-.62-2.51-.92-3.56-1.67-4.51-3.21-9.67-5.29-14.3-8.28-2.12-1.37-4.58-2.2-6.71-3.56-2.16-1.38-4.78-1.94-6.62-3.85-5.4-2.4-10.32-5.69-15.55-8.39-1.09-.56-2.14-1.23-3.2-1.79-2.24-1.18-4.39-2.98-7.29-2.2-3.56,2.01-6.91,3.95-10.31,5.81-4.45,2.44-9,4.71-13.39,7.26-4.23,2.45-8.59,4.65-12.8,7.15-4.45,2.64-9.14,4.87-13.64,7.44-4.15,2.37-8.36,4.67-12.55,6.95-5.53,3.01-11,6.13-16.59,9.02-.81.42-1.72.67-2.46,1.18-2.77,1.94-5.84,3.33-8.78,4.96-3.29,1.81-6.62,3.56-9.9,5.37-3.74,2.07-7.48,4.16-11.17,6.34-1.74,1.03-3.68,1.75-5.37,2.84-1.13.73-2.14,1.83-2.24,3.3-.11,1.74-.43,3.63.09,5.21.47,1.39.38,2.69.55,4.03.17,1.34.5,2.66.63,4,.22,2.42.07,4.83.54,7.3.58,2.99.4,6.14.65,9.23.29,3.61,1.25,7.2.8,10.87-.03.22-.09.5.01.65,1.13,1.55.44,3.33.65,4.99.2,1.66.53,3.31.63,4.98.27,4.39.46,8.78.67,13.18.01.22-.09.52.02.64,1.18,1.31.69,2.92.57,4.33-.14,1.57.71,2.84.75,4.33.09,2.87,0,5.71.49,8.61.47,2.78,1.28,5.64.83,8.57-.07.47.16,1.01.31,1.5.55,1.74,1.14,3.51,1.52,5.25.43,2.01.98,4.04,1.19,6.07.23,2.2,1.22,4.13,1.8,6.18,1.57,5.54,3.84,10.87,6.35,16.05,2.08,4.3,4.23,8.57,6.92,12.58,1.78,2.65,3.59,5.3,5.3,7.98,2.5,3.92,5.48,7.45,8.53,10.84,5.63,6.25,11.76,12.04,18.4,17.23,1.07.84,2.1,1.75,3.25,2.45,6.79,4.13,13.13,8.93,19.74,13.33,5.07,3.38,10.17,6.69,15.12,10.25,6.26,4.51,12.81,8.63,19.23,12.94,2.3,1.54,4.64,2.86,7.61,2.06.27-.27.54-.64.9-.88,4.01-2.72,8.06-5.38,12.04-8.14,5.1-3.53,10.4-6.74,15.36-10.48,3.53-2.66,7.36-4.92,11.04-7.38,3.86-2.57,7.7-5.17,11.55-7.76,5.54-3.73,11.13-7.46,15.98-12.03,4.64-4.37,9.33-8.73,13.35-13.76,2.36-2.95,4.67-5.92,6.97-8.92,3.52-4.6,6.32-9.61,9.19-14.6,1.52-2.63,3.1-5.29,4.09-8.14.58-1.66,1.6-3.1,2.02-4.74.44-1.7,1.17-3.24,1.76-4.86,1.1-3.05,2.04-6.17,2.87-9.31.58-2.19,1.36-4.35,1.35-6.66,1.93-3.2,1.75-6.96,2.47-10.43.86-4.15.59-8.54.8-12.82.04-.76-.31-1.8.07-2.25,1.11-1.3.36-2.72.59-4.05.23-1.33.56-2.65.64-3.99.27-4.5.46-9,.68-13.51.01-.22-.09-.51.02-.64,1.09-1.32.47-2.89.65-4.33.19-1.55.5-3.09.64-4.65.22-2.53.05-5.05.55-7.63.71-3.64.66-7.45.75-11.19.08-3.31,1.16-6.55.69-9.9-.02-.11-.05-.25,0-.32,1.18-1.65.45-3.54.65-5.31.21-1.88.51-3.75.63-5.64ZM381.28,256.21c-.12,1.77-.5,3.53-.61,5.31-.11,1.85.35,3.82-.12,5.55-.52,1.91-.15,3.86-.64,5.64-.78,2.88-.17,5.79-.66,8.59-.48,2.77-.15,5.59-.71,8.24-.41,1.92-.33,3.78-.53,5.66-.15,1.34-.51,2.66-.62,4-.11,1.41.38,3-.12,4.23-.77,1.91-.43,3.78-.56,5.67-.22,3.08-1.03,6.12-.66,9.24-1.23,2.45-.32,5.08-.68,7.6-.51,3.49-.47,7.07-1.69,10.44-.17.48-.26,1.03-.23,1.54.12,2.03-.54,3.88-1.16,5.76-.49,1.48.18,3.14-.79,4.6-.55.82-.76,1.86-1.28,3.2.56,1.89-1.02,3.71-1.7,5.72-2.32,6.81-5.36,13.33-8.88,19.6-2.17,3.86-4.58,7.56-7.27,11.11-2.94,3.89-5.9,7.72-9.23,11.29-1.28,1.38-2.35,3.06-3.81,4.27-5.26,4.37-10.1,9.22-15.92,12.95-3.12,2-6.12,4.24-9.21,6.32-3.07,2.06-6.3,3.93-9.25,6.12-7.79,5.81-16.11,10.82-24.09,16.34-2.73,1.89-5.41,3.86-7.86,5.61-2,1.2-2.81-.91-4.24-1.05-3.37-3.31-7.66-5.32-11.42-8.08-4.16-3.05-8.68-5.59-12.77-8.79-3.72-2.91-7.84-5.32-11.78-7.94-3.94-2.63-7.88-5.25-11.82-7.89-3.14-2.1-6.1-4.42-8.97-6.91-3.13-2.72-6.64-5.06-9.35-8.2-3.78-4.39-7.66-8.68-11.08-13.4-2.61-3.61-5.09-7.31-7.45-11.06-1.93-3.07-3.34-6.47-4.9-9.77-1.78-3.75-3.26-7.61-4.67-11.52-1.04-2.87-1.77-5.82-2.79-8.68-.03-.09-.22-.16-.22-.23-.03-2.41-.85-4.64-1.5-6.92-.62-2.18-.38-4.54-1.33-6.67-.08-.18-.03-.44,0-.65.45-3.67-.46-7.27-.81-10.87-.33-3.42-.43-6.82-.51-10.24-.03-1.26-.9-2.31-.71-3.67.16-1.1.38-2.35-.58-3.35-.16-.17-.05-.64-.02-.96.46-4.1-.44-8.15-.81-12.18-.27-2.98-.03-6.03-.63-8.9-.52-2.47-.47-4.86-.51-7.3-.03-1.49-.99-2.75-.73-4.33.23-1.38.4-2.95-.03-4.23-.68-2.01-.09-4.12-.67-5.96-1.05-3.32-.14-6.6-.68-9.89,1.84-1.06,3.51-2.05,5.21-3,3.46-1.93,6.95-3.82,10.41-5.74,3.91-2.17,7.73-4.53,11.74-6.51,5.1-2.51,9.97-5.45,15.01-8.06,4.14-2.14,8.24-4.46,12.26-6.86,5.07-3.03,10.44-5.53,15.44-8.7,3.24-2.05,6.86-3.49,10.24-5.33,2.87-1.56,5.63-3.31,8.45-4.95.79-.45,1.65-.76,2.46-1.17,5.61-2.86,10.88-6.34,16.62-8.97.64-.3,1.15-.89,1.88-1.47,2.58,2.23,5.97,3.07,8.64,5.19.69.55,1.64.78,2.45,1.19,5.64,2.79,11,6.1,16.6,8.99,4.14,2.14,8.24,4.44,12.26,6.83,5.09,3.01,10.39,5.62,15.46,8.67,2.76,1.66,5.63,3.25,8.53,4.7,3.56,1.78,7.07,3.61,10.39,5.81.92.61,2,.97,3,1.46,5.48,2.65,10.66,5.88,16.09,8.65,4.42,2.26,8.65,4.92,13.13,7.12,1.11.54,2.06,1.41,3,2.07,0,1.84.09,3.48-.02,5.12Z"/>
      <g>
        <path class="cls-9" d="M333.55,242.2c-1-1.13-2.2-1.94-3.82-1.83-.54.04-1.09,0-1.64,0-37.58,0-75.16.02-112.73-.04-3.04,0-5.38.69-6.63,3.99v11.8h125.99v-11.98c-.42-.72-.7-1.42-1.17-1.94Z"/>
        <path class="cls-3" d="M199.6,259.95h10.4v-11.8c1.24-3.3,3.59-3.99,6.63-3.99,37.58.06,75.16.04,112.73.04.55,0,1.09.03,1.64,0,1.63-.12,2.83.69,3.82,1.83.46.53.74,1.22,1.17,1.94v11.98h10.5c0-4.04-.18-7.87.07-11.67.15-2.26-1.32-3.9-1.59-5.93-2.53-3.06-4.61-6.63-8.92-7.64-.67-.16-1.26-.66-1.9-1.01-39.56,0-79.14.01-118.72-.02-3.23,0-6.11.92-8.74,2.67-1.06.71-1.96,1.66-2.88,2.56-2.87,2.84-4.28,6.31-4.31,10.35-.02,2.73-.01,5.47,0,8.2,0,.83.06,1.67.09,2.49Z"/>
      </g>
      <g>
        <path class="cls-9" d="M209.89,393.45c1,1.13,2.2,1.94,3.82,1.83.54-.04,1.09,0,1.64,0,37.58,0,75.16-.02,112.73.04,3.04,0,5.38-.69,6.63-3.99v-11.8h-125.99v11.98c.42.72.7,1.42,1.17,1.94Z"/>
        <path class="cls-3" d="M334.71,379.52v11.8c-1.24,3.3-3.59,3.99-6.63,3.99-37.58-.06-75.16-.04-112.73-.04-.55,0-1.09-.03-1.64,0-1.63.12-2.83-.69-3.82-1.83-.46-.53-.74-1.22-1.17-1.94v-11.98h-10.5c0,3.61.02,6.98,0,10.36-.03,3.1.86,5.84,2.56,8.47.78,1.21,1.75,2.14,2.7,3.12,2.82,2.9,6.31,4.3,10.35,4.3,38.49,0,76.97-.01,115.46.03,3.23,0,6.12-.91,8.73-2.68,1.23-.84,2.24-2,3.35-3.02,1.81-1.66,2.62-3.92,3.43-6.12.39-1.05.37-2.29.39-3.44.05-2.84.02-5.69.01-8.53,0-.83-.06-1.67-.09-2.49h-10.4Z"/>
      </g>
      <g>
        <g>
          <rect class="cls-6" x="208.73" y="342.66" width="125.99" height="35.5"/>
          <rect class="cls-10" x="214.03" y="337.15" width="115.38" height="5.52"/>
          <ellipse class="cls-8" cx="225.77" cy="361.06" rx="3.31" ry="2.68"/>
          <path class="cls-14" d="M241.14,364.16c-2.11,0-3.82-1.39-3.82-3.1s1.71-3.1,3.82-3.1,3.82,1.39,3.82,3.1-1.71,3.1-3.82,3.1ZM241.14,358.79c-1.54,0-2.79,1.02-2.79,2.27s1.25,2.27,2.79,2.27,2.79-1.02,2.79-2.27-1.25-2.27-2.79-2.27Z"/>
          <g>
            <path class="cls-14" d="M323.92,355.47h-53.96v-4.47h53.96v4.47ZM270.99,354.63h51.9v-2.8h-51.9v2.8Z"/>
            <path class="cls-14" d="M323.92,363.29h-53.96v-4.47h53.96v4.47ZM270.99,362.45h51.9v-2.8h-51.9v2.8Z"/>
            <path class="cls-14" d="M323.92,371.11h-53.96v-4.47h53.96v4.47ZM270.99,370.28h51.9v-2.8h-51.9v2.8Z"/>
          </g>
        </g>
        <g>
          <rect class="cls-6" x="208.73" y="301.65" width="125.99" height="35.5"/>
          <rect class="cls-10" x="214.03" y="296.13" width="115.38" height="5.52"/>
          <ellipse class="cls-8" cx="225.77" cy="320.04" rx="3.31" ry="2.68"/>
          <path class="cls-14" d="M241.14,323.14c-2.11,0-3.82-1.39-3.82-3.1s1.71-3.1,3.82-3.1,3.82,1.39,3.82,3.1-1.71,3.1-3.82,3.1ZM241.14,317.77c-1.54,0-2.79,1.02-2.79,2.27s1.25,2.27,2.79,2.27,2.79-1.02,2.79-2.27-1.25-2.27-2.79-2.27Z"/>
          <g>
            <path class="cls-14" d="M323.92,314.45h-53.96v-4.47h53.96v4.47ZM270.99,313.61h51.9v-2.8h-51.9v2.8Z"/>
            <path class="cls-14" d="M323.92,322.27h-53.96v-4.47h53.96v4.47ZM270.99,321.44h51.9v-2.8h-51.9v2.8Z"/>
            <path class="cls-14" d="M323.92,330.09h-53.96v-4.47h53.96v4.47ZM270.99,329.26h51.9v-2.8h-51.9v2.8Z"/>
          </g>
        </g>
        <g>
          <rect class="cls-6" x="208.73" y="260.63" width="125.99" height="35.5"/>
          <path class="cls-8" d="M229.08,279.02c0,1.48-1.48,2.68-3.31,2.68s-3.31-1.2-3.31-2.68,1.48-2.68,3.31-2.68,3.31,1.2,3.31,2.68Z"/>
          <path class="cls-14" d="M241.14,282.12c-2.11,0-3.82-1.39-3.82-3.1s1.71-3.1,3.82-3.1,3.82,1.39,3.82,3.1-1.71,3.1-3.82,3.1ZM241.14,276.75c-1.54,0-2.79,1.02-2.79,2.27s1.25,2.27,2.79,2.27,2.79-1.02,2.79-2.27-1.25-2.27-2.79-2.27Z"/>
          <g>
            <path class="cls-14" d="M323.92,273.43h-53.96v-4.47h53.96v4.47ZM270.99,272.59h51.9v-2.8h-51.9v2.8Z"/>
            <path class="cls-14" d="M323.92,281.25h-53.96v-4.47h53.96v4.47ZM270.99,280.42h51.9v-2.8h-51.9v2.8Z"/>
            <path class="cls-14" d="M323.92,289.08h-53.96v-4.47h53.96v4.47ZM270.99,288.24h51.9v-2.8h-51.9v2.8Z"/>
          </g>
        </g>
      </g>
    </g>
    <g class="cls-12">
      <path class="cls-9" d="M81.6,522.93h-22.21v11.95h20.45c1.5,0,2.63.34,3.37,1.01.74.68,1.11,1.57,1.11,2.67s-.37,2.01-1.1,2.71-1.86,1.05-3.39,1.05h-20.45v13.85h22.98c1.55,0,2.72.36,3.5,1.08.79.72,1.18,1.68,1.18,2.87s-.39,2.09-1.18,2.81c-.79.72-1.95,1.08-3.5,1.08h-26.79c-2.15,0-3.69-.48-4.63-1.43-.94-.95-1.41-2.49-1.41-4.62v-36.59c0-1.42.21-2.57.63-3.47s1.08-1.55,1.98-1.96c.9-.41,2.04-.61,3.44-.61h26.03c1.57,0,2.74.35,3.5,1.05s1.15,1.61,1.15,2.74-.38,2.08-1.15,2.77-1.93,1.05-3.5,1.05Z"/>
      <path class="cls-9" d="M99.49,526.67c.82,0,1.29.27,1.63.95l16.11,28.08c.27.41.34.41.68.41h.34c.34,0,.48,0,.68-.41l16.05-28.08c.34-.68.75-.95,1.56-.95h7.48c.95,0,1.36.82.95,1.7l-18.63,32.57c-1.22,2.24-2.72,3.06-5.71,3.06h-5.51c-3.06,0-4.42-.82-5.64-3.06l-18.77-32.57c-.54-.88-.07-1.7.88-1.7h7.89Z"/>
      <path class="cls-9" d="M182.79,526.67c11.9,0,16.18,3.6,16.18,13.73v9.86c0,10.13-4.28,13.73-16.18,13.73h-19.24c-11.9,0-16.11-3.6-16.11-13.73v-9.86c0-10.13,4.22-13.73,16.11-13.73h19.24ZM157.09,548.57c0,5.71,1.5,7.14,7.41,7.14h17.34c5.98,0,7.48-1.43,7.48-7.14v-6.46c0-5.64-1.5-7.07-7.48-7.07h-17.34c-5.92,0-7.41,1.43-7.41,7.07v6.46Z"/>
      <path class="cls-6" d="M256.37,516.41c1.02,0,1.5.48,1.5,1.5v6.66c0,1.02-.48,1.5-1.5,1.5h-30.26c-7,0-9.04,2.11-9.04,9.32v9.66c0,7.21,2.04,9.31,9.04,9.31h30.26c1.02,0,1.5.48,1.5,1.5v6.66c0,1.02-.48,1.5-1.5,1.5h-30.6c-13.8,0-19.04-4.9-19.04-17.95v-11.69c0-13.05,5.23-17.95,19.04-17.95h30.6Z"/>
      <path class="cls-6" d="M273.16,513.01c.95,0,1.5.48,1.5,1.5v48c0,1.02-.54,1.5-1.5,1.5h-6.66c-1.02,0-1.5-.48-1.5-1.5v-48c0-1.02.48-1.5,1.5-1.5h6.66Z"/>
      <path class="cls-6" d="M318.11,526.67c11.9,0,16.18,3.6,16.18,13.73v9.86c0,10.13-4.28,13.73-16.18,13.73h-19.24c-11.9,0-16.11-3.6-16.11-13.73v-9.86c0-10.13,4.22-13.73,16.11-13.73h19.24ZM292.41,548.57c0,5.71,1.5,7.14,7.41,7.14h17.34c5.98,0,7.48-1.43,7.48-7.14v-6.46c0-5.64-1.5-7.07-7.48-7.07h-17.34c-5.92,0-7.41,1.43-7.41,7.07v6.46Z"/>
      <path class="cls-6" d="M350.34,526.67c1.02,0,1.5.54,1.5,1.5v19.79c0,5.98,1.36,7.41,7,7.41h17.47c5.85,0,7.48-1.63,7.48-7.41v-19.79c0-.95.54-1.5,1.5-1.5h6.66c1.02,0,1.5.54,1.5,1.5v22.1c0,10.06-4.15,13.73-16.18,13.73h-18.97c-11.97,0-16.12-3.67-16.12-13.73v-22.1c0-.95.48-1.5,1.5-1.5h6.66Z"/>
      <path class="cls-6" d="M443.02,526.67v-12.17c0-1.02.54-1.5,1.5-1.5h6.66c1.02,0,1.5.48,1.5,1.5v35.76c0,10.06-4.15,13.73-16.18,13.73h-19.04c-11.97,0-16.11-3.67-16.11-13.73v-9.86c0-10,4.15-13.73,16.11-13.73h25.57ZM443.02,548.36v-13.26h-24.61c-5.85,0-7.41,1.43-7.41,7.21v6.05c0,5.78,1.56,7.21,7.41,7.21h17.13c5.85,0,7.48-1.43,7.48-7.21Z"/>
    </g>
    <g>
      <path class="cls-6" d="M98.54,593.14c0,2.62-1.94,4.11-5.79,4.11h-7.08v-15.4h6.64c3.43,0,5.41,1.45,5.41,3.96,0,1.76-.95,2.93-2.35,3.5,1.98.44,3.17,1.74,3.17,3.83ZM87.3,583.19v5.59h4.91c2.46,0,3.89-.95,3.89-2.79s-1.43-2.79-3.89-2.79h-4.91ZM96.92,593c0-2-1.47-2.88-4.18-2.88h-5.43v5.79h5.43c2.71,0,4.18-.88,4.18-2.91Z"/>
      <path class="cls-6" d="M112.36,585.68v11.57h-1.5v-2.11c-.81,1.41-2.31,2.22-4.16,2.22-2.95,0-4.88-1.65-4.88-4.97v-6.71h1.56v6.56c0,2.46,1.28,3.72,3.48,3.72,2.42,0,3.94-1.56,3.94-4.2v-6.07h1.56Z"/>
      <path class="cls-6" d="M116.38,582.02c0-.59.51-1.1,1.14-1.1s1.14.48,1.14,1.08c0,.64-.48,1.14-1.14,1.14s-1.14-.51-1.14-1.12ZM116.73,585.68h1.56v11.57h-1.56v-11.57Z"/>
      <path class="cls-6" d="M122.65,580.92h1.56v16.33h-1.56v-16.33Z"/>
      <path class="cls-6" d="M134.71,596.55c-.62.55-1.54.81-2.44.81-2.18,0-3.39-1.23-3.39-3.37v-7h-2.07v-1.32h2.07v-2.53h1.56v2.53h3.52v1.32h-3.52v6.91c0,1.36.7,2.11,2,2.11.64,0,1.28-.2,1.72-.59l.55,1.12Z"/>
      <path class="cls-6" d="M145.27,583.26v6.05h7.96v1.41h-7.96v6.54h-1.63v-15.4h10.56v1.41h-8.93Z"/>
      <path class="cls-6" d="M155.67,591.46c0-3.43,2.51-5.88,5.9-5.88s5.87,2.44,5.87,5.88-2.49,5.9-5.87,5.9-5.9-2.46-5.9-5.9ZM165.86,591.46c0-2.71-1.83-4.51-4.29-4.51s-4.31,1.8-4.31,4.51,1.85,4.51,4.31,4.51,4.29-1.8,4.29-4.51Z"/>
      <path class="cls-6" d="M176.47,585.59v1.52c-.13,0-.26-.02-.37-.02-2.42,0-3.89,1.54-3.89,4.27v5.9h-1.56v-11.57h1.5v2.27c.73-1.54,2.2-2.35,4.33-2.35Z"/>
      <path class="cls-6" d="M184.08,595.38l.64-1.25c1.1,1.08,3.06,1.87,5.08,1.87,2.88,0,4.14-1.21,4.14-2.73,0-4.22-9.48-1.63-9.48-7.33,0-2.27,1.76-4.22,5.68-4.22,1.74,0,3.54.51,4.78,1.36l-.55,1.3c-1.32-.86-2.86-1.28-4.22-1.28-2.82,0-4.07,1.25-4.07,2.79,0,4.22,9.48,1.67,9.48,7.28,0,2.27-1.8,4.2-5.74,4.2-2.31,0-4.58-.81-5.72-2Z"/>
      <path class="cls-6" d="M208.83,591.95h-9.68c.18,2.42,2.02,4.03,4.55,4.03,1.41,0,2.66-.51,3.54-1.52l.88,1.01c-1.03,1.23-2.64,1.89-4.47,1.89-3.61,0-6.07-2.46-6.07-5.9s2.4-5.88,5.65-5.88,5.61,2.4,5.61,5.88c0,.13-.02.31-.02.48ZM199.15,590.78h8.21c-.2-2.27-1.85-3.85-4.12-3.85s-3.89,1.58-4.09,3.85Z"/>
      <path class="cls-6" d="M210.87,591.46c0-3.45,2.51-5.88,5.96-5.88,1.96,0,3.61.77,4.53,2.29l-1.17.79c-.79-1.17-2.02-1.72-3.37-1.72-2.53,0-4.38,1.8-4.38,4.51s1.85,4.51,4.38,4.51c1.34,0,2.57-.53,3.37-1.69l1.17.79c-.92,1.5-2.57,2.29-4.53,2.29-3.45,0-5.96-2.44-5.96-5.9Z"/>
      <path class="cls-6" d="M234.85,585.68v11.57h-1.5v-2.11c-.81,1.41-2.31,2.22-4.16,2.22-2.95,0-4.88-1.65-4.88-4.97v-6.71h1.56v6.56c0,2.46,1.28,3.72,3.48,3.72,2.42,0,3.94-1.56,3.94-4.2v-6.07h1.56Z"/>
      <path class="cls-6" d="M245.06,585.59v1.52c-.13,0-.26-.02-.38-.02-2.42,0-3.89,1.54-3.89,4.27v5.9h-1.56v-11.57h1.5v2.27c.73-1.54,2.2-2.35,4.34-2.35Z"/>
      <path class="cls-6" d="M257.84,591.95h-9.68c.18,2.42,2.02,4.03,4.55,4.03,1.41,0,2.66-.51,3.54-1.52l.88,1.01c-1.03,1.23-2.64,1.89-4.47,1.89-3.61,0-6.07-2.46-6.07-5.9s2.4-5.88,5.65-5.88,5.61,2.4,5.61,5.88c0,.13-.02.31-.02.48ZM248.16,590.78h8.21c-.2-2.27-1.85-3.85-4.12-3.85s-3.89,1.58-4.09,3.85Z"/>
      <path class="cls-6" d="M267.15,581.85h1.63v15.4h-1.63v-15.4Z"/>
      <path class="cls-6" d="M284.11,590.54v6.71h-1.56v-6.56c0-2.44-1.28-3.7-3.48-3.7-2.49,0-4.05,1.54-4.05,4.18v6.07h-1.56v-11.57h1.5v2.13c.84-1.41,2.4-2.22,4.4-2.22,2.82,0,4.75,1.63,4.75,4.95Z"/>
      <path class="cls-6" d="M294.45,596.55c-.62.55-1.54.81-2.44.81-2.18,0-3.39-1.23-3.39-3.37v-7h-2.07v-1.32h2.07v-2.53h1.56v2.53h3.52v1.32h-3.52v6.91c0,1.36.71,2.11,2,2.11.64,0,1.28-.2,1.72-.59l.55,1.12Z"/>
      <path class="cls-6" d="M303.12,585.59v1.52c-.13,0-.26-.02-.37-.02-2.42,0-3.89,1.54-3.89,4.27v5.9h-1.56v-11.57h1.5v2.27c.73-1.54,2.2-2.35,4.33-2.35Z"/>
      <path class="cls-6" d="M314.65,590.08v7.17h-1.5v-1.8c-.7,1.19-2.07,1.92-3.98,1.92-2.62,0-4.22-1.36-4.22-3.37,0-1.78,1.14-3.28,4.47-3.28h3.68v-.7c0-1.98-1.12-3.06-3.28-3.06-1.5,0-2.9.53-3.85,1.36l-.7-1.17c1.17-.99,2.88-1.56,4.71-1.56,2.99,0,4.69,1.5,4.69,4.49ZM313.08,593.77v-1.89h-3.63c-2.24,0-2.97.88-2.97,2.07,0,1.34,1.08,2.18,2.93,2.18s3.06-.84,3.68-2.35Z"/>
      <path class="cls-6" d="M329.54,590.54v6.71h-1.56v-6.56c0-2.44-1.28-3.7-3.48-3.7-2.49,0-4.05,1.54-4.05,4.18v6.07h-1.56v-11.57h1.5v2.13c.84-1.41,2.4-2.22,4.4-2.22,2.82,0,4.75,1.63,4.75,4.95Z"/>
      <path class="cls-6" d="M343.91,591.95h-9.68c.18,2.42,2.02,4.03,4.55,4.03,1.41,0,2.66-.51,3.54-1.52l.88,1.01c-1.03,1.23-2.64,1.89-4.47,1.89-3.61,0-6.07-2.46-6.07-5.9s2.4-5.88,5.65-5.88,5.61,2.4,5.61,5.88c0,.13-.02.31-.02.48ZM334.22,590.78h8.21c-.2-2.27-1.85-3.85-4.12-3.85s-3.89,1.58-4.09,3.85Z"/>
      <path class="cls-6" d="M353.21,596.55c-.62.55-1.54.81-2.44.81-2.18,0-3.39-1.23-3.39-3.37v-7h-2.07v-1.32h2.07v-2.53h1.56v2.53h3.52v1.32h-3.52v6.91c0,1.36.7,2.11,2,2.11.64,0,1.28-.2,1.72-.59l.55,1.12Z"/>
      <path class="cls-6" d="M360.78,589.55c0-4.51,3.43-7.83,8.07-7.83,2.25,0,4.27.75,5.63,2.24l-1.03,1.03c-1.25-1.28-2.79-1.83-4.55-1.83-3.72,0-6.51,2.73-6.51,6.38s2.79,6.38,6.51,6.38c1.76,0,3.3-.55,4.55-1.85l1.03,1.03c-1.36,1.5-3.39,2.27-5.65,2.27-4.62,0-8.05-3.32-8.05-7.83Z"/>
      <path class="cls-6" d="M377.63,580.92h1.56v16.33h-1.56v-16.33Z"/>
      <path class="cls-6" d="M382.38,591.46c0-3.43,2.51-5.88,5.9-5.88s5.88,2.44,5.88,5.88-2.49,5.9-5.88,5.9-5.9-2.46-5.9-5.9ZM392.57,591.46c0-2.71-1.83-4.51-4.29-4.51s-4.31,1.8-4.31,4.51,1.85,4.51,4.31,4.51,4.29-1.8,4.29-4.51Z"/>
      <path class="cls-6" d="M407.77,585.68v11.57h-1.5v-2.11c-.81,1.41-2.31,2.22-4.16,2.22-2.95,0-4.88-1.65-4.88-4.97v-6.71h1.56v6.56c0,2.46,1.28,3.72,3.48,3.72,2.42,0,3.94-1.56,3.94-4.2v-6.07h1.56Z"/>
      <path class="cls-6" d="M422.71,580.92v16.33h-1.5v-2.29c-.95,1.56-2.55,2.4-4.47,2.4-3.3,0-5.76-2.4-5.76-5.9s2.46-5.88,5.76-5.88c1.85,0,3.43.79,4.4,2.29v-6.95h1.56ZM421.17,591.46c0-2.71-1.85-4.51-4.29-4.51s-4.31,1.8-4.31,4.51,1.85,4.51,4.31,4.51,4.29-1.8,4.29-4.51Z"/>
    </g>
  </g>
</svg>