<?xml version="1.0" encoding="UTF-8"?>
<svg id="Layer_1" xmlns="http://www.w3.org/2000/svg" version="1.1" viewBox="0 0 640 480">
  <!-- Generator: Adobe Illustrator 29.8.1, SVG Export Plug-In . SVG Version: 2.1.1 Build 2)  -->
  <defs>
    <style>
      .st0 {
        fill: #075691;
      }

      .st1 {
        fill: #45d5f8;
      }

      .st2 {
        fill: #009cd9;
      }

      .st3 {
        fill: #006cff;
      }

      .st4 {
        fill: #08aae8;
      }

      .st5 {
        fill: #083c6c;
      }

      .st6 {
        fill: #18dda8;
      }

      .st7 {
        fill: #4c831f;
      }

      .st8 {
        fill: #023fff;
      }

      .st9 {
        fill: #20a1ce;
      }

      .st10 {
        fill: #fff;
      }

      .st11 {
        fill: #7c259f;
      }

      .st12 {
        fill: #3ea6c6;
      }

      .st13 {
        fill: #0435af;
      }

      .st14 {
        fill: #93eaf9;
      }

      .st15 {
        fill: #fb0;
      }

      .st16 {
        fill: #0500bf;
      }

      .st17 {
        fill: #c293d6;
      }

      .st18 {
        fill: #023f6c;
      }

      .st19 {
        fill: #177cd6;
      }

      .st20 {
        fill: #1a0f68;
      }

      .st21 {
        fill: #f2f2f2;
      }

      .st22 {
        fill: #0fc393;
      }

      .st23 {
        fill: #c77f0d;
      }

      .st24 {
        fill: #eeb715;
      }

      .st25 {
        fill: #0071a8;
      }

      .st26 {
        fill: #00ccfe;
      }

      .st27 {
        fill: #022e87;
      }

      .st28 {
        fill: #00aaf2;
      }

      .st29 {
        fill: #087055;
      }

      .st30 {
        fill: #7eb551;
      }

      .st31 {
        fill: #089999;
      }

      .st32 {
        fill: #5fa326;
      }

      .st33 {
        fill: #0193cc;
      }

      .st34 {
        fill: #ffdd20;
      }

      .st35 {
        fill: #500a79;
      }

      .st36 {
        fill: #006ea1;
      }

      .st37 {
        fill: #1f279f;
      }

      .st38 {
        fill: none;
        stroke: #0500bf;
        stroke-miterlimit: 10;
        stroke-width: 2px;
      }

      .st39 {
        fill: #12dee7;
      }

      .st40 {
        fill: #6a72c3;
      }

      .st41 {
        fill: #005677;
      }

      .st42 {
        fill: #774d10;
      }

      .st43 {
        fill: #aefdff;
      }

      .st44 {
        fill: #067275;
      }
    </style>
  </defs>
  <g>
    <path class="st25" d="M485.1,239l-.7,65.2c0,2.8,3.1,4.4,5.3,2.8l23.1-16.2v-66.4c0-2.8-3.2-4.4-5.5-2.7l-22.3,17.3h0Z"/>
    <g>
      <path class="st10" d="M494,290.4c0-2.4.9-3.4,3.2-3.4h2.1c2.3,0,3.2.9,3.2,3.4v3.7c0,2.4-.9,3.4-3.2,3.4h-2.1c-2.3,0-3.2-.9-3.2-3.4v-3.7ZM499.1,295.7c1.3,0,1.6-.3,1.6-1.6v-3.6c0-1.3-.3-1.6-1.6-1.6h-1.8c-1.3,0-1.6.3-1.6,1.6v3.6c0,1.3.3,1.6,1.6,1.6h1.8Z"/>
      <path class="st10" d="M495.8,279.4c0-2.1.7-2.8,2.4-2.8h3.9c.2,0,.3,0,.3.3v1.2c0,.2,0,.3-.3.3h-3.5c-1.1,0-1.3.3-1.3,1.2v3.2c0,1,.3,1.3,1.3,1.3h3.5c.2,0,.3,0,.3.3v1.2c0,.2,0,.3-.3.3h-3.9c-1.8,0-2.4-.7-2.4-2.8v-3.4h0Z"/>
      <path class="st10" d="M497.6,271.7c0-.1,0-.2.2-.2h.9c.1,0,.2,0,.2.2v3.6c0,.1,0,.2-.2.2h-.9c-.1,0-.2,0-.2-.2v-3.6Z"/>
      <path class="st10" d="M494,263.7c0-1.8.9-2.6,2.4-2.6h.9c1.6,0,2.5.8,2.5,2.6v5h2.3c.2,0,.3,0,.3.3v1.3c0,.2,0,.3-.3.3h-7.8c-.3,0-.4-.1-.4-.4v-6.4h0ZM498.2,264c0-.8-.3-1.1-1-1.1h-.4c-.7,0-1,.3-1,1.1v4.4c0,.1,0,.2.1.2h2.4v-4.6h0Z"/>
      <path class="st10" d="M495.8,253.9c0-.1,0-.2.2-.2h1.1c.1,0,.2,0,.2.2v3.2c0,1,.3,1.3,1.3,1.3h3.6c.2,0,.3,0,.3.3v1.2c0,.2,0,.3-.3.3h-3.9c-1.8,0-2.4-.7-2.4-2.8v-3.3h0Z"/>
      <path class="st10" d="M495.8,246.6c0-1.6.5-2.1,2-2.1h1.2c.5,0,.7.2.7.7v6h.2c.8,0,1-.3,1-1.3v-5c0-.1,0-.2.2-.2h1.1c.1,0,.2,0,.2.2v5.1c0,2.1-.6,2.8-2.4,2.8h-1.7c-1.8,0-2.4-.7-2.4-2.8v-3.5h0ZM498.4,246.4c0-.1,0-.2-.2-.2h-.4c-.5,0-.6.1-.6.7v3c0,1.1.2,1.3,1,1.3h.3v-4.8h0Z"/>
      <path class="st10" d="M495.8,234.3c0-2.1.7-2.8,2.4-2.8h3.9c.2,0,.3,0,.3.3v1.2c0,.2,0,.3-.3.3h-3.5c-1.1,0-1.3.3-1.3,1.2v2.1h4.8c.2,0,.3,0,.3.3v1.2c0,.2,0,.3-.3.3h-4.8v2c0,1,.3,1.3,1.3,1.3h3.5c.2,0,.3,0,.3.3v1.2c0,.2,0,.3-.3.3h-3.9c-1.8,0-2.4-.7-2.4-2.8v-6.1h0Z"/>
    </g>
  </g>
  <g>
    <path class="st15" d="M485.1,316.1l-.7,58.8c0,2.8,3,4.4,5.3,2.8l23.2-15.8v-58.4c0-2.7-3.1-4.3-5.3-2.8l-22.5,15.4h0Z"/>
    <g>
      <path d="M494,352.4c0-.2,0-.3.3-.3h1.2c.2,0,.3,0,.3.3v5.3c0,1.2.4,1.6,1.6,1.6h1.7c1.3,0,1.6-.4,1.6-1.6v-5.3c0-.2,0-.3.3-.3h1.2c.2,0,.3,0,.3.3v5.4c0,2.4-.9,3.4-3.2,3.4h-2.1c-2.3,0-3.2-.9-3.2-3.4v-5.4h0Z"/>
      <path d="M493.4,349.4c0-.2,0-.3.3-.3h8.5c.2,0,.3,0,.3.3v1.2c0,.2,0,.3-.3.3h-8.5c-.2,0-.3,0-.3-.3v-1.2Z"/>
      <path d="M495.8,341.5c0-2.1.6-2.8,2.4-2.8h1.7c1.8,0,2.4.8,2.4,2.8v3.4c0,2.1-.6,2.8-2.4,2.8h-1.7c-1.8,0-2.4-.8-2.4-2.8v-3.4ZM499.6,346.1c1,0,1.3-.3,1.3-1.3v-3.1c0-1.1-.3-1.3-1.3-1.3h-1.1c-1,0-1.3.3-1.3,1.3v3.1c0,1,.3,1.3,1.3,1.3h1.1Z"/>
      <path d="M495.8,335.8c0-.2,0-.3.3-.3h3.5c1.1,0,1.3-.3,1.3-1.2v-3.1c0-1-.3-1.3-1.3-1.3h-3.5c-.2,0-.3,0-.3-.3v-1.2c0-.2,0-.3.3-.3h3.9c1.8,0,2.4.7,2.4,2.8v3.3c0,2.1-.6,2.8-2.4,2.8h-3.9c-.2,0-.3,0-.3-.3v-1.2h0Z"/>
      <path d="M495.8,319.5h-2.1c-.2,0-.3,0-.3-.3v-1.2c0-.2,0-.3.3-.3h6.3c1.8,0,2.4.7,2.4,2.8v3.4c0,2.1-.6,2.8-2.4,2.8h-1.7c-1.8,0-2.4-.7-2.4-2.8v-4.5h0ZM499.6,319.5h-2.3v4.3c0,1,.3,1.3,1.3,1.3h1.1c1,0,1.3-.3,1.3-1.3v-3c0-1-.3-1.3-1.3-1.3h0Z"/>
    </g>
  </g>
  <g>
    <path class="st25" d="M485.1,387.4l-.7,58.3c0,2.8,3,4.4,5.3,2.8l23.2-15.8v-58.3c0-2.8-3.1-4.3-5.3-2.8l-22.5,15.8h0Z"/>
    <g>
      <path class="st10" d="M494,421.6c0-.2,0-.3.3-.3h1.2c.2,0,.3,0,.3.3v5.3c0,1.2.3,1.6,1.6,1.6h0v-6.7c0-.2,0-.3.3-.3h1.1c.2,0,.3,0,.3.3v6.7h.1c1.3,0,1.6-.3,1.6-1.6v-5.3c0-.2,0-.3.3-.3h1.2c.2,0,.3,0,.3.3v5.3c0,2.4-.9,3.4-3.2,3.4h-2.1c-2.3,0-3.2-.9-3.2-3.4v-5.3h0Z"/>
      <path class="st10" d="M495.8,412.7h-2.1c-.2,0-.3,0-.3-.3v-1.2c0-.2,0-.3.3-.3h6.3c1.8,0,2.4.7,2.4,2.8v3.4c0,2.1-.6,2.8-2.4,2.8h-1.7c-1.8,0-2.4-.7-2.4-2.8v-4.5h0ZM499.6,412.7h-2.3v4.3c0,1,.3,1.3,1.3,1.3h1.1c1,0,1.3-.3,1.3-1.3v-3c0-1-.3-1.3-1.3-1.3h0Z"/>
      <path class="st10" d="M495.8,403.5c0-2.1.6-2.8,2.4-2.8h4.4c1.8,0,2.4.8,2.4,2.8v5.7c0,.1,0,.2-.2.2h-1.1c-.1,0-.2,0-.2-.2v-5.5c0-1-.3-1.3-1.3-1.3h-.2v4.5c0,2.1-.7,2.8-2.6,2.8h-1.3c-1.8,0-2.4-.8-2.4-2.8v-3.4h0ZM500.6,406.6v-4.3h-2.3c-.9,0-1.1.3-1.1,1.3v3c0,1,.2,1.3,1.1,1.3h1.1c.9,0,1.1-.3,1.1-1.3h0Z"/>
      <path class="st10" d="M495.8,393c0-1.6.5-2.1,2-2.1h1.2c.5,0,.7.2.7.7v6h.2c.8,0,1-.3,1-1.3v-5c0-.1,0-.2.2-.2h1.1c.1,0,.2,0,.2.2v5.2c0,2.1-.6,2.8-2.4,2.8h-1.7c-1.8,0-2.4-.7-2.4-2.8v-3.5h0ZM498.4,392.8c0-.1,0-.2-.2-.2h-.4c-.5,0-.6.1-.6.7v3c0,1.1.2,1.3,1,1.3h.3v-4.8h0Z"/>
    </g>
  </g>
  <g>
    <path class="st21" d="M482.5,12.4v196.3c0,4.6,5.9,7.2,10,4.5l18.4-12.1V8.4c0-5-6.2-8.1-11.1-5.5l-17.3,9.4h0Z"/>
    <g>
      <g>
        <path class="st8" d="M490.1,184.9c0,.1-.2.3-.3.4-.2.3-.3.6-.5.9-.2.3-.4.7-.5,1-.2.3-.4.6-.5,1s-.4.6-.5,1-.4.7-.5,1-.4.6-.5.9c-.2.4-.4.8-.6,1.1,0,0,0,.2-.1.3-.2.3-.3.5-.4.8-.1.2-.2.4-.3.6-.2.3-.3.6-.5.9-.1.2-.2.4-.3.6v.2c0,.1.2.3.3.4.2.3.4.6.5.9.2.3.4.7.6,1,.2.3.3.6.5.9.2.3.4.7.5,1,.2.3.4.6.5,1s.4.6.5,1,.4.6.5,1,.3.6.5,1c.2.3.4.7.5,1,.2.3.4.7.6,1,.1.2.3.3.4.3.2,0,.4,0,.5,0,.3,0,.6,0,.9,0s.2,0,.3,0c.1,0,.2,0,.3,0s.2,0,.3,0c.3,0,.6,0,.9,0h0c.1,0,.2,0,.3,0s.3,0,.4,0c.2,0,.3,0,.5,0,0,0,.2,0,.3,0s.2,0,.3,0c.2,0,.3,0,.5,0,0,0,.2,0,.3,0s.2,0,.3,0c.1,0,.3,0,.4,0,.3,0,.5,0,.7,0s.3,0,.5,0c0,0,.2,0,.3,0,0,0,.2,0,.3,0s.2,0,.3,0c.2,0,.4-.1.6-.2.2,0,.4-.1.6-.2.4-.1.8-.3,1.1-.5.2,0,.3-.2.5-.3.1,0,.3-.1.4-.2.4-.3.8-.6,1.2-.8.3-.2.6-.5.8-.7.2-.2.4-.5.7-.7,0-.1.2-.2.3-.3.3-.4.5-.7.8-1.1.2-.3.4-.6.6-.8.3-.4.6-.8.8-1.2.2-.3.4-.6.6-.8.3-.5.6-1,1-1.4v-.4s0,0,0-.1c-.1-.2-.3-.4-.4-.5-.5-.8-1-1.4-1.4-2.2,0-.1-.2-.3-.3-.4s-.2-.3-.3-.4-.2-.3-.3-.4c-.3-.5-.7-1-1-1.5-.3-.3-.5-.6-.8-.9s-.2-.2-.4-.3c-.3-.2-.5-.5-.8-.7-.2-.1-.3-.3-.5-.4-.2-.1-.4-.2-.5-.3-.3-.2-.6-.3-.8-.5-.4-.2-.8-.3-1.1-.5-.2,0-.4-.1-.6-.2s-.4-.1-.6-.2c-.1,0-.3,0-.4-.1-.1,0-.3,0-.4,0,0,0-.2,0-.3,0h0c0,0-.1,0-.2,0,0,0-.2,0-.3,0-.2,0-.3,0-.5,0-.1,0-.3,0-.4,0s-.3,0-.4,0c-.3,0-.6,0-.9,0-.2,0-.4,0-.5,0h0c0,0-.2,0-.3,0s-.2,0-.3,0c-.2,0-.3,0-.5,0-.3,0-.7,0-1,0h-.2c0,0-.2,0-.3,0-.1,0-.2,0-.3,0-.3,0-.6,0-.9,0h0c0,0-.1,0-.2,0,0,0-.2,0-.3,0-.1,0-.2,0-.3,0h0Z"/>
        <path class="st27" d="M490.9,185.7h.1c.3,0,.6,0,.9,0,.2,0,.4,0,.6,0,0,0,.2,0,.3,0h.3c.1,0,.3,0,.4,0,.1,0,.2,0,.3,0h.3c.2,0,.3,0,.5,0,.1,0,.2,0,.3,0,.1,0,.2,0,.3,0h0c.3,0,.6,0,.9,0,.2,0,.4,0,.7,0,.1,0,.2,0,.3,0s.2,0,.3,0c.1,0,.3,0,.4,0,.2,0,.4,0,.7.1.3,0,.5,0,.7.2.2,0,.4.1.6.2.2,0,.3.1.5.2.3.1.8.4,1.1.5.1,0,.3.1.4.2.3.2.7.4,1,.7.2.1.4.3.6.5.3.2.5.5.8.8.3.3.5.6.8.9.2.3.3.5.5.8.2.3.3.5.5.8.2.3.3.5.5.8.4.5.7,1.1,1.1,1.6.2.3.4.6.6.9-.4.6-.8,1.1-1.1,1.7-.2.4-.5.8-.8,1.1-.2.3-.4.6-.6.9-.1.2-.2.4-.4.6-.1.2-.3.4-.4.6-.2.3-.4.5-.6.8-.2.3-.5.5-.7.8-.3.3-.6.6-1,.8-.2.2-.4.3-.7.5-.4.3-.8.5-1.2.7-.3.1-.6.3-.9.4-.3,0-.5.2-.8.3-.1,0-.3,0-.4.1-.1,0-.3,0-.4,0-.2,0-.5,0-.7.1h0c-.3,0-.6,0-.8,0-.2,0-.4,0-.6,0-.1,0-.3,0-.4,0-.3,0-.6,0-.9,0-.2,0-.3,0-.5,0-.1,0-.2,0-.4,0s-.2,0-.3,0h0c-.3,0-.5,0-.8,0-.2,0-.4,0-.7,0-.1,0-.3,0-.4,0-.2,0-.4,0-.6,0-.1,0-.3,0-.4,0-.2-.4-.4-.8-.7-1.2-.2-.3-.3-.6-.5-.9-.2-.3-.4-.7-.6-1-.2-.3-.4-.6-.5-.9-.2-.3-.3-.7-.5-1-.2-.4-.4-.7-.6-1.1-.2-.3-.4-.6-.5-1s-.4-.6-.5-1-.4-.7-.5-1c-.1-.2-.2-.5-.4-.7.2-.4.5-.8.7-1.3.2-.3.4-.7.6-1,.1-.2.3-.5.4-.8.2-.2.3-.5.4-.7s.3-.5.4-.8c.1-.2.2-.4.4-.6,0,0,0-.1,0-.2.2-.4.4-.8.7-1.2.2-.3.3-.6.5-.9.2-.3.4-.7.6-1,.2-.3.4-.7.6-1,0,0,0-.1.1-.3.1,0,.3,0,.4,0h0v-.2Z"/>
        <path class="st13" d="M491.3,186.5c-.2,0-.3,0-.4.2-.1.2-.2.4-.3.6-.2.3-.3.6-.5.9-.2.3-.4.7-.6,1-.2.3-.3.6-.5.9-.2.4-.4.8-.6,1.1,0,0,0,.2-.1.3-.2.3-.4.7-.6,1.1-.1.2-.2.3-.3.5-.1.2-.1.4-.3.5-.2.4-.4.8-.6,1.1,0,0,0,.2-.1.2,0,.2-.2.3-.2.5.1.3.3.5.4.8.2.3.3.7.5,1,.2.3.3.6.5.9.2.3.4.7.6,1,.2.3.3.6.5.9.2.4.4.8.7,1.2,0,0,0,.1,0,.2.1.2.3.4.4.6.1.3.3.5.4.7.2.3.3.6.5.8,0,.1.1.3.2.4,0,0,.1.2.3.2s.3,0,.4,0,.2,0,.3,0c0,0,.2,0,.3,0,.2,0,.4,0,.5,0,.2,0,.4,0,.7,0,.3,0,.5,0,.8,0h0c.1,0,.3,0,.4,0s.3,0,.4,0c.3,0,.6,0,1,0h0c0,0,.2,0,.3,0s.2,0,.3,0c.2,0,.4,0,.6,0,.2,0,.4,0,.6,0h.1c.1,0,.3,0,.4-.1.1,0,.3,0,.4,0s.3,0,.4-.1c.4-.1.8-.3,1.2-.5.3-.1.6-.3.9-.5.2-.1.4-.3.6-.4.3-.2.6-.4.8-.6.5-.4.9-.9,1.3-1.4,0,0,.1-.1.2-.3.3-.5.7-1,1-1.4.3-.4.5-.8.8-1.1.3-.5.6-.9.9-1.4.1-.2.2-.3.2-.6,0,0,0,0,0,0-.2-.3-.4-.6-.6-.9-.3-.4-.5-.8-.8-1.1-.2-.3-.4-.5-.5-.8-.2-.3-.4-.6-.6-.8-.3-.4-.6-.8-.9-1.2-.3-.3-.6-.7-1-1-.2-.2-.4-.3-.7-.5-.3-.3-.7-.5-1.1-.7-.2-.1-.4-.2-.6-.3-.1,0-.2-.1-.3-.1-.1,0-.3,0-.4-.1-.2,0-.4-.1-.7-.2-.2,0-.3-.1-.5-.1-.2-.1-.5-.1-.8-.2-.3,0-.6,0-.9,0h-.2c0,0-.2,0-.3,0,0,0-.2,0-.3,0-.3,0-.7,0-1,0h0c0,0-.2,0-.3,0-.1,0-.2,0-.3,0-.2,0-.4,0-.6,0-.3,0-.6,0-.8,0s-.5,0-.7,0h0c-.1,0-.3,0-.4,0-.1,0-.3,0-.4,0h0Z"/>
        <path class="st10" d="M491.8,187.3c.1,0,.3,0,.4,0h.4c.1,0,.3,0,.4,0,.2,0,.4,0,.6,0,.2,0,.4,0,.6,0,.1,0,.3,0,.4,0,0,0,.2,0,.3,0h.3c.1,0,.3,0,.4,0,.2,0,.4,0,.7,0,.2,0,.4,0,.6,0,.3,0,.5,0,.8.1h.1c.1,0,.3,0,.4,0,.1,0,.2,0,.3,0,0,0,.1,0,.2,0,.1,0,.3,0,.4.1.5.2,1,.4,1.4.6.3.2.6.3.8.5.3.2.6.4.8.7.1,0,.2.2.3.3.3.4.7.8.9,1.2.1.2.3.4.5.7.2.2.3.5.4.7.4.6.8,1.2,1.2,1.8.1.2.3.4.4.6,0,.1,0,.2,0,.3-.3.3-.4.6-.6.8-.2.3-.4.6-.6.9-.2.3-.4.6-.6.9s-.4.6-.6.9c-.2.2-.3.4-.5.7-.2.2-.4.5-.6.7-.3.3-.6.6-1,.8-.3.2-.5.4-.8.6-.2.1-.5.3-.7.4-.3.1-.6.3-.8.3-.2,0-.4.1-.6.2h0c-.2,0-.3,0-.5.1-.2,0-.3,0-.5,0h0c-.3,0-.5,0-.8,0-.3,0-.5,0-.8,0s-.2,0-.3,0-.2,0-.3,0h0c-.3,0-.6,0-.9,0-.2,0-.4,0-.6,0-.2,0-.4,0-.5,0s-.2,0-.3,0c-.1,0-.2,0-.3,0-.1,0-.3,0-.4,0-.3,0-.5,0-.7,0,0-.1-.1-.3-.2-.4-.1-.3-.3-.5-.4-.8-.2-.3-.3-.6-.5-.9-.2-.4-.4-.7-.6-1.1-.2-.3-.3-.6-.5-.9-.2-.4-.4-.8-.6-1.1-.1-.3-.3-.5-.4-.8-.1-.2-.3-.4-.4-.6,0,0,0-.1,0-.2-.2-.4-.5-.8-.7-1.2,0,0,0,0-.1-.1.2-.2.2-.4.4-.6,0,0,0-.1,0-.2.2-.4.4-.8.7-1.2.2-.3.3-.6.5-.9.2-.4.4-.8.6-1.1.1-.2.3-.4.3-.6.1-.3.3-.5.4-.8,0,0,0-.1.1-.2.2-.4.4-.8.6-1.2.2-.3.4-.6.5-1,0,0,.1-.1.2-.2h.4,0Z"/>
        <path class="st38" d="M489.4,190.9l2.3,3.6M487.8,193.7l3.1,5.5M491.6,197.1l-.5-.9h-1.9M504,198.7l-3.1-4.6M505.9,195.9l-3.2-4.8M502.2,193.3l.5.7h1.8M489.3,198.3l1.6,2.9M490.7,201.5c0,.2.2.4.4.4s.4-.2.4-.4-.2-.4-.4-.4-.4.2-.4.4ZM488.6,198c0,.2.2.4.4.4s.4-.2.4-.4-.2-.4-.4-.4-.4.2-.4.4Z"/>
        <g>
          <path class="st15" d="M490.8,190.8c0,0-.1.2-.1.3h0v8.4c0,.2,0,.4.3.5h.9v-9.3h-.9c0,0-.1,0-.1,0h0Z"/>
          <path class="st3" d="M492.1,200.7v-.8h-.9c-.3,0-.3-.3-.3-.5v-8.3h0c0-.2,0-.3.1-.4,0,0,0,0,.1,0h.9v-.8h-.9c-.2,0-.3,0-.4.1-.2.2-.5.3-.6.7,0,0,0,0,0,.1v8.7c0,.2,0,.4.2.6,0,0,.1.1.2.2.2.2.5.3.8.3h.8Z"/>
        </g>
        <g>
          <path class="st15" d="M501.9,199.9c0,0,.1-.2.1-.3h0v-8.4c0-.2,0-.4-.3-.5h-.9v9.3h.9c0,0,.1,0,.1,0h0Z"/>
          <path class="st3" d="M500.9,190.7h.9c.3,0,.3.3.3.5v8.3h0c0,.2,0,.3-.1.4,0,0,0,0-.1,0h-.9v.8h.8c.2,0,.4,0,.6-.2,0,0,.2-.1.2-.2.2-.2.3-.5.3-.8v-8.5c0-.2,0-.4-.2-.6,0,0-.1-.2-.2-.3-.1-.1-.3-.2-.4-.3h-1.1v.8h0Z"/>
        </g>
        <g>
          <g>
            <rect class="st8" x="498.2" y="190.7" width="2.6" height="9.3"/>
            <rect class="st16" x="497.8" y="191.1" width=".4" height="8.5"/>
            <ellipse class="st10" cx="499.5" cy="198.7" rx=".2" ry=".3"/>
            <path class="st24" d="M499.8,197.6c0,.2-.1.3-.2.3s-.2-.1-.2-.3.1-.3.2-.3.2.1.2.3ZM499.4,197.6c0,.1,0,.2.2.2s.2,0,.2-.2,0-.2-.2-.2-.2,0-.2.2Z"/>
            <g>
              <path class="st24" d="M499.1,191.5v4h-.3v-4h.3ZM499.1,195.4v-3.8h-.2v3.8h.2Z"/>
              <path class="st24" d="M499.7,191.5v4h-.3v-4h.3ZM499.7,195.4v-3.8h-.2v3.8h.2Z"/>
              <path class="st24" d="M500.3,191.5v4h-.3v-4h.3ZM500.2,195.4v-3.8h-.2v3.8h.2Z"/>
            </g>
          </g>
          <g>
            <rect class="st8" x="495.2" y="190.7" width="2.6" height="9.3"/>
            <rect class="st16" x="494.8" y="191.1" width=".4" height="8.5"/>
            <ellipse class="st10" cx="496.5" cy="198.7" rx=".2" ry=".3"/>
            <path class="st24" d="M496.8,197.6c0,.2-.1.3-.2.3s-.2-.1-.2-.3.1-.3.2-.3.2.1.2.3ZM496.4,197.6c0,.1,0,.2.2.2s.2,0,.2-.2,0-.2-.2-.2-.2,0-.2.2Z"/>
            <g>
              <path class="st24" d="M496.1,191.5v4h-.3v-4h.3ZM496.1,195.4v-3.8h-.2v3.8h.2Z"/>
              <path class="st24" d="M496.7,191.5v4h-.3v-4h.3ZM496.6,195.4v-3.8h-.2v3.8h.2Z"/>
              <path class="st24" d="M497.3,191.5v4h-.3v-4h.3ZM497.2,195.4v-3.8h-.2v3.8h.2Z"/>
            </g>
          </g>
          <g>
            <rect class="st8" x="492.2" y="190.7" width="2.6" height="9.3"/>
            <path class="st10" d="M493.5,198.5c.1,0,.2.1.2.3s0,.3-.2.3-.2-.1-.2-.3,0-.3.2-.3Z"/>
            <path class="st24" d="M493.8,197.6c0,.2-.1.3-.2.3s-.2-.1-.2-.3.1-.3.2-.3.2.1.2.3ZM493.3,197.6c0,.1,0,.2.2.2s.2,0,.2-.2,0-.2-.2-.2-.2,0-.2.2Z"/>
            <g>
              <path class="st24" d="M493.1,191.5v4h-.3v-4h.3ZM493,195.4v-3.8h-.2v3.8h.2Z"/>
              <path class="st24" d="M493.7,191.5v4h-.3v-4h.3ZM493.6,195.4v-3.8h-.2v3.8h.2Z"/>
              <path class="st24" d="M494.3,191.5v4h-.3v-4h.3ZM494.2,195.4v-3.8h-.2v3.8h.2Z"/>
            </g>
          </g>
        </g>
      </g>
      <g>
        <path class="st15" d="M490.3,164.8v9.2h5v-8.5c0-.6.1-1.1.4-1.4s.6-.5,1.1-.5.8.1,1.1.4.4.8.4,1.4v8.5h5.7v-9.5c0-.6.1-1.1.4-1.4s.7-.5,1.2-.5.9.2,1.2.5.4.8.4,1.4v11.1c0,.9-.2,1.5-.6,1.9s-1,.6-1.9.6h-15.1c-.6,0-1.1,0-1.4-.3-.4-.2-.6-.4-.8-.8s-.3-.8-.3-1.4v-10.8c0-.6.1-1.1.4-1.4.3-.3.7-.5,1.1-.5s.9.2,1.1.5.4.8.4,1.4h0Z"/>
        <path class="st15" d="M491.8,157.4c0-.3.1-.5.4-.7l11.6-6.7c.2-.1.2-.1.2-.3h0c0-.3,0-.3-.2-.4l-11.6-6.6c-.3-.1-.4-.3-.4-.6v-3.1c0-.4.3-.6.7-.4l13.5,7.7c.9.5,1.3,1.1,1.3,2.4v2.3c0,1.3-.3,1.8-1.3,2.3l-13.5,7.8c-.4.2-.7,0-.7-.4v-3.3h0Z"/>
        <path class="st15" d="M491.8,123c0-4.9,1.5-6.7,5.7-6.7h4.1c4.2,0,5.7,1.8,5.7,6.7v8c0,4.9-1.5,6.7-5.7,6.7h-4.1c-4.2,0-5.7-1.8-5.7-6.7v-8ZM500.9,133.6c2.4,0,3-.6,3-3.1v-7.2c0-2.5-.6-3.1-3-3.1h-2.7c-2.3,0-2.9.6-2.9,3.1v7.2c0,2.4.6,3.1,2.9,3.1h2.7Z"/>
        <path class="st8" d="M487.6,92.6c0-.4.2-.6.6-.6h2.8c.4,0,.6.2.6.6v12.5c0,2.9.9,3.7,3.8,3.7h4c3,0,3.8-.8,3.8-3.7v-12.5c0-.4.2-.6.6-.6h2.8c.4,0,.6.2.6.6v12.7c0,5.7-2,7.9-7.4,7.9h-4.8c-5.4,0-7.4-2.2-7.4-7.9v-12.7h0Z"/>
        <path class="st8" d="M486.1,85.6c0-.4.2-.6.6-.6h19.8c.4,0,.6.2.6.6v2.8c0,.4-.2.6-.6.6h-19.8c-.4,0-.6-.2-.6-.6v-2.8Z"/>
        <path class="st8" d="M491.8,67c0-4.9,1.5-6.7,5.7-6.7h4.1c4.2,0,5.7,1.8,5.7,6.7v8c0,4.9-1.5,6.7-5.7,6.7h-4.1c-4.2,0-5.7-1.8-5.7-6.7v-8ZM500.9,77.7c2.4,0,3-.6,3-3.1v-7.2c0-2.5-.6-3.1-3-3.1h-2.7c-2.3,0-2.9.6-2.9,3.1v7.2c0,2.4.6,3.1,2.9,3.1h2.7Z"/>
        <path class="st8" d="M491.8,53.7c0-.4.2-.6.6-.6h8.2c2.5,0,3.1-.6,3.1-2.9v-7.2c0-2.4-.7-3.1-3.1-3.1h-8.2c-.4,0-.6-.2-.6-.6v-2.8c0-.4.2-.6.6-.6h9.1c4.1,0,5.7,1.7,5.7,6.7v7.8c0,5-1.5,6.7-5.7,6.7h-9.1c-.4,0-.6-.2-.6-.6v-2.8h0Z"/>
        <path class="st8" d="M491.8,15.4h-5c-.4,0-.6-.2-.6-.6v-2.8c0-.4.2-.6.6-.6h14.8c4.1,0,5.7,1.7,5.7,6.7v7.9c0,5-1.5,6.7-5.7,6.7h-4.1c-4.1,0-5.7-1.7-5.7-6.7v-10.6h0ZM500.7,15.4h-5.5v10.2c0,2.4.6,3.1,3,3.1h2.5c2.4,0,3-.6,3-3.1v-7.1c0-2.4-.6-3.1-3-3.1Z"/>
      </g>
    </g>
  </g>
  <g>
    <g>
      <polygon class="st32" points="122.3 447.8 122.3 477.9 412.5 477.9 411.9 447.8 122.3 447.8"/>
      <polygon class="st7" points="474.8 414.7 412.1 478 411.5 447.7 474.3 384.7 474.8 414.7"/>
      <polygon class="st30" points="185.6 383.9 474.1 384.7 411.7 447.8 122.3 447.8 185.6 383.9"/>
    </g>
    <g>
      <polygon class="st29" points="474.8 364 412.1 427.3 411.5 396.9 474.3 333.9 474.8 364"/>
      <polygon class="st6" points="185.6 333.2 474.1 334 411.7 397.1 122.3 397.1 185.6 333.2"/>
      <polygon class="st22" points="122.3 397.1 122.3 427.2 412.5 427.2 411.9 397.1 122.3 397.1"/>
    </g>
    <g>
      <polygon class="st44" points="474.8 313.3 412.1 376.6 411.5 346.2 474.3 283.2 474.8 313.3"/>
      <polygon class="st39" points="185.6 282.5 474.1 283.3 411.7 346.4 122.3 346.4 185.6 282.5"/>
      <polygon class="st31" points="122.3 346.4 122.3 376.4 412.5 376.4 411.9 346.4 122.3 346.4"/>
    </g>
    <g>
      <polygon class="st41" points="474.8 262.5 412.1 325.8 411.5 295.5 474.3 232.5 474.8 262.5"/>
      <polygon class="st4" points="185.6 231.8 474.1 232.6 411.7 295.7 122.3 295.7 185.6 231.8"/>
      <polygon class="st33" points="122.3 295.6 122.3 325.7 412.5 325.7 411.9 295.6 122.3 295.6"/>
    </g>
  </g>
  <g>
    <g>
      <polygon class="st5" points="474.8 190 412.1 253.3 411.5 222.9 474.3 159.9 474.8 190"/>
      <polygon class="st19" points="185.6 159.2 474.1 160 411.7 223.1 122.3 223.1 185.6 159.2"/>
      <polygon class="st0" points="122.3 223.1 122.3 253.2 412.5 253.2 411.9 223.1 122.3 223.1"/>
    </g>
    <g>
      <polygon class="st20" points="474.8 139.3 412.1 202.6 411.5 172.2 474.3 109.2 474.8 139.3"/>
      <polygon class="st40" points="185.6 108.5 474.1 109.3 411.7 172.4 122.3 172.4 185.6 108.5"/>
      <polygon class="st37" points="122.3 172.4 122.3 202.5 412.5 202.5 411.9 172.4 122.3 172.4"/>
    </g>
    <g>
      <polygon class="st35" points="474.8 88.5 412.1 151.8 411.5 121.5 474.3 58.5 474.8 88.5"/>
      <polygon class="st17" points="185.6 57.8 474.1 58.6 411.7 121.7 122.3 121.7 185.6 57.8"/>
      <polygon class="st11" points="122.3 121.7 122.3 151.7 412.5 151.7 411.9 121.7 122.3 121.7"/>
    </g>
  </g>
  <g>
    <polygon class="st42" points="474.8 41.1 412.1 104.4 411.5 74.1 474.3 11.1 474.8 41.1"/>
    <polygon class="st34" points="185.6 10.4 474.1 11.1 411.7 74.3 122.3 74.3 185.6 10.4"/>
    <polygon class="st23" points="122.3 74.2 122.3 104.3 412.5 104.3 411.9 74.2 122.3 74.2"/>
  </g>
  <g>
    <g>
      <polygon class="st25" points="122.3 447.8 122.3 477.9 412.5 477.9 411.9 447.8 122.3 447.8"/>
      <polygon class="st18" points="474.8 414.7 412.1 478 411.5 447.7 474.3 384.7 474.8 414.7"/>
      <polygon class="st28" points="185.6 383.9 474.1 384.7 411.7 447.8 122.3 447.8 185.6 383.9"/>
    </g>
    <g>
      <polygon class="st36" points="474.8 364 412.1 427.3 411.5 396.9 474.3 333.9 474.8 364"/>
      <polygon class="st1" points="185.6 333.2 474.1 334 411.7 397.1 122.3 397.1 185.6 333.2"/>
      <polygon class="st33" points="122.3 397.1 122.3 427.2 412.5 427.2 411.9 397.1 122.3 397.1"/>
    </g>
    <g>
      <polygon class="st2" points="474.8 313.3 412.1 376.6 411.5 346.2 474.3 283.2 474.8 313.3"/>
      <polygon class="st26" points="185.6 282.5 474.1 283.3 411.7 346.4 122.3 346.4 185.6 282.5"/>
      <polygon class="st28" points="122.3 346.4 122.3 376.4 412.5 376.4 411.9 346.4 122.3 346.4"/>
    </g>
    <g>
      <polygon class="st41" points="474.8 262.5 412.1 325.8 411.5 295.5 474.3 232.5 474.8 262.5"/>
      <polygon class="st4" points="185.6 231.8 474.1 232.6 411.7 295.7 122.3 295.7 185.6 231.8"/>
      <polygon class="st33" points="122.3 295.6 122.3 325.7 412.5 325.7 411.9 295.6 122.3 295.6"/>
    </g>
  </g>
  <g>
    <g>
      <polygon class="st12" points="474.8 190 412.1 253.3 411.5 222.9 474.3 159.9 474.8 190"/>
      <polygon class="st14" points="185.6 159.2 474.1 160 411.7 223.1 122.3 223.1 185.6 159.2"/>
      <polygon class="st9" points="122.3 223.1 122.3 253.2 412.5 253.2 411.9 223.1 122.3 223.1"/>
    </g>
    <g>
      <polygon class="st36" points="474.8 139.3 412.1 202.6 411.5 172.2 474.3 109.2 474.8 139.3"/>
      <polygon class="st26" points="185.6 108.5 474.1 109.3 411.7 172.4 122.3 172.4 185.6 108.5"/>
      <polygon class="st2" points="122.3 172.4 122.3 202.5 412.5 202.5 411.9 172.4 122.3 172.4"/>
    </g>
    <g>
      <polygon class="st36" points="474.8 88.5 412.1 151.8 411.5 121.5 474.3 58.5 474.8 88.5"/>
      <polygon class="st1" points="185.6 57.8 474.1 58.6 411.7 121.7 122.3 121.7 185.6 57.8"/>
      <polygon class="st33" points="122.3 121.7 122.3 151.7 412.5 151.7 411.9 121.7 122.3 121.7"/>
    </g>
  </g>
  <g>
    <polygon class="st18" points="474.8 41.1 412.1 104.4 411.5 74.1 474.3 11.1 474.8 41.1"/>
    <polygon class="st28" points="185.6 10.4 474.1 11.1 411.7 74.3 122.3 74.3 185.6 10.4"/>
    <polygon class="st25" points="122.3 74.2 122.3 104.3 412.5 104.3 411.9 74.2 122.3 74.2"/>
  </g>
  <g id="text">
    <g>
      <path class="st43" d="M204.8,458.7h4.3l5.5,6.8v-6.8h3.7v10h-4.3l-5.5-6.8v6.8h-3.7v-10h0Z"/>
      <path class="st43" d="M233.2,464.9v.7h-8.4c0,.6.4,1,.9,1.3s1.3.4,2.2.4,1.5,0,2.3-.2,1.6-.4,2.4-.7v1.8c-.9.2-1.7.4-2.6.5s-1.7.2-2.6.2c-2.1,0-3.6-.3-4.8-1s-1.7-1.6-1.7-2.9.6-2.2,1.7-2.9c1.1-.7,2.6-1.1,4.6-1.1s3.2.4,4.3,1.1,1.6,1.7,1.6,2.8h0ZM229.5,464.1c0-.4-.2-.8-.6-1.1-.4-.3-.9-.4-1.6-.4s-1.3.1-1.7.4-.7.6-.8,1.1h4.7Z"/>
      <path class="st43" d="M239.9,459v2.1h3.7v1.7h-3.7v3.2c0,.3.1.6.3.7.2.1.6.2,1.3.2h1.9v1.7h-3.1c-1.4,0-2.4-.2-3-.6-.6-.4-.9-1.1-.9-2v-3.2h-1.8v-1.7h1.8v-2.1h3.6,0Z"/>
      <path class="st43" d="M244.8,461.2h3.5l1.9,5.2,1.9-5.2h3l1.9,5.1,1.9-5.1h3.5l-3,7.5h-3.9l-1.9-5.1-1.9,5.1h-4l-3-7.5h0Z"/>
      <path class="st43" d="M270.3,461c1.9,0,3.5.3,4.6,1.1,1.1.7,1.6,1.7,1.6,2.9s-.6,2.2-1.6,2.9-2.6,1.1-4.6,1.1-3.5-.3-4.6-1.1c-1.1-.7-1.6-1.7-1.6-2.9s.6-2.2,1.6-2.9,2.6-1.1,4.6-1.1ZM270.3,462.7c-.8,0-1.4.2-1.8.6s-.6.9-.6,1.6.2,1.3.6,1.6c.4.4,1,.6,1.8.6s1.4-.2,1.8-.6.6-.9.6-1.6-.2-1.3-.6-1.6-1-.6-1.8-.6Z"/>
      <path class="st43" d="M287.5,463.2c-.3,0-.6-.2-.9-.2s-.6,0-.9,0c-.9,0-1.6.2-2.1.6s-.8.9-.8,1.7v3.5h-3.6v-7.5h3.6v1.2c.5-.5,1-.9,1.6-1.1.6-.2,1.3-.3,2.2-.3s.3,0,.4,0,.3,0,.6,0v2.2h0Z"/>
      <path class="st43" d="M289.3,458.2h3.6v5.7l4.2-2.8h4.2l-5.5,3.5,6,4.1h-4.4l-4.4-3.1v3.1h-3.6v-10.4h0Z"/>
      <path class="st43" d="M303,458.2h3.6v1.9h-3.6v-1.9ZM303,461.2h3.6v7.5h-3.6v-7.5Z"/>
      <path class="st43" d="M321.5,464.1v4.6h-3.6v-3.5c0-.6,0-1.1,0-1.3s-.1-.4-.2-.5c-.1-.2-.3-.3-.6-.4s-.5-.1-.8-.1c-.8,0-1.3.2-1.8.6-.4.4-.6.9-.6,1.6v3.7h-3.6v-7.5h3.6v1.1c.6-.4,1.1-.8,1.7-1s1.3-.3,2-.3c1.3,0,2.3.3,3,.8s1,1.3,1,2.3h0Z"/>
      <path class="st43" d="M332.5,467.4c-.5.4-1.1.8-1.6,1-.6.2-1.3.3-2.1.3-1.4,0-2.5-.4-3.4-1.1s-1.4-1.6-1.4-2.8.4-2,1.4-2.8c.9-.7,2-1.1,3.4-1.1s1.5.1,2.1.3,1.1.5,1.6,1v-1.1h3.6v6.7c0,1.2-.6,2.1-1.7,2.8-1.1.6-2.8.9-5,.9s-1.4,0-2-.1c-.7,0-1.3-.2-2-.3v-1.9c.6.3,1.3.4,1.9.5s1.2.2,1.8.2c1.2,0,2.1-.2,2.6-.5.6-.3.8-.9.8-1.6v-.5h0ZM330.1,462.7c-.8,0-1.3.2-1.8.6s-.6.9-.6,1.6.2,1.2.6,1.6c.4.4,1,.5,1.8.5s1.3-.2,1.8-.6.6-.9.6-1.6-.2-1.2-.6-1.6c-.4-.4-1-.6-1.8-.6h0Z"/>
    </g>
    <g>
      <path class="st43" d="M215.2,408.5v2.1c-.8-.3-1.6-.4-2.4-.6s-1.5-.2-2.2-.2-1.6,0-2.1.3c-.4.2-.7.4-.7.8s.1.5.4.6.8.3,1.6.4l1.6.2c1.7.2,2.9.6,3.6,1,.7.4,1.1,1.1,1.1,1.9s-.5,1.9-1.5,2.4-2.5.8-4.5.8-1.9,0-2.9-.2c-1-.1-1.9-.3-2.9-.5v-2.2c1,.3,1.9.6,2.8.8.9.2,1.8.3,2.6.3s1.5,0,1.9-.3.7-.4.7-.8-.1-.6-.5-.7-.9-.3-1.8-.4l-1.5-.2c-1.5-.2-2.6-.6-3.3-1s-1.1-1.1-1.1-1.9.5-1.8,1.4-2.3c1-.5,2.4-.8,4.2-.8s1.7,0,2.6.1c.9,0,1.8.2,2.7.4h0Z"/>
      <path class="st43" d="M223.4,408.5v2.1h3.7v1.7h-3.7v3.2c0,.3.1.6.3.7.2.1.6.2,1.3.2h1.9v1.7h-3.1c-1.4,0-2.4-.2-3-.6-.6-.4-.9-1.1-.9-2v-3.2h-1.8v-1.7h1.8v-2.1h3.6,0Z"/>
      <path class="st43" d="M234.7,410.5c1.9,0,3.5.3,4.6,1.1,1.1.7,1.6,1.7,1.6,2.9s-.6,2.2-1.6,2.9-2.6,1.1-4.6,1.1-3.5-.3-4.6-1.1c-1.1-.7-1.6-1.7-1.6-2.9s.6-2.2,1.6-2.9,2.6-1.1,4.6-1.1ZM234.7,412.2c-.8,0-1.4.2-1.8.6s-.6.9-.6,1.6.2,1.3.6,1.6c.4.4,1,.6,1.8.6s1.4-.2,1.8-.6.6-.9.6-1.6-.2-1.3-.6-1.6-1-.6-1.8-.6Z"/>
      <path class="st43" d="M252,412.7c-.3,0-.6-.2-.9-.2s-.6,0-.9,0c-.9,0-1.6.2-2.1.6s-.8.9-.8,1.7v3.5h-3.6v-7.5h3.6v1.2c.5-.5,1-.9,1.6-1.1.6-.2,1.3-.3,2.2-.3s.3,0,.4,0,.3,0,.6,0v2.2h0Z"/>
      <path class="st43" d="M264.4,413.9v4.3h-3.6v-1.1c-.5.4-1,.8-1.6,1-.6.2-1.3.3-2.2.3s-2.1-.2-2.9-.7-1.1-1-1.1-1.8.4-1.5,1.4-1.9c.9-.4,2.3-.6,4.3-.6h2.1v-.2c0-.4-.2-.7-.7-.8s-1.1-.3-2.1-.3-1.5,0-2.2.2-1.3.3-1.9.5v-1.8c.8-.1,1.6-.2,2.3-.3s1.6,0,2.3,0c2,0,3.5.3,4.4.8.9.5,1.4,1.4,1.4,2.6h0ZM258.8,414.8c-.8,0-1.3,0-1.7.3s-.6.4-.6.8.1.5.5.7c.3.2.7.3,1.3.3s1.3-.2,1.7-.5.7-.7.7-1.2v-.3h-1.9Z"/>
      <path class="st43" d="M275.4,416.9c-.5.4-1.1.8-1.6,1-.6.2-1.3.3-2.1.3-1.4,0-2.5-.4-3.4-1.1s-1.4-1.6-1.4-2.8.4-2,1.4-2.8c.9-.7,2-1.1,3.4-1.1s1.5.1,2.1.3,1.1.5,1.6,1v-1.1h3.6v6.7c0,1.2-.6,2.1-1.7,2.8-1.1.6-2.8.9-5,.9s-1.4,0-2-.1c-.7,0-1.3-.2-2-.3v-1.9c.6.3,1.3.4,1.9.5s1.2.2,1.8.2c1.2,0,2.1-.2,2.6-.5.6-.3.8-.9.8-1.6v-.5h0ZM273,412.2c-.8,0-1.3.2-1.8.6s-.6.9-.6,1.6.2,1.2.6,1.6,1,.5,1.8.5,1.3-.2,1.8-.6.6-.9.6-1.6-.2-1.2-.6-1.6c-.4-.4-1-.6-1.8-.6h0Z"/>
      <path class="st43" d="M293.8,414.4v.7h-8.4c0,.6.4,1,.9,1.3s1.3.4,2.2.4,1.5,0,2.3-.2,1.6-.4,2.4-.7v1.8c-.9.2-1.7.4-2.6.5s-1.7.2-2.6.2c-2.1,0-3.6-.3-4.8-1s-1.7-1.6-1.7-2.9.6-2.2,1.7-2.9c1.1-.7,2.6-1.1,4.6-1.1s3.2.4,4.3,1.1,1.6,1.7,1.6,2.8h0ZM290.1,413.6c0-.4-.2-.8-.6-1.1-.4-.3-.9-.4-1.6-.4s-1.3.1-1.7.4-.7.6-.8,1.1h4.7Z"/>
    </g>
    <g>
      <path class="st43" d="M215.2,358v2.1c-.8-.3-1.6-.4-2.4-.6s-1.5-.2-2.2-.2-1.6,0-2.1.3c-.4.2-.7.4-.7.8s.1.5.4.6.8.3,1.6.4l1.6.2c1.7.2,2.9.6,3.6,1,.7.4,1.1,1.1,1.1,1.9s-.5,1.9-1.5,2.4-2.5.8-4.5.8-1.9,0-2.9-.2c-1-.1-1.9-.3-2.9-.5v-2.2c1,.3,1.9.6,2.8.8.9.2,1.8.3,2.6.3s1.5,0,1.9-.3.7-.4.7-.8-.1-.6-.5-.7-.9-.3-1.8-.4l-1.5-.2c-1.5-.2-2.6-.6-3.3-1s-1.1-1.1-1.1-1.9.5-1.8,1.4-2.3c1-.5,2.4-.8,4.2-.8s1.7,0,2.6.1c.9,0,1.8.2,2.7.4h0Z"/>
      <path class="st43" d="M230.8,363.9v.7h-8.4c0,.6.4,1,.9,1.3s1.3.4,2.2.4,1.5,0,2.3-.2,1.6-.4,2.4-.7v1.8c-.9.2-1.7.4-2.6.5s-1.7.2-2.6.2c-2.1,0-3.6-.3-4.8-1s-1.7-1.6-1.7-2.9.6-2.2,1.7-2.9c1.1-.7,2.6-1.1,4.6-1.1s3.2.4,4.3,1.1,1.6,1.7,1.6,2.8h0ZM227.1,363.1c0-.4-.2-.8-.6-1.1-.4-.3-.9-.4-1.6-.4s-1.3.1-1.7.4-.7.6-.8,1.1h4.7Z"/>
      <path class="st43" d="M241.9,362.2c-.3,0-.6-.2-.9-.2s-.6,0-.9,0c-.9,0-1.6.2-2.1.6s-.8.9-.8,1.7v3.5h-3.6v-7.5h3.6v1.2c.5-.5,1-.9,1.6-1.1.6-.2,1.3-.3,2.2-.3s.3,0,.4,0,.3,0,.6,0v2.2h0Z"/>
      <path class="st43" d="M242.3,360.2h3.6l2.8,5.2,2.8-5.2h3.6l-4.5,7.5h-4l-4.5-7.5h0Z"/>
      <path class="st43" d="M268.5,363.9v.7h-8.4c0,.6.4,1,.9,1.3s1.3.4,2.2.4,1.5,0,2.3-.2,1.6-.4,2.4-.7v1.8c-.9.2-1.7.4-2.6.5s-1.7.2-2.6.2c-2.1,0-3.6-.3-4.8-1s-1.7-1.6-1.7-2.9.6-2.2,1.7-2.9c1.1-.7,2.6-1.1,4.6-1.1s3.2.4,4.3,1.1,1.6,1.7,1.6,2.8h0ZM264.8,363.1c0-.4-.2-.8-.6-1.1-.4-.3-.9-.4-1.6-.4s-1.3.1-1.7.4-.7.6-.8,1.1h4.7Z"/>
      <path class="st43" d="M279.6,362.2c-.3,0-.6-.2-.9-.2s-.6,0-.9,0c-.9,0-1.6.2-2.1.6s-.8.9-.8,1.7v3.5h-3.6v-7.5h3.6v1.2c.5-.5,1-.9,1.6-1.1.6-.2,1.3-.3,2.2-.3s.3,0,.4,0,.3,0,.6,0v2.2h0Z"/>
      <path class="st43" d="M290.2,360.4v1.8c-.8-.2-1.5-.4-2.2-.5-.7-.1-1.4-.2-2-.2s-1.2,0-1.5.2-.5.3-.5.5.1.3.4.4c.3.1.7.2,1.4.2h.6c1.9.2,3.1.5,3.7.8.6.4,1,.9,1,1.7s-.4,1.4-1.3,1.8c-.9.4-2.2.6-4,.6s-1.5,0-2.3-.1-1.6-.2-2.4-.4v-1.8c.7.2,1.4.4,2.2.5s1.5.2,2.3.2,1.2,0,1.6-.2.5-.3.5-.6-.1-.4-.4-.5-.8-.2-1.5-.3h-.6c-1.6-.2-2.7-.4-3.4-.8s-1-.9-1-1.6.4-1.4,1.2-1.8,2.1-.6,3.8-.6,1.4,0,2.1.1c.7,0,1.5.2,2.4.3h0Z"/>
    </g>
    <g>
      <path class="st43" d="M203.1,307.2h3.9l4,7.4,4-7.4h3.9l-5.6,10h-4.6l-5.6-10h0Z"/>
      <path class="st43" d="M220.3,306.8h3.6v1.9h-3.6v-1.9ZM220.3,309.7h3.6v7.5h-3.6v-7.5Z"/>
      <path class="st43" d="M235.8,311.7c-.3,0-.6-.2-.9-.2s-.6,0-.9,0c-.9,0-1.6.2-2.1.6s-.8.9-.8,1.7v3.5h-3.6v-7.5h3.6v1.2c.5-.5,1-.9,1.6-1.1.6-.2,1.3-.3,2.2-.3s.3,0,.4,0,.3,0,.6,0v2.2h0Z"/>
      <path class="st43" d="M241.5,307.5v2.1h3.7v1.7h-3.7v3.2c0,.3.1.6.3.7.2.1.6.2,1.3.2h1.9v1.7h-3.1c-1.4,0-2.4-.2-3-.6-.6-.4-.9-1.1-.9-2v-3.2h-1.8v-1.7h1.8v-2.1h3.6,0Z"/>
      <path class="st43" d="M247.3,314.2v-4.6h3.6v3.5c0,.6,0,1,0,1.3,0,.3.1.5.3.6.1.2.3.3.6.4.3,0,.5.1.8.1.8,0,1.3-.2,1.8-.6.4-.4.6-.9.6-1.6v-3.7h3.6v7.5h-3.6v-1.1c-.6.4-1.1.8-1.7,1s-1.3.3-2,.3c-1.3,0-2.3-.3-3-.8s-1-1.3-1-2.3h0Z"/>
      <path class="st43" d="M272.8,312.9v4.3h-3.6v-1.1c-.5.4-1,.8-1.6,1-.6.2-1.3.3-2.2.3s-2.1-.2-2.9-.7-1.1-1-1.1-1.8.4-1.5,1.4-1.9c.9-.4,2.3-.6,4.3-.6h2.1v-.2c0-.4-.2-.7-.7-.8s-1.1-.3-2.1-.3-1.5,0-2.2.2-1.3.3-1.9.5v-1.8c.8-.1,1.6-.2,2.3-.3s1.6,0,2.3,0c2,0,3.5.3,4.4.8.9.5,1.4,1.4,1.4,2.6h0ZM267.3,313.8c-.8,0-1.3,0-1.7.3s-.6.4-.6.8.1.5.5.7c.3.2.7.3,1.3.3s1.3-.2,1.7-.5.7-.7.7-1.2v-.3h-1.9Z"/>
      <path class="st43" d="M276.1,306.8h3.6v10.4h-3.6v-10.4Z"/>
      <path class="st43" d="M283.2,306.8h3.6v1.9h-3.6v-1.9ZM283.2,309.7h3.6v7.5h-3.6v-7.5Z"/>
      <path class="st43" d="M289.7,309.7h9.9v1.7l-6,4.1h6v1.7h-10.1v-1.7l6-4.1h-5.7v-1.7h0Z"/>
      <path class="st43" d="M312.9,312.9v4.3h-3.6v-1.1c-.5.4-1,.8-1.6,1-.6.2-1.3.3-2.2.3s-2.1-.2-2.9-.7-1.1-1-1.1-1.8.4-1.5,1.4-1.9c.9-.4,2.3-.6,4.3-.6h2.1v-.2c0-.4-.2-.7-.7-.8s-1.1-.3-2.1-.3-1.5,0-2.2.2-1.3.3-1.9.5v-1.8c.8-.1,1.6-.2,2.3-.3s1.6,0,2.3,0c2,0,3.5.3,4.4.8.9.5,1.4,1.4,1.4,2.6h0ZM307.4,313.8c-.8,0-1.3,0-1.7.3s-.6.4-.6.8.1.5.5.7c.3.2.7.3,1.3.3s1.3-.2,1.7-.5.7-.7.7-1.2v-.3h-1.9Z"/>
      <path class="st43" d="M320.2,307.5v2.1h3.7v1.7h-3.7v3.2c0,.3.1.6.3.7.2.1.6.2,1.3.2h1.9v1.7h-3.1c-1.4,0-2.4-.2-3-.6-.6-.4-.9-1.1-.9-2v-3.2h-1.8v-1.7h1.8v-2.1h3.6,0Z"/>
      <path class="st43" d="M326.1,306.8h3.6v1.9h-3.6v-1.9ZM326.1,309.7h3.6v7.5h-3.6v-7.5Z"/>
      <path class="st43" d="M338.6,309.5c1.9,0,3.5.3,4.6,1.1,1.1.7,1.6,1.7,1.6,2.9s-.6,2.2-1.6,2.9-2.6,1.1-4.6,1.1-3.5-.3-4.6-1.1c-1.1-.7-1.6-1.7-1.6-2.9s.6-2.2,1.6-2.9,2.6-1.1,4.6-1.1ZM338.6,311.2c-.8,0-1.4.2-1.8.6s-.6.9-.6,1.6.2,1.3.6,1.6c.4.4,1,.6,1.8.6s1.4-.2,1.8-.6.6-.9.6-1.6-.2-1.3-.6-1.6-1-.6-1.8-.6Z"/>
      <path class="st43" d="M358.8,312.6v4.6h-3.6v-3.5c0-.6,0-1.1,0-1.3s-.1-.4-.2-.5c-.1-.2-.3-.3-.6-.4s-.5-.1-.8-.1c-.8,0-1.3.2-1.8.6s-.6.9-.6,1.6v3.7h-3.6v-7.5h3.6v1.1c.6-.4,1.1-.8,1.7-1s1.3-.3,2-.3c1.3,0,2.3.3,3,.8s1,1.3,1,2.3h0Z"/>
    </g>
    <g>
      <path class="st43" d="M211.6,233c2.4,0,4.3.5,5.7,1.4s2.1,2.2,2.1,3.8-.7,2.9-2.1,3.8-3.3,1.4-5.7,1.4-4.3-.5-5.7-1.4-2.1-2.2-2.1-3.8.7-2.9,2.1-3.8,3.3-1.4,5.7-1.4ZM211.6,234.9c-1.2,0-2.1.3-2.8.9-.6.6-1,1.4-1,2.4s.3,1.9,1,2.4,1.6.9,2.8.9,2.1-.3,2.8-.9c.6-.6,1-1.4,1-2.4s-.3-1.9-1-2.4-1.6-.9-2.8-.9Z"/>
      <path class="st43" d="M230.6,237.7c-.3,0-.6-.2-.9-.2s-.6,0-.9,0c-.9,0-1.6.2-2.1.6s-.8,1-.8,1.7v3.5h-3.6v-7.5h3.6v1.2c.5-.5,1-.8,1.6-1.1s1.3-.3,2.2-.3.3,0,.4,0,.3,0,.6,0v2.2h0Z"/>
      <path class="st43" d="M241.5,235.9v1.9c-.5-.2-1-.4-1.5-.5-.5-.1-1-.2-1.5-.2-1,0-1.8.2-2.4.6-.6.4-.8.9-.8,1.6s.3,1.3.8,1.6,1.3.6,2.4.6,1.1,0,1.6-.2c.5-.1,1-.3,1.4-.5v1.9c-.6.1-1.1.3-1.7.3s-1.2.1-1.8.1c-2,0-3.6-.3-4.8-1s-1.7-1.7-1.7-2.9.6-2.2,1.7-2.9c1.1-.7,2.8-1,4.8-1s1.2,0,1.8.1,1.1.2,1.7.3h0Z"/>
      <path class="st43" d="M256,238.6v4.6h-3.6v-3.5c0-.7,0-1.1,0-1.4s-.1-.4-.2-.6c-.1-.2-.3-.3-.6-.4-.3,0-.5-.1-.8-.1-.8,0-1.3.2-1.8.6-.4.4-.6.9-.6,1.6v3.7h-3.6v-10.4h3.6v4c.6-.4,1.1-.8,1.7-1s1.3-.3,2-.3c1.3,0,2.3.3,3,.8s1,1.3,1,2.3h0Z"/>
      <path class="st43" d="M270.6,239.4v.7h-8.4c0,.6.4,1,.9,1.3.5.3,1.3.4,2.2.4s1.5,0,2.3-.2,1.6-.4,2.4-.7v1.8c-.9.2-1.7.4-2.6.5s-1.7.2-2.6.2c-2.1,0-3.6-.3-4.8-1s-1.7-1.7-1.7-2.9.6-2.2,1.7-2.9c1.1-.7,2.6-1.1,4.6-1.1s3.2.4,4.3,1.1,1.6,1.7,1.6,2.8h0ZM266.9,238.6c0-.4-.2-.8-.6-1.1-.4-.3-.9-.4-1.6-.4s-1.3.1-1.7.4-.7.6-.8,1.1h4.7Z"/>
      <path class="st43" d="M282.2,235.9v1.8c-.8-.2-1.5-.4-2.2-.5-.7-.1-1.4-.2-2-.2s-1.2,0-1.5.2c-.3.1-.5.3-.5.5s.1.3.4.4c.3.1.7.2,1.4.2h.6c1.9.2,3.1.5,3.7.8.6.4,1,.9,1,1.7s-.4,1.4-1.3,1.8c-.9.4-2.2.6-4,.6s-1.5,0-2.3-.1c-.8,0-1.6-.2-2.4-.4v-1.8c.7.2,1.4.4,2.2.5s1.5.2,2.3.2,1.2,0,1.6-.2.5-.3.5-.6-.1-.4-.4-.5-.8-.2-1.5-.3h-.6c-1.6-.2-2.7-.4-3.4-.8s-1-.9-1-1.6.4-1.4,1.2-1.8,2.1-.6,3.8-.6,1.4,0,2.1.1c.7,0,1.5.2,2.4.3h0Z"/>
      <path class="st43" d="M289.6,233.6v2.1h3.7v1.7h-3.7v3.2c0,.3.1.6.3.7s.6.2,1.3.2h1.9v1.7h-3.1c-1.4,0-2.4-.2-3-.6-.6-.4-.9-1.1-.9-2v-3.2h-1.8v-1.7h1.8v-2.1h3.6,0Z"/>
      <path class="st43" d="M303.9,237.7c-.3,0-.6-.2-.9-.2s-.6,0-.9,0c-.9,0-1.6.2-2.1.6s-.8,1-.8,1.7v3.5h-3.6v-7.5h3.6v1.2c.5-.5,1-.8,1.6-1.1s1.3-.3,2.2-.3.3,0,.4,0,.3,0,.6,0v2.2h0Z"/>
      <path class="st43" d="M316.3,238.9v4.3h-3.6v-1.1c-.5.4-1,.8-1.6,1s-1.3.3-2.2.3-2.1-.2-2.9-.7-1.1-1-1.1-1.8.4-1.5,1.4-1.9c.9-.4,2.3-.6,4.3-.6h2.1v-.2c0-.4-.2-.7-.7-.8s-1.1-.3-2.1-.3-1.5,0-2.2.1-1.3.3-1.9.5v-1.8c.8-.1,1.6-.2,2.3-.3.8,0,1.6,0,2.3,0,2,0,3.5.3,4.4.8.9.5,1.4,1.4,1.4,2.6h0ZM310.8,239.8c-.8,0-1.3,0-1.7.3s-.6.4-.6.8.1.5.5.7c.3.2.7.3,1.3.3s1.3-.2,1.7-.5.7-.7.7-1.2v-.3h-1.9Z"/>
      <path class="st43" d="M323.6,233.6v2.1h3.7v1.7h-3.7v3.2c0,.3.1.6.3.7s.6.2,1.3.2h1.9v1.7h-3.1c-1.4,0-2.4-.2-3-.6s-.9-1.1-.9-2v-3.2h-1.8v-1.7h1.8v-2.1h3.6,0Z"/>
      <path class="st43" d="M334.9,235.5c1.9,0,3.5.3,4.6,1.1,1.1.7,1.6,1.7,1.6,2.9s-.6,2.2-1.6,2.9-2.6,1.1-4.6,1.1-3.5-.3-4.6-1.1c-1.1-.7-1.6-1.7-1.6-2.9s.6-2.2,1.6-2.9,2.6-1.1,4.6-1.1ZM334.9,237.2c-.8,0-1.4.2-1.8.6-.4.4-.6.9-.6,1.6s.2,1.3.6,1.6c.4.4,1,.6,1.8.6s1.4-.2,1.8-.6.6-.9.6-1.6-.2-1.3-.6-1.6-1-.6-1.8-.6Z"/>
      <path class="st43" d="M352.1,237.7c-.3,0-.6-.2-.9-.2s-.6,0-.9,0c-.9,0-1.6.2-2.1.6s-.8,1-.8,1.7v3.5h-3.6v-7.5h3.6v1.2c.5-.5,1-.8,1.6-1.1s1.3-.3,2.2-.3.3,0,.4,0,.3,0,.6,0v2.2h0Z"/>
    </g>
    <g>
      <path class="st43" d="M204.8,182.7h5l3.4,5.3,3.5-5.3h4.9v10h-3.7v-7.3l-3.5,5.4h-2.5l-3.5-5.4v7.3h-3.7v-10h0Z"/>
      <path class="st43" d="M225.2,182.3h3.6v1.9h-3.6v-1.9ZM225.2,185.2h3.6v7.5h-3.6v-7.5Z"/>
      <path class="st43" d="M240,186.3v-4h3.6v10.4h-3.6v-1.1c-.5.4-1.1.8-1.6,1-.6.2-1.3.3-2.1.3-1.4,0-2.5-.4-3.4-1.1s-1.3-1.7-1.3-2.8.4-2.1,1.3-2.8c.9-.7,2-1.1,3.4-1.1s1.5.1,2.1.3c.6.2,1.1.5,1.6,1h0ZM237.6,191.1c.8,0,1.4-.2,1.8-.6s.6-.9.6-1.6-.2-1.3-.6-1.6c-.4-.4-1-.6-1.8-.6s-1.3.2-1.8.6-.6.9-.6,1.6.2,1.3.6,1.6c.4.4,1,.6,1.8.6Z"/>
      <path class="st43" d="M254.7,186.3v-4h3.6v10.4h-3.6v-1.1c-.5.4-1.1.8-1.6,1-.6.2-1.3.3-2.1.3-1.4,0-2.5-.4-3.4-1.1s-1.3-1.7-1.3-2.8.4-2.1,1.3-2.8c.9-.7,2-1.1,3.4-1.1s1.5.1,2.1.3c.6.2,1.1.5,1.6,1h0ZM252.3,191.1c.8,0,1.4-.2,1.8-.6s.6-.9.6-1.6-.2-1.3-.6-1.6c-.4-.4-1-.6-1.8-.6s-1.3.2-1.8.6-.6.9-.6,1.6.2,1.3.6,1.6c.4.4,1,.6,1.8.6Z"/>
      <path class="st43" d="M261.8,182.3h3.6v10.4h-3.6v-10.4Z"/>
      <path class="st43" d="M280.2,188.9v.7h-8.4c0,.6.4,1,.9,1.3.5.3,1.3.4,2.2.4s1.5,0,2.3-.2,1.6-.4,2.4-.7v1.8c-.9.2-1.7.4-2.6.5s-1.7.2-2.6.2c-2.1,0-3.6-.3-4.8-1-1.1-.7-1.7-1.7-1.7-2.9s.6-2.2,1.7-2.9c1.1-.7,2.6-1.1,4.6-1.1s3.2.4,4.3,1.1,1.6,1.7,1.6,2.8h0ZM276.5,188.1c0-.4-.2-.8-.6-1.1-.4-.3-.9-.4-1.6-.4s-1.3.1-1.7.4-.7.6-.8,1.1h4.7Z"/>
      <path class="st43" d="M281.9,185.2h3.5l1.9,5.2,1.9-5.2h3l1.9,5.1,1.9-5.1h3.5l-3,7.5h-3.9l-1.9-5.1-1.9,5.1h-4l-3-7.5h0Z"/>
      <path class="st43" d="M312.6,188.4v4.3h-3.6v-1.1c-.5.4-1,.8-1.6,1s-1.3.3-2.2.3-2.1-.2-2.9-.7-1.1-1-1.1-1.8.4-1.5,1.4-1.9c.9-.4,2.3-.6,4.3-.6h2.1v-.2c0-.4-.2-.7-.7-.8s-1.1-.3-2.1-.3-1.5,0-2.2.1-1.3.3-1.9.5v-1.8c.8-.1,1.6-.2,2.3-.3.8,0,1.6,0,2.3,0,2,0,3.5.3,4.4.8.9.5,1.4,1.4,1.4,2.6h0ZM307.1,189.3c-.8,0-1.3,0-1.7.3s-.6.4-.6.8.1.5.5.7c.3.2.7.3,1.3.3s1.3-.2,1.7-.5.7-.7.7-1.2v-.3h-1.9Z"/>
      <path class="st43" d="M324.4,187.2c-.3,0-.6-.2-.9-.2-.3,0-.6,0-.9,0-.9,0-1.6.2-2.1.6s-.8,1-.8,1.7v3.5h-3.6v-7.5h3.6v1.2c.5-.5,1-.8,1.6-1.1s1.3-.3,2.2-.3.3,0,.4,0,.3,0,.6,0v2.2h0Z"/>
      <path class="st43" d="M337.5,188.9v.7h-8.4c0,.6.4,1,.9,1.3.5.3,1.3.4,2.2.4s1.5,0,2.3-.2,1.6-.4,2.4-.7v1.8c-.9.2-1.7.4-2.6.5s-1.7.2-2.6.2c-2.1,0-3.6-.3-4.8-1-1.1-.7-1.7-1.7-1.7-2.9s.6-2.2,1.7-2.9,2.6-1.1,4.6-1.1,3.2.4,4.3,1.1,1.6,1.7,1.6,2.8h0ZM333.7,188.1c0-.4-.2-.8-.6-1.1-.4-.3-.9-.4-1.6-.4s-1.3.1-1.7.4-.7.6-.8,1.1h4.7Z"/>
    </g>
    <g>
      <path class="st43" d="M208.7,138.4v3.8h-3.9v-10h5.9c2,0,3.5.2,4.4.7s1.4,1.1,1.4,2.1-.3,1.2-.7,1.6-1.2.8-2.2.9c.5,0,1,.3,1.4.6s.8.7,1.3,1.3l2.1,2.8h-4.1l-1.8-2.5c-.4-.5-.8-.8-1.1-1s-.9-.3-1.5-.3h-1.1,0ZM210.3,136.6c.8,0,1.4-.1,1.8-.3.4-.2.5-.5.5-1s-.2-.8-.5-1c-.4-.2-.9-.3-1.8-.3h-1.6v2.6h1.6Z"/>
      <path class="st43" d="M220.4,139.3v-4.6h3.6v3.5c0,.6,0,1,0,1.3,0,.3.1.5.3.6.1.2.3.3.6.4.3,0,.5.1.8.1.8,0,1.3-.2,1.8-.6.4-.4.6-.9.6-1.6v-3.7h3.6v7.5h-3.6v-1.1c-.6.4-1.1.8-1.7,1s-1.3.3-2,.3c-1.3,0-2.3-.3-3-.8s-1-1.3-1-2.3h0Z"/>
      <path class="st43" d="M246.6,137.6v4.6h-3.6v-3.5c0-.6,0-1.1,0-1.3s-.1-.4-.2-.6c-.1-.2-.3-.3-.6-.4-.3,0-.5-.1-.8-.1-.8,0-1.3.2-1.8.6-.4.4-.6.9-.6,1.6v3.7h-3.6v-7.5h3.6v1.1c.6-.4,1.1-.8,1.7-1s1.3-.3,2-.3c1.3,0,2.3.3,3,.8s1,1.3,1,2.3h0Z"/>
      <path class="st43" d="M253.9,132.5v2.1h3.7v1.7h-3.7v3.2c0,.3.1.6.3.7s.6.2,1.3.2h1.9v1.7h-3.1c-1.4,0-2.4-.2-3-.6-.6-.4-.9-1.1-.9-2v-3.2h-1.8v-1.7h1.8v-2.1h3.6,0Z"/>
      <path class="st43" d="M259.8,131.8h3.6v1.9h-3.6v-1.9ZM259.8,134.7h3.6v7.5h-3.6v-7.5Z"/>
      <path class="st43" d="M277.4,135.9c.4-.5,1-.8,1.6-1.1.6-.3,1.3-.4,2.1-.4,1.3,0,2.3.3,3,.8.7.5,1,1.3,1,2.3v4.6h-3.6v-4.4c0-.5-.1-.9-.4-1.2-.2-.3-.6-.4-1.1-.4s-1.2.2-1.6.6c-.4.4-.6.9-.6,1.6v3.7h-3.6v-3.9c0-.8-.1-1.4-.3-1.6-.2-.3-.6-.4-1.2-.4s-1.2.2-1.6.6c-.4.4-.6.9-.6,1.6v3.7h-3.6v-7.5h3.6v1.1c.4-.4.9-.8,1.5-.9s1.2-.3,1.9-.3,1.5.1,2.1.4c.6.3,1.1.6,1.4,1.1h0Z"/>
      <path class="st43" d="M299.7,138.4v.7h-8.4c0,.6.4,1,.9,1.3.5.3,1.3.4,2.2.4s1.5,0,2.3-.2,1.6-.4,2.4-.7v1.8c-.9.2-1.7.4-2.6.5s-1.7.2-2.6.2c-2.1,0-3.6-.3-4.8-1-1.1-.7-1.7-1.7-1.7-2.9s.6-2.2,1.7-2.9c1.1-.7,2.6-1.1,4.6-1.1s3.2.4,4.3,1.1,1.6,1.7,1.6,2.8h0ZM296,137.6c0-.4-.2-.8-.6-1.1-.4-.3-.9-.4-1.6-.4s-1.3.1-1.7.4-.7.6-.8,1.1h4.7Z"/>
    </g>
    <g>
      <path class="st43" d="M218.3,94.3c-1,.3-2,.6-3,.7s-2.1.2-3.2.2c-2.5,0-4.5-.5-6-1.4s-2.2-2.2-2.2-3.8.8-2.9,2.2-3.8,3.5-1.4,6.2-1.4,1.9,0,2.9.2c.9.1,1.8.3,2.6.6v2.1c-.8-.3-1.7-.6-2.5-.7s-1.7-.2-2.5-.2c-1.6,0-2.7.3-3.6.9s-1.3,1.4-1.3,2.4.4,1.9,1.2,2.4c.8.6,1.9.9,3.5.9s.8,0,1.1,0,.7,0,.9-.2v-1.9h-2.4v-1.7h6.1v4.8h0Z"/>
      <path class="st43" d="M221.7,85h3.9v6c0,.8.2,1.4.6,1.8s1.1.5,2,.5,1.6-.2,2-.5.6-.9.6-1.8v-6h3.9v6c0,1.4-.5,2.5-1.6,3.2-1.1.7-2.7,1-4.9,1s-3.8-.3-4.9-1c-1.1-.7-1.6-1.8-1.6-3.2v-6h0Z"/>
      <path class="st43" d="M238.5,85h3.9v10h-3.9v-10Z"/>
      <path class="st43" d="M246.4,92.4h3.6v2.6h-3.6v-2.6Z"/>
      <path class="st43" d="M273.2,94.4c-.7.3-1.5.4-2.2.6-.8.1-1.6.2-2.4.2-2.5,0-4.5-.5-6-1.4s-2.2-2.2-2.2-3.8.7-2.9,2.2-3.8c1.5-.9,3.5-1.4,6-1.4s1.6,0,2.4.2,1.5.3,2.2.6v2.1c-.7-.3-1.4-.6-2.1-.7s-1.4-.2-2.2-.2c-1.4,0-2.5.3-3.3.9-.8.6-1.2,1.4-1.2,2.4s.4,1.8,1.2,2.4c.8.6,1.9.9,3.3.9s1.5,0,2.2-.2,1.4-.4,2.1-.7v2.1h0Z"/>
      <path class="st43" d="M276.4,85h3.9v8h6.8v1.9h-10.7v-10Z"/>
      <path class="st43" d="M289.6,85h3.9v10h-3.9v-10Z"/>
      <path class="st43" d="M297.5,92.4h3.6v2.6h-3.6v-2.6Z"/>
      <path class="st43" d="M321.4,93.2h-6.1l-1,1.8h-3.9l5.6-10h4.6l5.6,10h-3.9l-.9-1.8h0ZM316.3,91.3h4.1l-2.1-4-2.1,4h0Z"/>
      <path class="st43" d="M328.3,85h6.5c1.9,0,3.4.3,4.4.8s1.5,1.4,1.5,2.4-.5,1.9-1.5,2.4-2.5.8-4.4.8h-2.6v3.5h-3.9v-10h0ZM332.2,86.9v2.8h2.1c.8,0,1.3-.1,1.8-.4s.6-.6.6-1-.2-.8-.6-1-1-.4-1.8-.4h-2.1Z"/>
      <path class="st43" d="M343.4,85h3.9v10h-3.9v-10Z"/>
    </g>
    <g>
      <path class="st43" d="M234.3,40.5h3.1l-10.8,9.5h-3.1l10.8-9.5h0Z"/>
      <path class="st43" d="M243.3,45.7l-4.9,4.3h-2.9l.8-.7,3-2.6c.7-.6,1.2-1,1.4-1.3.2-.2.4-.4.4-.5s0-.3,0-.3-.3-.1-.5-.1c-.6,0-1.3.2-2,.6s-1.5.9-2.2,1.5l-4,3.5h-2.8l8.1-7.1h2.8l-1.2,1.1c.9-.4,1.7-.7,2.4-.9s1.4-.3,1.9-.3c1,0,1.5.3,1.5.8s-.6,1.2-1.7,2.2h0Z"/>
      <path class="st43" d="M254.5,40.9l-2.3,2h2.9l-1.9,1.6h-2.9l-3.5,3c-.4.3-.6.6-.5.7,0,.1.3.2.8.2h1.5l-1.9,1.6h-2.4c-1.1,0-1.7-.2-1.8-.6,0-.4.4-1,1.5-1.9l3.5-3h-1.4l1.9-1.6h1.4l2.3-2h2.9Z"/>
      <path class="st43" d="M261.7,46.4l-.8.6h-6.7c-.6.5-.8.9-.6,1.2.1.3.5.4,1.3.4s1.3,0,2.1-.2c.8-.1,1.7-.4,2.7-.6l-2,1.8c-.9.2-1.8.4-2.5.5s-1.5.2-2.2.2c-1.6,0-2.5-.3-2.6-1-.1-.7.4-1.6,1.8-2.8,1.3-1.2,2.8-2.1,4.4-2.7,1.6-.7,3.2-1,4.8-1s2.1.3,2.2,1c0,.7-.5,1.6-1.8,2.7h0ZM259.7,45.7c.5-.4.7-.8.7-1.1s-.3-.4-.8-.4-1.1.1-1.8.4-1.3.6-1.9,1.1h3.7,0Z"/>
      <path class="st43" d="M272.3,44.8c-.1,0-.3-.2-.5-.2-.2,0-.4,0-.7,0-.7,0-1.5.2-2.3.6s-1.6.9-2.4,1.6l-3.7,3.3h-2.8l8.1-7.1h2.8l-1.3,1.2c.9-.5,1.7-.8,2.4-1,.7-.2,1.4-.3,2.1-.3s.2,0,.3,0,.3,0,.4,0l-2.3,2.1h0Z"/>
      <path class="st43" d="M285,40.1l-1.7,1.5h-1.6c-.4,0-.8,0-1,.2s-.6.3-.9.6l-.6.5h2.4l-1.9,1.6h-2.4l-6.3,5.5h-2.8l6.3-5.5h-1.4l1.9-1.6h1.4l.6-.5c.9-.8,1.8-1.4,2.8-1.7s2-.6,3.1-.6h2.2,0Z"/>
      <path class="st43" d="M287.9,45.9l-4.6,4.1h-2.9l1.2-1.1c-.9.4-1.7.8-2.4.9s-1.4.3-2.1.3-1.4-.2-1.5-.6c0-.4.3-1,1.1-1.7.9-.8,2-1.4,3.2-1.8,1.2-.4,2.5-.6,4-.6h1.7l.2-.2c.4-.4.5-.6.4-.8s-.6-.3-1.4-.3-1.2,0-1.9.1c-.6.1-1.3.3-2,.4l2-1.7c.8-.1,1.5-.2,2.1-.3.7,0,1.3,0,1.9,0,1.6,0,2.5.3,2.6.8s-.4,1.3-1.8,2.5h0ZM282.5,46.8c-.6,0-1.1,0-1.6.3s-.9.4-1.3.7c-.3.3-.5.5-.4.7,0,.2.3.3.7.3s1.2-.2,1.9-.5c.7-.3,1.3-.7,1.9-1.1l.3-.3h-1.5Z"/>
      <path class="st43" d="M300.9,43.1l-2.1,1.9c-.1-.2-.4-.4-.6-.5s-.6-.2-1-.2c-.8,0-1.6.2-2.5.6-.9.4-1.7.9-2.4,1.6s-1.1,1.2-1.1,1.6.4.6,1.2.6.9,0,1.4-.2,1.1-.3,1.6-.5l-2.1,1.9c-.6.1-1.2.2-1.7.3-.5,0-1,.1-1.5.1-1.6,0-2.5-.3-2.6-1s.4-1.6,1.8-2.8c1.3-1.2,2.8-2.1,4.5-2.8,1.7-.7,3.3-1,4.9-1s.9,0,1.3.1c.4,0,.7.2,1,.3h0Z"/>
      <path class="st43" d="M308.5,46.4l-.8.6h-6.7c-.6.5-.8.9-.6,1.2.1.3.5.4,1.3.4s1.3,0,2.1-.2c.8-.1,1.7-.4,2.7-.6l-2,1.8c-.9.2-1.8.4-2.5.5s-1.5.2-2.2.2c-1.6,0-2.5-.3-2.6-1-.1-.7.4-1.6,1.8-2.8,1.3-1.2,2.8-2.1,4.4-2.7,1.6-.7,3.2-1,4.8-1s2.1.3,2.2,1c0,.7-.5,1.6-1.8,2.7h0ZM306.4,45.7c.5-.4.7-.8.7-1.1s-.3-.4-.8-.4-1.1.1-1.8.4-1.3.6-1.9,1.1h3.7,0Z"/>
      <path class="st43" d="M321.4,43.1l-2,1.7c-.4-.2-.8-.4-1.3-.4-.4-.1-.9-.2-1.4-.2s-1,0-1.4.2-.7.3-1,.5c-.2.2-.3.3-.2.4,0,.1.4.2.8.2h.4c1.3.2,2,.4,2.1.8.1.3-.2.9-1.1,1.6-.9.8-1.9,1.3-3,1.7s-2.4.6-3.8.6-1.2,0-1.7-.1c-.6,0-1.1-.2-1.6-.3l2-1.7c.3.2.7.4,1.2.5.5.1,1,.2,1.6.2s1,0,1.5-.2.8-.3,1.1-.6c.2-.2.3-.4.2-.4s-.4-.2-.9-.2h-.4c-1.1-.2-1.7-.4-1.9-.8-.1-.3.2-.9,1-1.6.9-.8,1.8-1.3,2.9-1.7s2.3-.6,3.6-.6,1,0,1.5,0,1,.2,1.5.3h0Z"/>
    </g>
  </g>
  <rect class="st15" x="153.2" y="309.8" width="22.5" height="130.6"/>
  <polygon class="st15" points="164.1 457.3 184.4 440.5 144.6 440.5 164.1 457.3"/>
  <g>
    <path d="M155.4,419c0-.2,0-.3.3-.3h20.3c.2,0,.3.1.3.3v1.4c0,.3,0,.3-.3.3h-20.3c-.3,0-.3,0-.3-.3v-1.4Z"/>
    <path d="M160.6,401.5c0-5.2,1.6-6.9,5.8-6.9h7.7c1.9,0,2.3.4,2.3,2.1v13.8c0,3.5-1.2,4.5-4.1,4.5h-1.1c-2.4,0-3.8-1.1-3.8-4.5v-14h-.9c-3,0-4.2,1.2-4.2,5.1v12.6c0,.2,0,.3-.3.3h-1.1c-.2,0-.3,0-.3-.3v-12.8h0ZM173.4,396.5h-4.6v13.6c0,2.3.9,3,2.5,3h.8c1.9,0,2.7-.7,2.7-3v-12.3c0-1-.3-1.3-1.4-1.3h0Z"/>
    <path d="M160.6,378.1c0-5.2,1.6-6.9,5.8-6.9h7.7c1.9,0,2.3.4,2.3,2.1v13.8c0,3.5-1.2,4.5-4.1,4.5h-1.1c-2.4,0-3.8-1.1-3.8-4.5v-14h-.9c-3,0-4.2,1.2-4.2,5.1v12.6c0,.2,0,.3-.3.3h-1.1c-.2,0-.3,0-.3-.3v-12.8h0ZM173.4,373.1h-4.6v13.6c0,2.3.9,3,2.5,3h.8c1.9,0,2.7-.7,2.7-3v-12.3c0-1-.3-1.3-1.4-1.3h0Z"/>
    <path d="M155.4,347c0-.2,0-.3.3-.3h1.2c.2,0,.3,0,.3.3v16c0,2,1.2,2.8,3,2.8h1.8c1.9,0,2.9-.8,2.9-2.8v-12.6c0-3.1,1.6-4.5,4.5-4.5h2.5c2.6,0,4.5,1.2,4.5,4.5v17.1c0,.3,0,.3-.3.3h-1.3c-.2,0-.3,0-.3-.3v-16.7c0-2.1-1.2-2.8-3-2.8h-2.1c-1.9,0-2.9.8-2.9,2.8v12.6c0,3-1.6,4.5-4.5,4.5h-2.2c-2.7,0-4.5-1.3-4.5-4.5v-16.3h0Z"/>
  </g>
  <rect class="st15" x="153.6" y="88.9" width="22.5" height="141.8"/>
  <polygon class="st15" points="164.5 249 184.7 230.7 145 230.7 164.5 249"/>
  <g>
    <path d="M155.8,199.3c0-4.4,2.1-6.2,6.1-6.2h1.6c4,0,6.1,1.7,6.1,6.2v14.5h7c.2,0,.3.1.3.3v1.4c0,.3,0,.3-.3.3h-19.8c-.6,0-.9-.3-.9-.9v-15.6h0ZM167.7,213.8v-14.2c0-3.2-1.5-4.4-4.4-4.4h-1.2c-3,0-4.4,1.3-4.4,4.4v13.9c0,.2,0,.3.3.3h9.7,0Z"/>
    <path d="M161,177c0-5.2,1.6-6.9,5.8-6.9h7.7c1.9,0,2.3.4,2.3,2.1v13.8c0,3.5-1.2,4.5-4.1,4.5h-1.1c-2.4,0-3.8-1.1-3.8-4.5v-14h-.9c-3,0-4.2,1.2-4.2,5.1v12.6c0,.2,0,.3-.3.3h-1.1c-.2,0-.3,0-.3-.3v-12.8h0ZM173.8,172h-4.6v13.6c0,2.3.9,3,2.5,3h.8c1.9,0,2.7-.7,2.7-3v-12.3c0-1-.3-1.3-1.4-1.3h0Z"/>
    <path d="M161,153.6c0-5.2,1.6-6.9,5.8-6.9h7.7c1.9,0,2.3.4,2.3,2.1v13.8c0,3.5-1.2,4.5-4.1,4.5h-1.1c-2.4,0-3.8-1.1-3.8-4.5v-14h-.9c-3,0-4.2,1.2-4.2,5.1v12.6c0,.2,0,.3-.3.3h-1.1c-.2,0-.3,0-.3-.3v-12.8h0ZM173.8,148.6h-4.6v13.6c0,2.3.9,3,2.5,3h.8c1.9,0,2.7-.7,2.7-3v-12.3c0-1-.3-1.3-1.4-1.3h0Z"/>
    <path d="M155.8,122.6c0-.2,0-.3.3-.3h1.2c.2,0,.3,0,.3.3v16c0,2,1.2,2.8,3,2.8h1.8c1.9,0,2.9-.8,2.9-2.8v-12.6c0-3.1,1.6-4.5,4.5-4.5h2.5c2.6,0,4.5,1.2,4.5,4.5v17.1c0,.3,0,.3-.3.3h-1.3c-.2,0-.3,0-.3-.3v-16.7c0-2.1-1.2-2.8-3-2.8h-2.1c-1.9,0-2.9.8-2.9,2.8v12.6c0,3-1.6,4.5-4.5,4.5h-2.2c-2.7,0-4.5-1.3-4.5-4.5v-16.3h0Z"/>
  </g>
</svg>