<?xml version="1.0" encoding="UTF-8"?>
<svg id="Layer_2" data-name="Layer 2" xmlns="http://www.w3.org/2000/svg" xmlns:xlink="http://www.w3.org/1999/xlink" viewBox="0 0 1280 746">
  <defs>
    <style>
      .cls-1 {
        fill: none;
        stroke: #0500bf;
        stroke-miterlimit: 10;
        stroke-width: .25px;
      }

      .cls-2 {
        filter: url(#drop-shadow-2);
      }

      .cls-3 {
        fill: #006cff;
      }

      .cls-4 {
        fill: #023fff;
      }

      .cls-5 {
        filter: url(#drop-shadow-5);
      }

      .cls-6 {
        fill: #fff;
      }

      .cls-7 {
        fill: #fb0;
      }

      .cls-8 {
        fill: #0500bf;
      }

      .cls-9 {
        filter: url(#drop-shadow-4);
      }

      .cls-10 {
        fill: #f2f2f2;
      }

      .cls-11 {
        filter: url(#drop-shadow-1);
      }

      .cls-12 {
        fill: #eeb715;
      }

      .cls-13 {
        fill: #2453ff;
      }

      .cls-14 {
        filter: url(#drop-shadow-3);
      }
    </style>
    <filter id="drop-shadow-1" x="523.88" y="280.16" width="149.28" height="137.04" filterUnits="userSpaceOnUse">
      <feOffset dx="2" dy="2"/>
      <feGaussianBlur result="blur" stdDeviation="1"/>
      <feFlood flood-color="#000" flood-opacity=".2"/>
      <feComposite in2="blur" operator="in"/>
      <feComposite in="SourceGraphic"/>
    </filter>
    <filter id="drop-shadow-2" x="639.8" y="308.96" width="114.96" height="141.6" filterUnits="userSpaceOnUse">
      <feOffset dx="2" dy="2"/>
      <feGaussianBlur result="blur-2" stdDeviation="1"/>
      <feFlood flood-color="#000" flood-opacity=".2"/>
      <feComposite in2="blur-2" operator="in"/>
      <feComposite in="SourceGraphic"/>
    </filter>
    <filter id="drop-shadow-3" x="48.44" y="140" width="409.44" height="462.48" filterUnits="userSpaceOnUse">
      <feOffset dx="2" dy="2"/>
      <feGaussianBlur result="blur-3" stdDeviation="1"/>
      <feFlood flood-color="#000" flood-opacity=".12"/>
      <feComposite in2="blur-3" operator="in"/>
      <feComposite in="SourceGraphic"/>
    </filter>
    <filter id="drop-shadow-4" x="94.28" y="140.96" width="358.56" height="358.56" filterUnits="userSpaceOnUse">
      <feOffset dx="1" dy="1"/>
      <feGaussianBlur result="blur-4" stdDeviation="1"/>
      <feFlood flood-color="#000" flood-opacity=".1"/>
      <feComposite in2="blur-4" operator="in"/>
      <feComposite in="SourceGraphic"/>
    </filter>
    <filter id="drop-shadow-5" x="49.52" y="513.01" width="403.15" height="51" filterUnits="userSpaceOnUse">
      <feOffset dx="1" dy="1"/>
      <feGaussianBlur result="blur-5" stdDeviation="2"/>
      <feFlood flood-color="#000" flood-opacity=".18"/>
      <feComposite in2="blur-5" operator="in"/>
      <feComposite in="SourceGraphic"/>
    </filter>
  </defs>
  <g>
    <g class="cls-11">
      <path class="cls-7" d="M668.06,281.21l-56.66,130.9h-29.92l-56.47-130.9h32.72l39.83,93.5,40.39-93.5h30.11Z"/>
    </g>
    <g class="cls-2">
      <path class="cls-4" d="M640.92,430.2l10.28-22.81c11.03,8.04,27.49,13.65,43.2,13.65,17.95,0,25.24-5.98,25.24-14.02,0-24.5-76.11-7.67-76.11-56.29,0-22.25,17.95-40.77,55.16-40.77,16.46,0,33.29,3.93,45.44,11.59l-9.35,23c-12.16-6.92-24.68-10.29-36.28-10.29-17.95,0-24.87,6.73-24.87,14.96,0,24.12,76.11,7.48,76.11,55.54,0,21.88-18.14,40.58-55.54,40.58-20.76,0-41.7-6.17-53.29-15.15Z"/>
    </g>
  </g>
  <g>
    <g>
      <path class="cls-13" d="M1279.74,239.53l-5.42-32.74c-1.76-10.53-5.88-19.08-9.08-19.08s-5.88,8.7-5.88,19.38v8.55c0,10.61-8.7,19.38-19.38,19.38h-8.55c-.61,0-1.22,0-1.83.08v23.51c.61,0,1.22.08,1.83.08h32.21c10.61-.08,17.86-8.62,16.1-19.16"/>
      <path class="cls-13" d="M1202.58,211.82h-52.2c-.46,0-.84,0-1.3.08h-53.57c-.61,0-1.22.08-1.83.15v-4.96c0-10.61-2.67-19.38-5.88-19.38s-7.33,8.62-9.08,19.08l-5.42,32.74c-1.76,10.53,5.49,19.08,16.18,19.08h32.21c3.28,0,6.41-.53,9.16-1.45-.99,5.49-5.8,9.62-11.6,9.62h-45.1c-7.33,0-12.82-6.56-11.68-13.74l4.58-27.4c1.22-7.17-4.35-13.74-11.68-13.74h-224.6c-4.81,0-8.93,2.82-10.76,6.94l-42.28,64.33c-.69,1.07-.61,2.52.23,3.51l8.24,9.69c.99,1.22,2.82,1.37,4.04.38l28.77-22.67v137.67c0,6.56,5.27,11.83,11.83,11.83h63.72c6.56,0,11.83-5.27,11.83-11.83v-47.85c0-6.49,5.27-11.83,11.83-11.83h159.12c6.56,0,11.83,5.27,11.83,11.83v47.85c0,6.56,5.27,11.83,11.83,11.83h63.72c6.49,0,11.83-5.27,11.83-11.83v-51.51h-33.88c-10.61,0-19.38-8.7-19.38-19.38v-33.12c0-6.33,3.05-11.91,7.78-15.42v39.53c0,10.61,8.7,19.38,19.38,19.38h52.2c10.61,0,19.38-8.7,19.38-19.38v-100.66c-.08-10.61-8.78-19.38-19.46-19.38"/>
    </g>
    <g>
      <g>
        <g id="Layer_1-2" data-name="Layer 1">
          <path d="M1195.22,557.96c-2.66,0-4.82-2.16-4.82-4.82v-14.33c0-2.66,2.16-4.82,4.82-4.82h11.01c.86,0,1.55.69,1.55,1.55s-.69,1.55-1.55,1.55h-11.01c-.94,0-1.72.78-1.72,1.72v5.63h10.78c.8,0,1.47.67,1.47,1.47s-.67,1.47-1.47,1.47h-10.78v5.74c0,.94.78,1.72,1.72,1.72h11.01c.86,0,1.55.69,1.55,1.55s-.69,1.55-1.55,1.55h-11.01v.03ZM1145.93,558.26c-3.16,0-5.6-.8-7.26-2.38-1.64-1.58-2.47-3.96-2.47-7.1v-13.33c0-1,.8-1.8,1.8-1.8s1.8.8,1.8,1.8v12.84c0,2.33.5,4.08,1.5,5.18s2.55,1.69,4.63,1.69,3.63-.58,4.63-1.69,1.5-2.86,1.5-5.18v-12.84c0-1,.8-1.8,1.8-1.8s1.8.8,1.8,1.8v13.33c0,3.1-.83,5.49-2.47,7.1-1.66,1.58-4.1,2.38-7.26,2.38M1173.12,558.26c-4.08,0-7.18-1.16-9.23-3.44-.58-.67-.55-1.69.08-2.33h0c.33-.33.75-.5,1.22-.5.5,0,.94.19,1.25.58.58.67,1.22,1.19,1.94,1.61,1.25.69,2.83,1.05,4.69,1.05s3.16-.3,4.19-.91c1.05-.64,1.58-1.52,1.58-2.69,0-.94-.47-1.72-1.41-2.27-.91-.55-2.47-1.03-4.74-1.44-2.22-.42-3.99-.91-5.29-1.52-1.28-.58-2.22-1.33-2.8-2.22-.58-.86-.86-1.94-.86-3.22s.36-2.55,1.11-3.66c.75-1.08,1.83-1.97,3.22-2.61,1.41-.64,3.08-.97,4.93-.97,2.19,0,4.08.39,5.63,1.19,1.03.53,1.97,1.28,2.8,2.16.64.69.55,1.77-.14,2.41-.3.28-.72.44-1.14.44-.53,0-1.03-.25-1.36-.67-.47-.61-1-1.08-1.55-1.47-1.05-.67-2.47-1.03-4.21-1.03s-3.08.36-4.02,1.05c-.97.69-1.47,1.61-1.47,2.72,0,1.03.47,1.86,1.44,2.47.91.58,2.52,1.08,4.91,1.52,2.16.39,3.88.89,5.16,1.47,1.25.58,2.16,1.3,2.74,2.19.55.86.86,1.94.86,3.22,0,1.39-.39,2.61-1.16,3.63-.78,1.05-1.91,1.86-3.33,2.41-1.47.53-3.13.8-5.02.8M1118.93,558.29c-4.08,0-7.18-1.16-9.23-3.44-.58-.67-.55-1.69.08-2.33h0c.33-.33.75-.5,1.22-.5.5,0,.94.19,1.25.58.58.67,1.22,1.19,1.94,1.61,1.25.69,2.83,1.05,4.69,1.05s3.16-.3,4.19-.91c1.05-.64,1.58-1.52,1.58-2.69,0-.94-.47-1.72-1.41-2.27-.91-.55-2.47-1.03-4.74-1.44-2.19-.42-3.99-.91-5.29-1.52-1.28-.61-2.25-1.33-2.8-2.22-.58-.86-.86-1.94-.86-3.22s.36-2.55,1.11-3.66c.75-1.08,1.83-1.97,3.22-2.61,1.41-.64,3.05-.97,4.93-.97,2.19,0,4.08.39,5.63,1.19,1.05.53,1.97,1.28,2.8,2.16.64.69.55,1.77-.14,2.41-.3.28-.72.44-1.14.44-.53,0-1.03-.25-1.36-.67-.47-.61-1-1.08-1.55-1.47-1.05-.67-2.47-1.03-4.21-1.03s-3.08.36-4.02,1.05c-.97.69-1.47,1.64-1.47,2.72s.47,1.86,1.44,2.47c.91.58,2.52,1.08,4.91,1.52,2.16.39,3.88.89,5.16,1.47,1.25.58,2.16,1.33,2.74,2.19.55.86.86,1.94.86,3.22,0,1.39-.39,2.61-1.16,3.63-.78,1.05-1.91,1.86-3.33,2.41-1.47.5-3.13.8-5.02.8"/>
        </g>
        <g>
          <path d="M1063.34,558.26h-9.18v-24.62h8.82c5.18,0,7.79,2.83,7.79,6.24,0,3.1-1.94,4.91-4.3,5.68,2.69.47,4.88,3.05,4.88,6.07,0,3.74-2.91,6.63-8.01,6.63ZM1062.7,536.31h-5.32v7.98h5.41c2.99,0,4.74-1.47,4.74-3.99s-1.66-3.99-4.82-3.99ZM1062.95,546.93h-5.57v8.68h5.68c3.19,0,5.07-1.58,5.07-4.27,0-2.69-2.02-4.41-5.18-4.41Z"/>
          <path d="M1075.54,533.65h3.58l6.07,12.48,6.07-12.48h3.58l-8.01,15.33v9.29h-3.22v-9.29l-8.07-15.33Z"/>
        </g>
      </g>
      <path d="M837.65,445.02h26.09c12.39,0,20.74,6.02,20.74,17.63,0,9.48-6.46,15.19-12.75,17.16,1.89,1.61,3.27,3.74,4.41,6.02,2.63,5.35,4.41,11.26,9.95,11.26,1.41,0,2.52-.47,2.52-.47l-1.22,11.17s-3.38.83-6.29.83c-7.51,0-11.81-2.91-16.22-12.95-1.89-4.49-4.49-12.39-7.98-12.39h-3.58v25.03h-15.66v-63.29M853.32,456.36v15.58h5.63c4.49,0,9.76-1.41,9.76-8.15,0-5.54-3.58-7.4-7.87-7.4h-7.51v-.03Z"/>
      <path d="M905.63,445.02h15.86l21.37,63.32h-15.86l-3.94-12h-21.21l-3.85,12h-13.69l21.32-63.32M905.63,484.69h13.61l-4.32-13.31c-1.5-4.49-2.16-10.87-2.16-10.87h-.39s-.94,6.46-2.36,10.78l-4.38,13.39Z"/>
      <path d="M943.53,445.02h16.8l16.61,31.41c1.41,2.72,3.27,7.51,4.8,11.26h.39c-.19-3.58-.67-8.62-.67-12.28v-30.38h12.84v63.32h-16.41l-17.24-31.33c-1.61-2.83-3.27-6.93-4.6-10.31h-.39c.28,3.58.75,7.79.75,11.26v30.38h-12.86v-63.32"/>
      <path d="M997.61,476.23c0-22.87,11.34-32.35,28.89-32.35,18.46,0,25.89,10.12,23.81,23.81l-14.64,1.3c1.61-10.04-2.36-14.06-9.48-14.06s-12.39,5.07-12.39,21.37c0,17.27,6.02,21.68,12.84,21.68,6.46,0,11.73-4.05,10.59-12.28l13.69,1.41c1.03,12.84-8.26,22.32-25.14,22.32-17.08,0-28.17-10.12-28.17-33.21"/>
      <polyline points="1054.17 445.02 1069.83 445.02 1069.83 468.94 1089.07 468.94 1089.07 445.02 1104.73 445.02 1104.73 508.34 1089.07 508.34 1089.07 481.5 1069.83 481.5 1069.83 508.34 1054.17 508.34 1054.17 445.02"/>
      <polyline points="1111 445.02 1152.91 445.02 1152.91 456.63 1126.66 456.63 1126.66 470.25 1148.7 470.25 1148.7 481.86 1126.66 481.86 1126.66 496.69 1153.86 496.69 1153.86 508.34 1111 508.34 1111 445.02"/>
      <path d="M1156.85,445.02h26.09c12.39,0,20.74,6.02,20.74,17.63,0,9.48-6.46,15.19-12.75,17.16,1.89,1.61,3.27,3.74,4.41,6.02,2.63,5.35,4.41,11.26,9.95,11.26,1.41,0,2.52-.47,2.52-.47l-1.22,11.17s-3.38.83-6.29.83c-7.51,0-11.81-2.91-16.22-12.95-1.89-4.49-4.49-12.39-7.98-12.39h-3.58v25.03h-15.66v-63.29M1172.51,456.36v15.58h5.63c4.49,0,9.76-1.41,9.76-8.15,0-5.54-3.58-7.4-7.87-7.4h-7.51v-.03Z"/>
      <path d="M1209.41,449.01c0-3.58,2.66-5.13,5.1-5.13s5.1,1.52,5.1,5.13-2.66,5.05-5.1,5.05-5.1-1.52-5.1-5.05M1218.39,448.98c0-2.8-1.83-4.02-3.88-4.02s-3.94,1.22-3.94,4.02,1.89,3.99,3.94,3.99c2.05,0,3.88-1.19,3.88-3.99ZM1212.82,446.46h1.8c.91,0,1.83.25,1.83,1.55,0,.78-.5,1.19-1.19,1.33l1.19,2.05h-1.11l-1.11-2h-.44v2h-1v-4.93h.03ZM1214.71,448.71c.42,0,.78-.25.78-.72,0-.53-.42-.67-.78-.67h-.89v1.39h.89Z"/>
    </g>
  </g>
  <g class="cls-14">
    <g class="cls-9">
      <circle class="cls-10" cx="272.52" cy="319.18" r="176.19"/>
      <path class="cls-1" d="M343.29,221.15l-59.1,33.72M297.94,197.73l-78.32,45.7M247.71,253.27l11.57-6.66v-25.4M221.62,424.96l66.72-45.03M262.8,448.13l67.26-44.71M299.98,397.6l-9.72,6.45,1.56,24.78M231.27,221.14l-39.21,21.63M187.28,240.28c-3.09-.06-5.64,2.39-5.7,5.48-.06,3.09,2.39,5.64,5.48,5.7s5.64-2.39,5.7-5.48c.06-3.09-2.39-5.64-5.48-5.7ZM236.3,212.85c-3.09-.06-5.64,2.39-5.7,5.48-.06,3.09,2.39,5.64,5.48,5.7,3.09.06,5.64-2.39,5.7-5.48.06-3.09-2.39-5.64-5.48-5.7Z"/>
      <path class="cls-4" d="M272.51,142.99c-97.29,0-176.19,78.9-176.19,176.19s78.9,176.19,176.19,176.19,176.19-78.9,176.19-176.19-78.86-176.19-176.19-176.19ZM414.13,239.88c-.14,1.03.27,2.15-.66,3.02-.11.1,0,.42-.02.64-.22,4.17-.4,8.35-.67,12.52-.1,1.45-.4,2.89-.64,4.32-.23,1.33.54,2.75-.57,4.05-.38.45-.15,1.48-.07,2.23.48,4.76-.98,9.42-.67,14.16-1.04,2.12-.6,4.4-.64,6.62-.03,1.48-.92,2.75-.74,4.33.16,1.41.58,3.01-.57,4.32-.11.12-.01.42-.02.64-.05,2.44.3,4.91-.66,7.27.51,4.21-.91,8.32-.65,12.52.11,1.71-.94,3.21-.71,4.98.22,1.72.43,3.6-.05,5.21-.63,2.13-.42,4.21-.59,6.31-.09,1.12-.48,2.22-.61,3.34-.12,1.03.2,2.11-.64,3.04-.22.24-.03.85-.03,1.28-.03,1.26.08,2.48-.63,3.68-1.08,1.82-.73,4.02-1.23,6.03-.47,1.88-1.01,3.76-1.39,5.67-.51,2.62-1.38,5.15-2.12,7.67-.74,2.5-1.48,5.07-2.55,7.46-2.3,5.17-4.1,10.59-6.9,15.5-2.17,3.81-3.93,7.84-6.55,11.44-1.67,2.29-3.11,4.82-4.69,7.22-1.61,2.44-3.44,4.69-5.16,7.03-2.79,3.79-5.97,7.24-9.2,10.66-1.44,1.53-2.68,3.32-4.25,4.75-3.88,3.52-7.67,7.16-11.77,10.41-6.41,5.08-13.3,9.53-20.07,14.11-1.68,1.14-3.21,2.52-5.11,3.43-1.93.93-3.51,2.59-5.32,3.82-1.69,1.16-3.5,2.13-5.2,3.27-9.85,6.58-19.47,13.5-29.53,19.76-2.55,1.59-4.9,3.51-7.33,5.29-.54.4-1.06.83-1.58,1.25h-5.25c-5.94-4.93-12.7-8.67-18.98-13.11-3.79-2.68-7.65-5.26-11.5-7.85-5.55-3.74-11.13-7.45-16.68-11.19-3.85-2.59-7.62-5.31-11.53-7.81-5.24-3.34-10.13-7.18-15.22-10.73-1.55-1.08-2.87-2.51-4.34-3.73-3.39-2.82-6.65-5.84-9.72-9.02-3.48-3.61-6.89-7.33-9.96-11.29-4-5.16-7.68-10.56-11.38-15.94-1.2-1.74-2.04-3.74-3.05-5.62-1.25-2.32-2.63-4.59-3.75-6.98-2.39-5.13-4.85-10.22-6.69-15.6-.88-2.56-1.95-5.1-2.75-7.71-.9-2.92-1.55-5.91-2.42-8.84-.36-1.21-.57-2.41-.69-3.67-.11-1.18-.66-2.33-1.1-3.46-.45-1.17.38-2.61-.81-3.6-.22-2.32-.6-4.63-.62-6.94-.03-3.21-1.16-6.33-.7-9.57-1.14-1.77-.58-3.75-.63-5.63-.03-1.49-1-2.75-.73-4.33.23-1.38.41-2.96-.03-4.23-.81-2.33-.4-4.65-.6-6.97-.12-1.34-.51-2.66-.61-4-.11-1.41.36-2.99-.11-4.23-.8-2.12-.48-4.22-.55-6.32-.05-1.69-.95-3.2-.74-4.98.18-1.52.51-3.21-.58-4.65-.05-.07,0-.21,0-.32-.22-3.95-.59-7.91-.58-11.86,0-1.65-.69-3.06-.77-4.65-.08-1.55.35-3.1-.52-4.71-.55-1.02-.12-2.57-.1-3.88.05-4.3-1.12-8.53-.66-12.85-1.44-2.14-.21-4.7-1.2-7.05-.88-2.09.79-4.5,3.25-5.87,4.71-2.63,9.4-5.28,14.13-7.87,4.45-2.44,8.99-4.72,13.39-7.25,4.32-2.48,8.69-4.87,13.08-7.23,4.38-2.36,8.71-4.83,13.08-7.22,4.37-2.38,8.73-4.79,13.09-7.21,4.36-2.41,8.71-4.83,13.09-7.2,4.46-2.42,8.94-4.82,13.37-7.28,4.18-2.32,8.34-4.69,12.54-6.99,4.54-2.48,9.09-4.97,13.63-7.45,4.28-2.33,8.56-4.71,12.8-7.13,1.94-1.11,3.93-2.15,6-3.29h3.2c2.59,1.51,5.19,3.13,7.88,4.57,3.94,2.12,7.88,4.25,11.77,6.45,2.82,1.59,5.65,3.21,8.54,4.69,3.54,1.82,7.07,3.6,10.39,5.82,1.08.72,2.41,1.04,3.57,1.66,5.1,2.74,10.19,5.5,15.26,8.3,4.27,2.37,8.49,4.84,12.76,7.2,4.45,2.45,8.94,4.8,13.4,7.23,4.37,2.38,8.72,4.81,13.09,7.21,4.36,2.41,8.73,4.8,13.08,7.22,4.44,2.47,8.97,4.77,13.37,7.3,4.15,2.39,8.48,4.45,12.52,7.01,1.75,1.11,3.47,2.29,5.06,3.35-.16,1.85,1.1,3.1.67,4.67-.3,1.09-.51,2.21-.66,3.33ZM414.12,231.88c-1.59-1.06-3.3-2.24-5.06-3.35-4.04-2.57-8.37-4.63-12.52-7.01-4.39-2.53-8.93-4.83-13.37-7.3-4.35-2.42-8.72-4.81-13.08-7.22-4.36-2.41-8.71-4.83-13.09-7.21-4.46-2.43-8.96-4.78-13.4-7.23-4.28-2.36-8.49-4.83-12.76-7.2-5.07-2.8-10.16-5.56-15.26-8.3-1.15-.62-2.49-.94-3.57-1.66-3.31-2.22-6.85-4.01-10.39-5.82-2.89-1.48-5.72-3.1-8.54-4.69-3.9-2.21-7.83-4.33-11.77-6.45-2.69-1.45-5.29-3.07-7.88-4.57h-3.2c-2.08,1.13-4.06,2.18-6,3.29-4.24,2.42-8.52,4.8-12.8,7.13-4.54,2.48-9.09,4.97-13.63,7.45-4.2,2.29-8.36,4.66-12.54,6.99-4.43,2.46-8.91,4.86-13.37,7.28-4.38,2.38-8.73,4.79-13.09,7.2-4.36,2.41-8.72,4.82-13.09,7.21-4.37,2.39-8.7,4.86-13.08,7.22-4.39,2.36-8.76,4.75-13.08,7.23-4.4,2.53-8.94,4.81-13.39,7.25-4.73,2.59-9.42,5.24-14.13,7.87-2.45,1.37-4.13,3.78-3.25,5.87.99,2.34-.24,4.9,1.2,7.05-.46,4.32.71,8.55.66,12.85-.02,1.31-.45,2.86.1,3.88.86,1.61.44,3.15.52,4.71.08,1.58.77,3,.77,4.65-.01,3.95.36,7.91.58,11.86,0,.11-.05.25,0,.32,1.09,1.43.76,3.12.58,4.65-.21,1.79.69,3.29.74,4.98.06,2.1-.25,4.2.55,6.32.47,1.24,0,2.82.11,4.23.1,1.34.5,2.66.61,4,.2,2.32-.21,4.64.6,6.97.44,1.27.26,2.85.03,4.23-.27,1.58.7,2.84.73,4.33.04,1.89-.51,3.86.63,5.63-.47,3.24.67,6.36.7,9.57.02,2.32.4,4.63.62,6.94,1.19.99.35,2.43.81,3.6.44,1.13.99,2.28,1.1,3.46.12,1.26.33,2.45.69,3.67.87,2.93,1.52,5.93,2.42,8.84.8,2.6,1.87,5.14,2.75,7.71,1.85,5.39,4.3,10.47,6.69,15.6,1.11,2.39,2.49,4.65,3.75,6.98,1.01,1.88,1.85,3.87,3.05,5.62,3.7,5.38,7.39,10.78,11.38,15.94,3.07,3.96,6.48,7.68,9.96,11.29,3.06,3.18,6.32,6.2,9.72,9.02,1.47,1.23,2.79,2.65,4.34,3.73,5.09,3.55,9.98,7.39,15.22,10.73,3.91,2.5,7.68,5.21,11.53,7.81,5.55,3.74,11.13,7.45,16.68,11.19,3.85,2.6,7.72,5.17,11.5,7.85,6.28,4.44,13.04,8.18,18.98,13.11h5.25c.53-.42,1.04-.85,1.58-1.25,2.43-1.78,4.78-3.7,7.33-5.29,10.07-6.26,19.68-13.18,29.53-19.76,1.7-1.14,3.51-2.11,5.2-3.27,1.8-1.24,3.38-2.89,5.32-3.82,1.9-.92,3.43-2.29,5.11-3.43,6.77-4.58,13.66-9.03,20.07-14.11,4.1-3.25,7.89-6.88,11.77-10.41,1.58-1.43,2.81-3.22,4.25-4.75,3.23-3.43,6.41-6.88,9.2-10.66,1.72-2.34,3.55-4.6,5.16-7.03,1.59-2.4,3.02-4.93,4.69-7.22,2.62-3.6,4.38-7.63,6.55-11.44,2.8-4.91,4.59-10.33,6.9-15.5,1.06-2.39,1.81-4.96,2.55-7.46.75-2.53,1.62-5.05,2.12-7.67.37-1.9.92-3.79,1.39-5.67.5-2.01.15-4.2,1.23-6.03.71-1.2.6-2.43.63-3.68,0-.44-.18-1.04.03-1.28.84-.92.52-2,.64-3.04.14-1.12.53-2.22.61-3.34.16-2.1-.04-4.19.59-6.31.47-1.61.27-3.49.05-5.21-.23-1.77.82-3.27.71-4.98-.26-4.2,1.15-8.31.65-12.52.96-2.36.6-4.83.66-7.27,0-.22-.09-.52.02-.64,1.15-1.32.73-2.92.57-4.32-.18-1.58.72-2.85.74-4.33.04-2.22-.4-4.49.64-6.62-.32-4.74,1.15-9.41.67-14.16-.08-.75-.31-1.79.07-2.23,1.11-1.31.34-2.72.57-4.05.25-1.44.55-2.87.64-4.32.27-4.17.46-8.35.67-12.52.01-.22-.09-.54.02-.64.92-.87.52-1.99.66-3.02.15-1.12.35-2.24.66-3.33.43-1.57-.83-2.82-.67-4.67ZM402.99,242.95c-.25.38-.01,1.07-.04,1.62-.21,3.96-.05,7.98-.78,11.84-.55,2.91-.3,5.75-.55,8.61-.12,1.34-.51,2.66-.61,4-.11,1.41.38,3-.12,4.22-.77,1.91-.37,3.79-.58,5.67-.16,1.45-.51,2.88-.62,4.32-.11,1.41.36,2.99-.11,4.23-.88,2.33-.35,4.66-.59,6.97-.16,1.56-.46,3.1-.63,4.65-.16,1.45.37,2.99-.64,4.34-.16.21-.06.64-.02.97.48,4.1-.44,8.15-.82,12.18-.29,3.09-.33,6.17-.51,9.26-.08,1.35-.89,2.54-.69,4,.19,1.33-.16,2.65-.5,4.01-.46,1.79-.14,3.73-.7,5.62-.87,2.94-.61,6.17-2.03,9.01.27,3.31-1.26,6.28-2.11,9.32-.69,2.49-1.39,5.07-2.47,7.49-.95,2.12-1.86,4.26-2.62,6.46-1.45,4.2-4.77,11.02-6.96,14.51-1.03,1.63-1.86,3.38-2.85,5.06-2.78,4.73-5.89,9.22-9.23,13.56-2.07,2.69-4.34,5.21-6.43,7.85-3.05,3.84-6.53,7.25-10.11,10.5-4.03,3.66-8.2,7.2-12.71,10.36-3.47,2.43-7.13,4.62-10.46,7.19-3.3,2.55-6.84,4.68-10.24,7.04-3.29,2.28-6.84,4.21-10.03,6.62-7.17,5.42-14.95,9.94-22.25,15.15-4.05,2.89-8.34,5.4-12.21,8.54-7.62-5.13-14.96-10.43-22.66-15.24-5.16-3.23-10.05-6.91-15.07-10.37-4.16-2.87-8.33-5.74-12.52-8.58-2.47-1.67-5.11-3.1-7.46-4.92-2.39-1.86-5.01-3.35-7.39-5.22-3.4-2.66-6.74-5.39-10.09-8.11-3.63-2.96-6.91-6.24-10.04-9.64-3.84-4.17-7.5-8.52-10.83-13.17-2.18-3.03-4.29-6.12-6.36-9.21-3.46-5.16-6.51-10.6-8.99-16.28-1.85-4.25-3.72-8.52-5.18-12.94-1.18-3.56-2.55-7.08-3.39-10.72-.44-1.9-.86-3.78-1.41-5.66-.53-1.79-.22-3.82-.79-5.59-.98-3.07-.62-6.39-1.9-9.37-.04-.09-.02-.22,0-.33.49-3.78-.98-7.45-.65-11.21.25-2.8-1.15-5.45-.67-8.26-1.13-1.77-.66-3.75-.62-5.63.08-3.98-1.17-7.87-.69-11.87-1.17-2.23-.55-4.62-.63-6.95-.06-1.69-.94-3.2-.75-4.98.17-1.53.5-3.21-.58-4.65-.1-.14-.04-.43-.01-.65.45-3.67-.51-7.26-.8-10.87-.25-3.08-.12-6.22-.64-9.23-.35-2.01-.15-4.05-.6-5.97-.7-2.98-.21-6-.7-8.91-.34-2.01-.48-3.98-.56-6.03,5.57-2.87,10.98-6.05,16.53-9,4.21-2.24,8.35-4.67,12.54-6.97,4.54-2.49,9.19-4.78,13.65-7.42,4.21-2.49,8.52-4.78,12.79-7.16,4.43-2.48,8.98-4.74,13.39-7.26,4.77-2.72,9.59-5.32,14.44-7.9,4.4-2.33,8.71-4.83,13.08-7.21,4.37-2.39,8.71-4.84,13.1-7.19,4.47-2.4,8.92-4.86,13.36-7.31,3.02-1.67,6.23-3.07,8.92-5.24,5.95,2.98,11.56,6.28,17.25,9.4,4.55,2.49,9.17,4.9,13.56,7.71,3.23,2.06,6.99,3.29,10.2,5.39,3.18,2.07,6.69,3.49,9.85,5.6,3.19,2.13,6.81,3.6,10.16,5.5,2.92,1.66,6.03,2.99,8.77,4.99.72.53,1.64.78,2.46,1.18,5.64,2.8,11.02,6.07,16.6,9,4.22,2.22,8.34,4.68,12.54,6.98,4.54,2.48,9.08,4.97,13.64,7.43,4.56,2.46,9.01,5.13,13.65,7.45,1.09.54,2.09,1.27,3.35,2.04-.3,1.66.54,3.59-.64,5.4ZM392.44,248.47c.14-2.18-.9-3.54-2.77-4.81-2.56-1.73-5.42-2.86-8-4.5-4.13-2.62-8.57-4.69-12.78-7.19-4.45-2.64-9.14-4.87-13.64-7.44-4.16-2.37-8.37-4.64-12.55-6.96-5.06-2.81-10.14-5.58-15.25-8.31-1.16-.62-2.51-.92-3.56-1.67-4.51-3.21-9.67-5.29-14.3-8.28-2.12-1.37-4.58-2.2-6.71-3.56-2.16-1.38-4.78-1.94-6.62-3.85-5.4-2.4-10.32-5.69-15.55-8.39-1.09-.56-2.14-1.23-3.2-1.79-2.24-1.18-4.39-2.98-7.29-2.2-3.56,2.01-6.91,3.95-10.31,5.81-4.45,2.44-9,4.71-13.39,7.26-4.23,2.45-8.59,4.65-12.8,7.15-4.45,2.64-9.14,4.87-13.64,7.44-4.15,2.37-8.36,4.67-12.55,6.95-5.53,3.01-11,6.13-16.59,9.02-.81.42-1.72.67-2.46,1.18-2.77,1.94-5.84,3.33-8.78,4.96-3.29,1.81-6.62,3.56-9.9,5.37-3.74,2.07-7.48,4.16-11.17,6.34-1.74,1.03-3.68,1.75-5.37,2.84-1.13.73-2.14,1.83-2.24,3.3-.11,1.74-.43,3.63.09,5.21.47,1.39.38,2.69.55,4.03.17,1.34.5,2.66.63,4,.22,2.42.07,4.83.54,7.3.58,2.99.4,6.14.65,9.23.29,3.61,1.25,7.2.8,10.87-.03.22-.09.5.01.65,1.13,1.55.44,3.33.65,4.99.2,1.66.53,3.31.63,4.98.27,4.39.46,8.78.67,13.18.01.22-.09.52.02.64,1.18,1.31.69,2.92.57,4.33-.14,1.57.71,2.84.75,4.33.09,2.87,0,5.71.49,8.61.47,2.78,1.28,5.64.83,8.57-.07.47.16,1.01.31,1.5.55,1.74,1.14,3.51,1.52,5.25.43,2.01.98,4.04,1.19,6.07.23,2.2,1.22,4.13,1.8,6.18,1.57,5.54,3.84,10.87,6.35,16.05,2.08,4.3,4.23,8.57,6.92,12.58,1.78,2.65,3.59,5.3,5.3,7.98,2.5,3.92,5.48,7.45,8.53,10.84,5.63,6.25,11.76,12.04,18.4,17.23,1.07.84,2.1,1.75,3.25,2.45,6.79,4.13,13.13,8.93,19.74,13.33,5.07,3.38,10.17,6.69,15.12,10.25,6.26,4.51,12.81,8.63,19.23,12.94,2.3,1.54,4.64,2.86,7.61,2.06.27-.27.54-.64.9-.88,4.01-2.72,8.06-5.38,12.04-8.14,5.1-3.53,10.4-6.74,15.36-10.48,3.53-2.66,7.36-4.92,11.04-7.38,3.86-2.57,7.7-5.17,11.55-7.76,5.54-3.73,11.13-7.46,15.98-12.03,4.64-4.37,9.33-8.73,13.35-13.76,2.36-2.95,4.67-5.92,6.97-8.92,3.52-4.6,6.32-9.61,9.19-14.6,1.52-2.63,3.1-5.29,4.09-8.14.58-1.66,1.6-3.1,2.02-4.74.44-1.7,1.17-3.24,1.76-4.86,1.1-3.05,2.04-6.17,2.87-9.31.58-2.19,1.36-4.35,1.35-6.66,1.93-3.2,1.75-6.96,2.47-10.43.86-4.15.59-8.54.8-12.82.04-.76-.31-1.8.07-2.25,1.11-1.3.36-2.72.59-4.05.23-1.33.56-2.65.64-3.99.27-4.5.46-9,.68-13.51.01-.22-.09-.51.02-.64,1.09-1.32.47-2.89.65-4.33.19-1.55.5-3.09.64-4.65.22-2.53.05-5.05.55-7.63.71-3.64.66-7.45.75-11.19.08-3.31,1.16-6.55.69-9.9-.02-.11-.05-.25,0-.32,1.18-1.65.45-3.54.65-5.31.21-1.88.51-3.75.63-5.64ZM381.28,256.21c-.12,1.77-.5,3.53-.61,5.31-.11,1.85.35,3.82-.12,5.55-.52,1.91-.15,3.86-.64,5.64-.78,2.88-.17,5.79-.66,8.59-.48,2.77-.15,5.59-.71,8.24-.41,1.92-.33,3.78-.53,5.66-.15,1.34-.51,2.66-.62,4-.11,1.41.38,3-.12,4.23-.77,1.91-.43,3.78-.56,5.67-.22,3.08-1.03,6.12-.66,9.24-1.23,2.45-.32,5.08-.68,7.6-.51,3.49-.47,7.07-1.69,10.44-.17.48-.26,1.03-.23,1.54.12,2.03-.54,3.88-1.16,5.76-.49,1.48.18,3.14-.79,4.6-.55.82-.76,1.86-1.28,3.2.56,1.89-1.02,3.71-1.7,5.72-2.32,6.81-5.36,13.33-8.88,19.6-2.17,3.86-4.58,7.56-7.27,11.11-2.94,3.89-5.9,7.72-9.23,11.29-1.28,1.38-2.35,3.06-3.81,4.27-5.26,4.37-10.1,9.22-15.92,12.95-3.12,2-6.12,4.24-9.21,6.32-3.07,2.06-6.3,3.93-9.25,6.12-7.79,5.81-16.11,10.82-24.09,16.34-2.73,1.89-5.41,3.86-7.86,5.61-2,1.2-2.81-.91-4.24-1.05-3.37-3.31-7.66-5.32-11.42-8.08-4.16-3.05-8.68-5.59-12.77-8.79-3.72-2.91-7.84-5.32-11.78-7.94-3.94-2.63-7.88-5.25-11.82-7.89-3.14-2.1-6.1-4.42-8.97-6.91-3.13-2.72-6.64-5.06-9.35-8.2-3.78-4.39-7.66-8.68-11.08-13.4-2.61-3.61-5.09-7.31-7.45-11.06-1.93-3.07-3.34-6.47-4.9-9.77-1.78-3.75-3.26-7.61-4.67-11.52-1.04-2.87-1.77-5.82-2.79-8.68-.03-.09-.22-.16-.22-.23-.03-2.41-.85-4.64-1.5-6.92-.62-2.18-.38-4.54-1.33-6.67-.08-.18-.03-.44,0-.65.45-3.67-.46-7.27-.81-10.87-.33-3.42-.43-6.82-.51-10.24-.03-1.26-.9-2.31-.71-3.67.16-1.1.38-2.35-.58-3.35-.16-.17-.05-.64-.02-.96.46-4.1-.44-8.15-.81-12.18-.27-2.98-.03-6.03-.63-8.9-.52-2.47-.47-4.86-.51-7.3-.03-1.49-.99-2.75-.73-4.33.23-1.38.4-2.95-.03-4.23-.68-2.01-.09-4.12-.67-5.96-1.05-3.32-.14-6.6-.68-9.89,1.84-1.06,3.51-2.05,5.21-3,3.46-1.93,6.95-3.82,10.41-5.74,3.91-2.17,7.73-4.53,11.74-6.51,5.1-2.51,9.97-5.45,15.01-8.06,4.14-2.14,8.24-4.46,12.26-6.86,5.07-3.03,10.44-5.53,15.44-8.7,3.24-2.05,6.86-3.49,10.24-5.33,2.87-1.56,5.63-3.31,8.45-4.95.79-.45,1.65-.76,2.46-1.17,5.61-2.86,10.88-6.34,16.62-8.97.64-.3,1.15-.89,1.88-1.47,2.58,2.23,5.97,3.07,8.64,5.19.69.55,1.64.78,2.45,1.19,5.64,2.79,11,6.1,16.6,8.99,4.14,2.14,8.24,4.44,12.26,6.83,5.09,3.01,10.39,5.62,15.46,8.67,2.76,1.66,5.63,3.25,8.53,4.7,3.56,1.78,7.07,3.61,10.39,5.81.92.61,2,.97,3,1.46,5.48,2.65,10.66,5.88,16.09,8.65,4.42,2.26,8.65,4.92,13.13,7.12,1.11.54,2.06,1.41,3,2.07,0,1.84.09,3.48-.02,5.12Z"/>
      <g>
        <path class="cls-7" d="M333.55,242.2c-1-1.13-2.2-1.94-3.82-1.83-.54.04-1.09,0-1.64,0-37.58,0-75.16.02-112.73-.04-3.04,0-5.38.69-6.63,3.99v11.8h125.99v-11.98c-.42-.72-.7-1.42-1.17-1.94Z"/>
        <path class="cls-3" d="M199.6,259.95h10.4v-11.8c1.24-3.3,3.59-3.99,6.63-3.99,37.58.06,75.16.04,112.73.04.55,0,1.09.03,1.64,0,1.63-.12,2.83.69,3.82,1.83.46.53.74,1.22,1.17,1.94v11.98h10.5c0-4.04-.18-7.87.07-11.67.15-2.26-1.32-3.9-1.59-5.93-2.53-3.06-4.61-6.63-8.92-7.64-.67-.16-1.26-.66-1.9-1.01-39.56,0-79.14.01-118.72-.02-3.23,0-6.11.92-8.74,2.67-1.06.71-1.96,1.66-2.88,2.56-2.87,2.84-4.28,6.31-4.31,10.35-.02,2.73-.01,5.47,0,8.2,0,.83.06,1.67.09,2.49Z"/>
      </g>
      <g>
        <path class="cls-7" d="M209.89,393.45c1,1.13,2.2,1.94,3.82,1.83.54-.04,1.09,0,1.64,0,37.58,0,75.16-.02,112.73.04,3.04,0,5.38-.69,6.63-3.99v-11.8h-125.99v11.98c.42.72.7,1.42,1.17,1.94Z"/>
        <path class="cls-3" d="M334.71,379.52v11.8c-1.24,3.3-3.59,3.99-6.63,3.99-37.58-.06-75.16-.04-112.73-.04-.55,0-1.09-.03-1.64,0-1.63.12-2.83-.69-3.82-1.83-.46-.53-.74-1.22-1.17-1.94v-11.98h-10.5c0,3.61.02,6.98,0,10.36-.03,3.1.86,5.84,2.56,8.47.78,1.21,1.75,2.14,2.7,3.12,2.82,2.9,6.31,4.3,10.35,4.3,38.49,0,76.97-.01,115.46.03,3.23,0,6.12-.91,8.73-2.68,1.23-.84,2.24-2,3.35-3.02,1.81-1.66,2.62-3.92,3.43-6.12.39-1.05.37-2.29.39-3.44.05-2.84.02-5.69.01-8.53,0-.83-.06-1.67-.09-2.49h-10.4Z"/>
      </g>
      <g>
        <g>
          <rect class="cls-4" x="208.73" y="342.66" width="125.99" height="35.5"/>
          <rect class="cls-8" x="214.03" y="337.15" width="115.38" height="5.52"/>
          <ellipse class="cls-6" cx="225.77" cy="361.06" rx="3.31" ry="2.68"/>
          <path class="cls-12" d="M241.14,364.16c-2.11,0-3.82-1.39-3.82-3.1s1.71-3.1,3.82-3.1,3.82,1.39,3.82,3.1-1.71,3.1-3.82,3.1ZM241.14,358.79c-1.54,0-2.79,1.02-2.79,2.27s1.25,2.27,2.79,2.27,2.79-1.02,2.79-2.27-1.25-2.27-2.79-2.27Z"/>
          <g>
            <path class="cls-12" d="M323.92,355.47h-53.96v-4.47h53.96v4.47ZM270.99,354.63h51.9v-2.8h-51.9v2.8Z"/>
            <path class="cls-12" d="M323.92,363.29h-53.96v-4.47h53.96v4.47ZM270.99,362.45h51.9v-2.8h-51.9v2.8Z"/>
            <path class="cls-12" d="M323.92,371.11h-53.96v-4.47h53.96v4.47ZM270.99,370.28h51.9v-2.8h-51.9v2.8Z"/>
          </g>
        </g>
        <g>
          <rect class="cls-4" x="208.73" y="301.65" width="125.99" height="35.5"/>
          <rect class="cls-8" x="214.03" y="296.13" width="115.38" height="5.52"/>
          <ellipse class="cls-6" cx="225.77" cy="320.04" rx="3.31" ry="2.68"/>
          <path class="cls-12" d="M241.14,323.14c-2.11,0-3.82-1.39-3.82-3.1s1.71-3.1,3.82-3.1,3.82,1.39,3.82,3.1-1.71,3.1-3.82,3.1ZM241.14,317.77c-1.54,0-2.79,1.02-2.79,2.27s1.25,2.27,2.79,2.27,2.79-1.02,2.79-2.27-1.25-2.27-2.79-2.27Z"/>
          <g>
            <path class="cls-12" d="M323.92,314.45h-53.96v-4.47h53.96v4.47ZM270.99,313.61h51.9v-2.8h-51.9v2.8Z"/>
            <path class="cls-12" d="M323.92,322.27h-53.96v-4.47h53.96v4.47ZM270.99,321.44h51.9v-2.8h-51.9v2.8Z"/>
            <path class="cls-12" d="M323.92,330.09h-53.96v-4.47h53.96v4.47ZM270.99,329.26h51.9v-2.8h-51.9v2.8Z"/>
          </g>
        </g>
        <g>
          <rect class="cls-4" x="208.73" y="260.63" width="125.99" height="35.5"/>
          <path class="cls-6" d="M229.08,279.02c0,1.48-1.48,2.68-3.31,2.68s-3.31-1.2-3.31-2.68,1.48-2.68,3.31-2.68,3.31,1.2,3.31,2.68Z"/>
          <path class="cls-12" d="M241.14,282.12c-2.11,0-3.82-1.39-3.82-3.1s1.71-3.1,3.82-3.1,3.82,1.39,3.82,3.1-1.71,3.1-3.82,3.1ZM241.14,276.75c-1.54,0-2.79,1.02-2.79,2.27s1.25,2.27,2.79,2.27,2.79-1.02,2.79-2.27-1.25-2.27-2.79-2.27Z"/>
          <g>
            <path class="cls-12" d="M323.92,273.43h-53.96v-4.47h53.96v4.47ZM270.99,272.59h51.9v-2.8h-51.9v2.8Z"/>
            <path class="cls-12" d="M323.92,281.25h-53.96v-4.47h53.96v4.47ZM270.99,280.42h51.9v-2.8h-51.9v2.8Z"/>
            <path class="cls-12" d="M323.92,289.08h-53.96v-4.47h53.96v4.47ZM270.99,288.24h51.9v-2.8h-51.9v2.8Z"/>
          </g>
        </g>
      </g>
    </g>
    <g class="cls-5">
      <path class="cls-7" d="M81.6,522.93h-22.21v11.95h20.45c1.5,0,2.63.34,3.37,1.01.74.68,1.11,1.57,1.11,2.67s-.37,2.01-1.1,2.71-1.86,1.05-3.39,1.05h-20.45v13.85h22.98c1.55,0,2.72.36,3.5,1.08.79.72,1.18,1.68,1.18,2.87s-.39,2.09-1.18,2.81c-.79.72-1.95,1.08-3.5,1.08h-26.79c-2.15,0-3.69-.48-4.63-1.43-.94-.95-1.41-2.49-1.41-4.62v-36.59c0-1.42.21-2.57.63-3.47s1.08-1.55,1.98-1.96c.9-.41,2.04-.61,3.44-.61h26.03c1.57,0,2.74.35,3.5,1.05s1.15,1.61,1.15,2.74-.38,2.08-1.15,2.77-1.93,1.05-3.5,1.05Z"/>
      <path class="cls-7" d="M99.49,526.67c.82,0,1.29.27,1.63.95l16.11,28.08c.27.41.34.41.68.41h.34c.34,0,.48,0,.68-.41l16.05-28.08c.34-.68.75-.95,1.56-.95h7.48c.95,0,1.36.82.95,1.7l-18.63,32.57c-1.22,2.24-2.72,3.06-5.71,3.06h-5.51c-3.06,0-4.42-.82-5.64-3.06l-18.77-32.57c-.54-.88-.07-1.7.88-1.7h7.89Z"/>
      <path class="cls-7" d="M182.79,526.67c11.9,0,16.18,3.6,16.18,13.73v9.86c0,10.13-4.28,13.73-16.18,13.73h-19.24c-11.9,0-16.11-3.6-16.11-13.73v-9.86c0-10.13,4.22-13.73,16.11-13.73h19.24ZM157.09,548.57c0,5.71,1.5,7.14,7.41,7.14h17.34c5.98,0,7.48-1.43,7.48-7.14v-6.46c0-5.64-1.5-7.07-7.48-7.07h-17.34c-5.92,0-7.41,1.43-7.41,7.07v6.46Z"/>
      <path class="cls-4" d="M256.37,516.41c1.02,0,1.5.48,1.5,1.5v6.66c0,1.02-.48,1.5-1.5,1.5h-30.26c-7,0-9.04,2.11-9.04,9.32v9.66c0,7.21,2.04,9.31,9.04,9.31h30.26c1.02,0,1.5.48,1.5,1.5v6.66c0,1.02-.48,1.5-1.5,1.5h-30.6c-13.8,0-19.04-4.9-19.04-17.95v-11.69c0-13.05,5.23-17.95,19.04-17.95h30.6Z"/>
      <path class="cls-4" d="M273.16,513.01c.95,0,1.5.48,1.5,1.5v48c0,1.02-.54,1.5-1.5,1.5h-6.66c-1.02,0-1.5-.48-1.5-1.5v-48c0-1.02.48-1.5,1.5-1.5h6.66Z"/>
      <path class="cls-4" d="M318.11,526.67c11.9,0,16.18,3.6,16.18,13.73v9.86c0,10.13-4.28,13.73-16.18,13.73h-19.24c-11.9,0-16.11-3.6-16.11-13.73v-9.86c0-10.13,4.22-13.73,16.11-13.73h19.24ZM292.41,548.57c0,5.71,1.5,7.14,7.41,7.14h17.34c5.98,0,7.48-1.43,7.48-7.14v-6.46c0-5.64-1.5-7.07-7.48-7.07h-17.34c-5.92,0-7.41,1.43-7.41,7.07v6.46Z"/>
      <path class="cls-4" d="M350.34,526.67c1.02,0,1.5.54,1.5,1.5v19.79c0,5.98,1.36,7.41,7,7.41h17.47c5.85,0,7.48-1.63,7.48-7.41v-19.79c0-.95.54-1.5,1.5-1.5h6.66c1.02,0,1.5.54,1.5,1.5v22.1c0,10.06-4.15,13.73-16.18,13.73h-18.97c-11.97,0-16.12-3.67-16.12-13.73v-22.1c0-.95.48-1.5,1.5-1.5h6.66Z"/>
      <path class="cls-4" d="M443.02,526.67v-12.17c0-1.02.54-1.5,1.5-1.5h6.66c1.02,0,1.5.48,1.5,1.5v35.76c0,10.06-4.15,13.73-16.18,13.73h-19.04c-11.97,0-16.11-3.67-16.11-13.73v-9.86c0-10,4.15-13.73,16.11-13.73h25.57ZM443.02,548.36v-13.26h-24.61c-5.85,0-7.41,1.43-7.41,7.21v6.05c0,5.78,1.56,7.21,7.41,7.21h17.13c5.85,0,7.48-1.43,7.48-7.21Z"/>
    </g>
    <g>
      <path class="cls-4" d="M98.54,593.14c0,2.62-1.94,4.11-5.79,4.11h-7.08v-15.4h6.64c3.43,0,5.41,1.45,5.41,3.96,0,1.76-.95,2.93-2.35,3.5,1.98.44,3.17,1.74,3.17,3.83ZM87.3,583.19v5.59h4.91c2.46,0,3.89-.95,3.89-2.79s-1.43-2.79-3.89-2.79h-4.91ZM96.92,593c0-2-1.47-2.88-4.18-2.88h-5.43v5.79h5.43c2.71,0,4.18-.88,4.18-2.91Z"/>
      <path class="cls-4" d="M112.36,585.68v11.57h-1.5v-2.11c-.81,1.41-2.31,2.22-4.16,2.22-2.95,0-4.88-1.65-4.88-4.97v-6.71h1.56v6.56c0,2.46,1.28,3.72,3.48,3.72,2.42,0,3.94-1.56,3.94-4.2v-6.07h1.56Z"/>
      <path class="cls-4" d="M116.38,582.02c0-.59.51-1.1,1.14-1.1s1.14.48,1.14,1.08c0,.64-.48,1.14-1.14,1.14s-1.14-.51-1.14-1.12ZM116.73,585.68h1.56v11.57h-1.56v-11.57Z"/>
      <path class="cls-4" d="M122.65,580.92h1.56v16.33h-1.56v-16.33Z"/>
      <path class="cls-4" d="M134.71,596.55c-.62.55-1.54.81-2.44.81-2.18,0-3.39-1.23-3.39-3.37v-7h-2.07v-1.32h2.07v-2.53h1.56v2.53h3.52v1.32h-3.52v6.91c0,1.36.7,2.11,2,2.11.64,0,1.28-.2,1.72-.59l.55,1.12Z"/>
      <path class="cls-4" d="M145.27,583.26v6.05h7.96v1.41h-7.96v6.54h-1.63v-15.4h10.56v1.41h-8.93Z"/>
      <path class="cls-4" d="M155.67,591.46c0-3.43,2.51-5.88,5.9-5.88s5.87,2.44,5.87,5.88-2.49,5.9-5.87,5.9-5.9-2.46-5.9-5.9ZM165.86,591.46c0-2.71-1.83-4.51-4.29-4.51s-4.31,1.8-4.31,4.51,1.85,4.51,4.31,4.51,4.29-1.8,4.29-4.51Z"/>
      <path class="cls-4" d="M176.47,585.59v1.52c-.13,0-.26-.02-.37-.02-2.42,0-3.89,1.54-3.89,4.27v5.9h-1.56v-11.57h1.5v2.27c.73-1.54,2.2-2.35,4.33-2.35Z"/>
      <path class="cls-4" d="M184.08,595.38l.64-1.25c1.1,1.08,3.06,1.87,5.08,1.87,2.88,0,4.14-1.21,4.14-2.73,0-4.22-9.48-1.63-9.48-7.33,0-2.27,1.76-4.22,5.68-4.22,1.74,0,3.54.51,4.78,1.36l-.55,1.3c-1.32-.86-2.86-1.28-4.22-1.28-2.82,0-4.07,1.25-4.07,2.79,0,4.22,9.48,1.67,9.48,7.28,0,2.27-1.8,4.2-5.74,4.2-2.31,0-4.58-.81-5.72-2Z"/>
      <path class="cls-4" d="M208.83,591.95h-9.68c.18,2.42,2.02,4.03,4.55,4.03,1.41,0,2.66-.51,3.54-1.52l.88,1.01c-1.03,1.23-2.64,1.89-4.47,1.89-3.61,0-6.07-2.46-6.07-5.9s2.4-5.88,5.65-5.88,5.61,2.4,5.61,5.88c0,.13-.02.31-.02.48ZM199.15,590.78h8.21c-.2-2.27-1.85-3.85-4.12-3.85s-3.89,1.58-4.09,3.85Z"/>
      <path class="cls-4" d="M210.87,591.46c0-3.45,2.51-5.88,5.96-5.88,1.96,0,3.61.77,4.53,2.29l-1.17.79c-.79-1.17-2.02-1.72-3.37-1.72-2.53,0-4.38,1.8-4.38,4.51s1.85,4.51,4.38,4.51c1.34,0,2.57-.53,3.37-1.69l1.17.79c-.92,1.5-2.57,2.29-4.53,2.29-3.45,0-5.96-2.44-5.96-5.9Z"/>
      <path class="cls-4" d="M234.85,585.68v11.57h-1.5v-2.11c-.81,1.41-2.31,2.22-4.16,2.22-2.95,0-4.88-1.65-4.88-4.97v-6.71h1.56v6.56c0,2.46,1.28,3.72,3.48,3.72,2.42,0,3.94-1.56,3.94-4.2v-6.07h1.56Z"/>
      <path class="cls-4" d="M245.06,585.59v1.52c-.13,0-.26-.02-.38-.02-2.42,0-3.89,1.54-3.89,4.27v5.9h-1.56v-11.57h1.5v2.27c.73-1.54,2.2-2.35,4.34-2.35Z"/>
      <path class="cls-4" d="M257.84,591.95h-9.68c.18,2.42,2.02,4.03,4.55,4.03,1.41,0,2.66-.51,3.54-1.52l.88,1.01c-1.03,1.23-2.64,1.89-4.47,1.89-3.61,0-6.07-2.46-6.07-5.9s2.4-5.88,5.65-5.88,5.61,2.4,5.61,5.88c0,.13-.02.31-.02.48ZM248.16,590.78h8.21c-.2-2.27-1.85-3.85-4.12-3.85s-3.89,1.58-4.09,3.85Z"/>
      <path class="cls-4" d="M267.15,581.85h1.63v15.4h-1.63v-15.4Z"/>
      <path class="cls-4" d="M284.11,590.54v6.71h-1.56v-6.56c0-2.44-1.28-3.7-3.48-3.7-2.49,0-4.05,1.54-4.05,4.18v6.07h-1.56v-11.57h1.5v2.13c.84-1.41,2.4-2.22,4.4-2.22,2.82,0,4.75,1.63,4.75,4.95Z"/>
      <path class="cls-4" d="M294.45,596.55c-.62.55-1.54.81-2.44.81-2.18,0-3.39-1.23-3.39-3.37v-7h-2.07v-1.32h2.07v-2.53h1.56v2.53h3.52v1.32h-3.52v6.91c0,1.36.71,2.11,2,2.11.64,0,1.28-.2,1.72-.59l.55,1.12Z"/>
      <path class="cls-4" d="M303.12,585.59v1.52c-.13,0-.26-.02-.37-.02-2.42,0-3.89,1.54-3.89,4.27v5.9h-1.56v-11.57h1.5v2.27c.73-1.54,2.2-2.35,4.33-2.35Z"/>
      <path class="cls-4" d="M314.65,590.08v7.17h-1.5v-1.8c-.7,1.19-2.07,1.92-3.98,1.92-2.62,0-4.22-1.36-4.22-3.37,0-1.78,1.14-3.28,4.47-3.28h3.68v-.7c0-1.98-1.12-3.06-3.28-3.06-1.5,0-2.9.53-3.85,1.36l-.7-1.17c1.17-.99,2.88-1.56,4.71-1.56,2.99,0,4.69,1.5,4.69,4.49ZM313.08,593.77v-1.89h-3.63c-2.24,0-2.97.88-2.97,2.07,0,1.34,1.08,2.18,2.93,2.18s3.06-.84,3.68-2.35Z"/>
      <path class="cls-4" d="M329.54,590.54v6.71h-1.56v-6.56c0-2.44-1.28-3.7-3.48-3.7-2.49,0-4.05,1.54-4.05,4.18v6.07h-1.56v-11.57h1.5v2.13c.84-1.41,2.4-2.22,4.4-2.22,2.82,0,4.75,1.63,4.75,4.95Z"/>
      <path class="cls-4" d="M343.91,591.95h-9.68c.18,2.42,2.02,4.03,4.55,4.03,1.41,0,2.66-.51,3.54-1.52l.88,1.01c-1.03,1.23-2.64,1.89-4.47,1.89-3.61,0-6.07-2.46-6.07-5.9s2.4-5.88,5.65-5.88,5.61,2.4,5.61,5.88c0,.13-.02.31-.02.48ZM334.22,590.78h8.21c-.2-2.27-1.85-3.85-4.12-3.85s-3.89,1.58-4.09,3.85Z"/>
      <path class="cls-4" d="M353.21,596.55c-.62.55-1.54.81-2.44.81-2.18,0-3.39-1.23-3.39-3.37v-7h-2.07v-1.32h2.07v-2.53h1.56v2.53h3.52v1.32h-3.52v6.91c0,1.36.7,2.11,2,2.11.64,0,1.28-.2,1.72-.59l.55,1.12Z"/>
      <path class="cls-4" d="M360.78,589.55c0-4.51,3.43-7.83,8.07-7.83,2.25,0,4.27.75,5.63,2.24l-1.03,1.03c-1.25-1.28-2.79-1.83-4.55-1.83-3.72,0-6.51,2.73-6.51,6.38s2.79,6.38,6.51,6.38c1.76,0,3.3-.55,4.55-1.85l1.03,1.03c-1.36,1.5-3.39,2.27-5.65,2.27-4.62,0-8.05-3.32-8.05-7.83Z"/>
      <path class="cls-4" d="M377.63,580.92h1.56v16.33h-1.56v-16.33Z"/>
      <path class="cls-4" d="M382.38,591.46c0-3.43,2.51-5.88,5.9-5.88s5.88,2.44,5.88,5.88-2.49,5.9-5.88,5.9-5.9-2.46-5.9-5.9ZM392.57,591.46c0-2.71-1.83-4.51-4.29-4.51s-4.31,1.8-4.31,4.51,1.85,4.51,4.31,4.51,4.29-1.8,4.29-4.51Z"/>
      <path class="cls-4" d="M407.77,585.68v11.57h-1.5v-2.11c-.81,1.41-2.31,2.22-4.16,2.22-2.95,0-4.88-1.65-4.88-4.97v-6.71h1.56v6.56c0,2.46,1.28,3.72,3.48,3.72,2.42,0,3.94-1.56,3.94-4.2v-6.07h1.56Z"/>
      <path class="cls-4" d="M422.71,580.92v16.33h-1.5v-2.29c-.95,1.56-2.55,2.4-4.47,2.4-3.3,0-5.76-2.4-5.76-5.9s2.46-5.88,5.76-5.88c1.85,0,3.43.79,4.4,2.29v-6.95h1.56ZM421.17,591.46c0-2.71-1.85-4.51-4.29-4.51s-4.31,1.8-4.31,4.51,1.85,4.51,4.31,4.51,4.29-1.8,4.29-4.51Z"/>
    </g>
  </g>
</svg>