<?xml version="1.0" encoding="UTF-8"?>
<svg xmlns="http://www.w3.org/2000/svg" xmlns:xlink="http://www.w3.org/1999/xlink" viewBox="0 0 640 480">
  <defs>
    <style>
      .cls-1 {
        fill: #cfd8dc;
      }

      .cls-2 {
        fill: #ffc107;
      }

      .cls-3 {
        fill: url(#linear-gradient-2);
      }

      .cls-4 {
        filter: url(#drop-shadow-9);
      }

      .cls-5 {
        fill: #006cff;
      }

      .cls-6 {
        filter: url(#drop-shadow-6);
      }

      .cls-7 {
        fill: #023fff;
      }

      .cls-8 {
        filter: url(#drop-shadow-5);
      }

      .cls-9, .cls-10, .cls-11, .cls-12 {
        fill: #fff;
      }

      .cls-13 {
        fill: #fb0;
      }

      .cls-14 {
        fill: #0500bf;
      }

      .cls-15 {
        fill: #2196f3;
      }

      .cls-10 {
        filter: url(#drop-shadow-3);
      }

      .cls-10, .cls-16, .cls-17, .cls-18, .cls-12 {
        stroke-miterlimit: 10;
      }

      .cls-10, .cls-17, .cls-18, .cls-12 {
        stroke-width: 2px;
      }

      .cls-10, .cls-18, .cls-12 {
        stroke: #023fff;
      }

      .cls-19 {
        filter: url(#drop-shadow-8);
      }

      .cls-20 {
        filter: url(#drop-shadow-4);
      }

      .cls-21 {
        filter: url(#drop-shadow-7);
      }

      .cls-22 {
        fill: url(#linear-gradient-3);
      }

      .cls-23 {
        fill: #eeb715;
      }

      .cls-24 {
        isolation: isolate;
      }

      .cls-25 {
        fill: #326de6;
      }

      .cls-26 {
        filter: url(#drop-shadow-10);
      }

      .cls-11 {
        filter: url(#drop-shadow-1);
      }

      .cls-27 {
        mix-blend-mode: multiply;
        opacity: .2;
      }

      .cls-28 {
        fill: #bf360c;
      }

      .cls-29 {
        fill: #efefef;
      }

      .cls-30 {
        fill: #f9a825;
      }

      .cls-31 {
        fill: #1976d2;
      }

      .cls-32 {
        fill: #f90;
      }

      .cls-16 {
        stroke-width: .75px;
      }

      .cls-16, .cls-17 {
        stroke: #0500bf;
      }

      .cls-16, .cls-17, .cls-18 {
        fill: none;
      }

      .cls-33 {
        fill: #0078d4;
      }

      .cls-12 {
        filter: url(#drop-shadow-2);
      }

      .cls-34 {
        fill: url(#linear-gradient);
      }

      .cls-35 {
        fill: #dd2c00;
      }
    </style>
    <filter id="drop-shadow-1" x="17.72" y="143.32" width="219.12" height="206.64" filterUnits="userSpaceOnUse">
      <feOffset dx="1" dy="1"/>
      <feGaussianBlur result="blur" stdDeviation="1"/>
      <feFlood flood-color="#000" flood-opacity=".08"/>
      <feComposite in2="blur" operator="in"/>
      <feComposite in="SourceGraphic"/>
    </filter>
    <filter id="drop-shadow-2" x="518.1" y="166.2" width="60.53" height="53.55" filterUnits="userSpaceOnUse">
      <feOffset dx="-1" dy="1"/>
      <feGaussianBlur result="blur-2" stdDeviation="4"/>
      <feFlood flood-color="#000" flood-opacity=".2"/>
      <feComposite in2="blur-2" operator="in"/>
      <feComposite in="SourceGraphic"/>
    </filter>
    <filter id="drop-shadow-3" x="519.18" y="328.29" width="60.53" height="53.55" filterUnits="userSpaceOnUse">
      <feOffset dx="-1" dy="1"/>
      <feGaussianBlur result="blur-3" stdDeviation="4"/>
      <feFlood flood-color="#000" flood-opacity=".2"/>
      <feComposite in2="blur-3" operator="in"/>
      <feComposite in="SourceGraphic"/>
    </filter>
    <filter id="drop-shadow-4" x="445.76" y="45.36" width="106.56" height="104.64" filterUnits="userSpaceOnUse">
      <feOffset dx="-1" dy="1"/>
      <feGaussianBlur result="blur-4" stdDeviation="4"/>
      <feFlood flood-color="#000" flood-opacity=".2"/>
      <feComposite in2="blur-4" operator="in"/>
      <feComposite in="SourceGraphic"/>
    </filter>
    <filter id="drop-shadow-5" x="445.76" y="208.32" width="106.56" height="104.64" filterUnits="userSpaceOnUse">
      <feOffset dx="-1" dy="1"/>
      <feGaussianBlur result="blur-5" stdDeviation="4"/>
      <feFlood flood-color="#000" flood-opacity=".2"/>
      <feComposite in2="blur-5" operator="in"/>
      <feComposite in="SourceGraphic"/>
    </filter>
    <filter id="drop-shadow-6" x="445.76" y="371.28" width="106.56" height="104.64" filterUnits="userSpaceOnUse">
      <feOffset dx="-1" dy="1"/>
      <feGaussianBlur result="blur-6" stdDeviation="4"/>
      <feFlood flood-color="#000" flood-opacity=".2"/>
      <feComposite in2="blur-6" operator="in"/>
      <feComposite in="SourceGraphic"/>
    </filter>
    <filter id="drop-shadow-7" x="513.68" y="161.28" width="71.76" height="65.76" filterUnits="userSpaceOnUse">
      <feOffset dx="-1" dy="1"/>
      <feGaussianBlur result="blur-7" stdDeviation="4"/>
      <feFlood flood-color="#000" flood-opacity=".2"/>
      <feComposite in2="blur-7" operator="in"/>
      <feComposite in="SourceGraphic"/>
    </filter>
    <filter id="drop-shadow-8" x="513.68" y="321.12" width="71.76" height="69.12" filterUnits="userSpaceOnUse">
      <feOffset dx="-1" dy="1"/>
      <feGaussianBlur result="blur-8" stdDeviation="4"/>
      <feFlood flood-color="#000" flood-opacity=".2"/>
      <feComposite in2="blur-8" operator="in"/>
      <feComposite in="SourceGraphic"/>
    </filter>
    <linearGradient id="linear-gradient" x1="-856.21" y1="-305.96" x2="-870.96" y2="-349.54" gradientTransform="translate(2017.19 -87.5) scale(1.56 -1.56)" gradientUnits="userSpaceOnUse">
      <stop offset="0" stop-color="#114a8b"/>
      <stop offset="1" stop-color="#0669bc"/>
    </linearGradient>
    <linearGradient id="linear-gradient-2" x1="-851.6" y1="-326.27" x2="-855.02" y2="-327.42" gradientTransform="translate(2017.19 -87.5) scale(1.56 -1.56)" gradientUnits="userSpaceOnUse">
      <stop offset="0" stop-color="#000" stop-opacity=".3"/>
      <stop offset=".07" stop-color="#000" stop-opacity=".2"/>
      <stop offset=".32" stop-color="#000" stop-opacity=".1"/>
      <stop offset=".62" stop-color="#000" stop-opacity=".05"/>
      <stop offset="1" stop-color="#000" stop-opacity="0"/>
    </linearGradient>
    <linearGradient id="linear-gradient-3" x1="-853.38" y1="-304.65" x2="-837.18" y2="-347.79" gradientTransform="translate(2017.19 -87.5) scale(1.56 -1.56)" gradientUnits="userSpaceOnUse">
      <stop offset="0" stop-color="#3ccbf4"/>
      <stop offset="1" stop-color="#2892df"/>
    </linearGradient>
    <filter id="drop-shadow-9" x="31.4" y="304.36" width="192.24" height="29.76" filterUnits="userSpaceOnUse">
      <feOffset dx="1" dy="1"/>
      <feGaussianBlur result="blur-9" stdDeviation="1"/>
      <feFlood flood-color="#000" flood-opacity=".08"/>
      <feComposite in2="blur-9" operator="in"/>
      <feComposite in="SourceGraphic"/>
    </filter>
    <filter id="drop-shadow-10" x="62.36" y="150.6" width="129.84" height="150.96" filterUnits="userSpaceOnUse">
      <feOffset dx="1" dy="1"/>
      <feGaussianBlur result="blur-10" stdDeviation="1"/>
      <feFlood flood-color="#000" flood-opacity=".1"/>
      <feComposite in2="blur-10" operator="in"/>
      <feComposite in="SourceGraphic"/>
    </filter>
  </defs>
  <g class="cls-24">
    <g id="Layer_1" data-name="Layer 1">
      <rect class="cls-11" x="19.74" y="145.44" width="213.04" height="200.36"/>
      <g>
        <rect class="cls-29" x="420.64" y="4" width="158.89" height="149.43"/>
        <rect class="cls-29" x="420.64" y="165.78" width="158.89" height="149.43"/>
        <rect class="cls-29" x="420.64" y="327.57" width="158.89" height="149.43"/>
      </g>
      <g>
        <g>
          <line class="cls-17" x1="389.33" y1="241.45" x2="249.81" y2="241.45"/>
          <polygon class="cls-14" points="385.37 235.64 407.05 241.45 385.37 247.26 385.37 235.64"/>
        </g>
        <g>
          <path class="cls-17" d="M403.25,77.87h-74.82v158.9c0,1.08-.47,2.1-1.28,2.81l-2.52,2.19,2.24,1.59c.98.7,1.56,1.83,1.56,3.03v157.38h60.9"/>
          <polygon class="cls-14" points="385.37 409.58 407.05 403.77 385.37 397.96 385.37 409.58"/>
        </g>
        <polygon class="cls-14" points="392.93 73.93 392.93 81.94 407.05 77.73 392.93 73.93"/>
        <circle class="cls-13" cx="249.63" cy="241.45" r="5.07"/>
      </g>
      <g>
        <rect class="cls-13" x="253.56" y="213.49" width="69.52" height="20.29"/>
        <g>
          <path d="M266.58,217.12c.23,0,.35.12.35.35v1.55c0,.24-.12.36-.35.36h-7.05c-.41,0-.75.03-1.02.1-.27.07-.48.19-.64.35-.16.16-.27.38-.34.66-.07.27-.1.62-.1,1.05v2.25c0,.42.03.77.1,1.05.07.28.18.5.34.67.16.16.37.28.64.35.27.07.61.1,1.02.1h7.05c.23,0,.35.12.35.35v1.55c0,.23-.12.35-.35.35h-7.15c-.8,0-1.48-.07-2.04-.22-.56-.15-1.02-.39-1.37-.72-.35-.33-.61-.77-.78-1.3-.16-.53-.25-1.18-.25-1.94v-2.73c0-.76.08-1.41.25-1.93.16-.53.42-.96.78-1.29.35-.33.81-.58,1.37-.73.56-.15,1.24-.23,2.04-.23h7.15Z"/>
          <path d="M276.74,219.51c.19,0,.29.09.29.29v1.33c0,.19-.1.29-.29.29h-4.22c-.34,0-.62.03-.84.09s-.4.15-.53.29c-.13.13-.22.31-.28.54-.05.23-.08.5-.08.83v4.71c0,.23-.12.35-.35.35h-1.55c-.24,0-.36-.12-.36-.35v-5.14c0-.57.06-1.06.19-1.47.13-.41.34-.74.63-1,.29-.26.68-.45,1.16-.57s1.08-.18,1.8-.18h4.44Z"/>
          <path d="M286.36,219.51c.54,0,.99.04,1.34.13s.63.24.84.44.35.48.44.81.13.74.13,1.21v1.51c0,.34-.07.57-.22.71-.15.13-.38.2-.68.2h-8v.38c0,.5.12.86.36,1.08.24.22.7.33,1.39.33h6.61c.19,0,.29.1.29.29v1.33c0,.19-.1.29-.29.29h-6.83c-.72,0-1.32-.06-1.8-.17-.48-.12-.87-.3-1.16-.56-.29-.26-.5-.59-.63-1-.13-.41-.19-.9-.19-1.47v-2.28c0-.57.06-1.06.19-1.47.13-.41.33-.74.63-1,.29-.26.68-.45,1.16-.57.48-.12,1.08-.18,1.8-.18h4.64ZM280.19,223.11h6.42c.18,0,.27-.09.27-.27v-.67c0-.33-.07-.56-.21-.7-.14-.14-.39-.21-.76-.21h-3.98c-.69,0-1.15.11-1.39.33-.24.22-.36.58-.36,1.09v.43Z"/>
          <path d="M297.83,219.51c.71,0,1.31.06,1.79.18s.87.31,1.17.57.5.59.63,1c.13.41.19.9.19,1.47v4.22c0,.25-.02.46-.06.63-.04.16-.1.29-.19.39-.09.09-.21.16-.36.2-.15.04-.34.06-.57.06h-7.55c-.46,0-.85-.04-1.17-.13s-.56-.22-.75-.4c-.19-.18-.32-.41-.4-.7-.08-.29-.12-.62-.12-1.01v-.76c0-.33.04-.62.12-.88.08-.26.21-.48.4-.66.19-.18.44-.31.75-.4.31-.09.7-.13,1.17-.13h6.45v-.3c0-.25-.03-.47-.08-.65-.05-.18-.14-.32-.27-.44-.13-.11-.3-.19-.52-.25-.22-.05-.51-.08-.86-.08h-6.63c-.19,0-.29-.1-.29-.29v-1.33c0-.19.1-.29.29-.29h6.85ZM298.88,226.47c.17,0,.29-.04.36-.12.07-.08.1-.22.1-.42v-1.39h-5.8c-.33,0-.56.07-.69.2-.13.13-.2.33-.2.58v.33c0,.29.07.49.2.63.13.13.36.2.69.2h5.34Z"/>
          <path d="M304.36,219.51v-2.09c0-.23.12-.35.35-.35h1.57c.23,0,.35.12.35.35v2.09h2.77c.19,0,.29.09.29.29v1.3c0,.19-.1.29-.29.29h-2.77v3.68c0,.44.09.77.27.97s.53.31,1.06.31h1.54c.19,0,.29.1.29.29v1.3c0,.19-.1.29-.29.29h-1.92c-.63,0-1.16-.06-1.57-.17s-.74-.3-.99-.55c-.25-.25-.42-.58-.52-.98-.09-.4-.14-.88-.14-1.44v-3.68h-1.51c-.19,0-.29-.09-.29-.29v-1.3c0-.19.1-.29.29-.29h1.51Z"/>
          <path d="M319.14,219.51c.54,0,.99.04,1.34.13s.63.24.84.44c.21.21.35.48.44.81s.13.74.13,1.21v1.51c0,.34-.07.57-.22.71-.15.13-.38.2-.68.2h-8v.38c0,.5.12.86.36,1.08.24.22.7.33,1.39.33h6.61c.19,0,.29.1.29.29v1.33c0,.19-.1.29-.29.29h-6.83c-.72,0-1.32-.06-1.8-.17-.48-.12-.87-.3-1.16-.56-.29-.26-.5-.59-.63-1-.13-.41-.19-.9-.19-1.47v-2.28c0-.57.06-1.06.19-1.47.13-.41.33-.74.63-1,.29-.26.68-.45,1.16-.57.48-.12,1.08-.18,1.8-.18h4.64ZM312.97,223.11h6.42c.18,0,.27-.09.27-.27v-.67c0-.33-.07-.56-.21-.7-.14-.14-.39-.21-.76-.21h-3.98c-.69,0-1.15.11-1.39.33-.24.22-.36.58-.36,1.09v.43Z"/>
        </g>
      </g>
      <g>
        <rect class="cls-13" x="239.9" y="255.57" width="83.06" height="20.29"/>
        <g>
          <path d="M243.48,259.2c.23,0,.43.02.6.05.17.03.32.09.44.18.13.09.24.21.34.36.1.15.2.36.31.61l3.3,7.61c.04.1.12.14.22.14h.19c.11,0,.18-.05.22-.14l3.3-7.61c.11-.25.21-.46.31-.61.1-.15.21-.27.34-.36.13-.09.27-.15.44-.18.16-.03.36-.05.59-.05h1.7c.55,0,.92.12,1.11.37.19.25.29.67.29,1.28v9.1c0,.23-.12.35-.36.35h-1.62c-.23,0-.35-.12-.35-.35v-8.27c0-.11-.04-.16-.13-.16h-.14c-.11,0-.17.04-.21.13l-3.2,7.1c-.13.29-.26.53-.39.72-.13.2-.27.36-.43.48s-.33.22-.52.27c-.2.05-.43.08-.69.08h-.76c-.26,0-.49-.03-.69-.08-.2-.05-.37-.14-.52-.27-.15-.13-.3-.29-.43-.48-.13-.2-.26-.44-.39-.72l-3.2-7.1c-.03-.08-.1-.13-.21-.13h-.14c-.08,0-.13.05-.13.16v8.27c0,.23-.12.35-.35.35h-1.62c-.24,0-.36-.12-.36-.35v-9.1c0-.6.09-1.03.29-1.28.19-.25.56-.37,1.13-.37h1.73Z"/>
          <path d="M266.26,261.59c.71,0,1.31.06,1.79.18s.87.31,1.17.57.5.59.63,1c.13.41.19.9.19,1.47v4.22c0,.25-.02.46-.06.63-.04.16-.1.29-.19.39-.09.09-.21.16-.36.2-.15.04-.34.06-.57.06h-7.55c-.46,0-.85-.04-1.17-.13s-.56-.22-.75-.4c-.19-.18-.32-.41-.4-.7-.08-.29-.12-.62-.12-1.01v-.76c0-.33.04-.62.12-.88.08-.26.21-.48.4-.66.19-.18.44-.31.75-.4.31-.09.7-.13,1.17-.13h6.45v-.3c0-.25-.03-.47-.08-.65-.05-.18-.14-.32-.27-.44-.13-.11-.3-.19-.52-.25-.22-.05-.51-.08-.86-.08h-6.63c-.19,0-.29-.1-.29-.29v-1.33c0-.19.1-.29.29-.29h6.85ZM267.3,268.55c.17,0,.29-.04.36-.12.07-.08.1-.22.1-.42v-1.39h-5.8c-.33,0-.56.07-.69.2-.13.13-.2.33-.2.58v.33c0,.29.07.49.2.63.13.13.36.2.69.2h5.34Z"/>
          <path d="M280,261.59c.71,0,1.31.06,1.79.18.49.12.87.31,1.17.57s.5.59.63,1c.13.41.19.9.19,1.47v5.14c0,.23-.12.35-.35.35h-1.55c-.23,0-.35-.12-.35-.35v-4.6c0-.33-.02-.6-.06-.83-.04-.23-.12-.41-.25-.54-.12-.13-.29-.23-.5-.29s-.49-.09-.82-.09h-4.22c-.34,0-.62.03-.84.09s-.4.15-.53.29c-.13.13-.22.31-.28.54-.05.23-.08.5-.08.83v4.6c0,.23-.12.35-.35.35h-1.55c-.24,0-.36-.12-.36-.35v-5.14c0-.57.06-1.06.19-1.47.13-.41.34-.74.63-1,.29-.26.68-.45,1.16-.57s1.08-.18,1.8-.18h4.55Z"/>
          <path d="M292.78,261.59c.71,0,1.31.06,1.79.18s.87.31,1.17.57.5.59.63,1c.13.41.19.9.19,1.47v4.22c0,.25-.02.46-.06.63-.04.16-.1.29-.19.39-.09.09-.21.16-.36.2-.15.04-.34.06-.57.06h-7.55c-.46,0-.85-.04-1.17-.13s-.56-.22-.75-.4c-.19-.18-.32-.41-.4-.7-.08-.29-.12-.62-.12-1.01v-.76c0-.33.04-.62.12-.88.08-.26.21-.48.4-.66.19-.18.44-.31.75-.4.31-.09.7-.13,1.17-.13h6.45v-.3c0-.25-.03-.47-.08-.65-.05-.18-.14-.32-.27-.44-.13-.11-.3-.19-.52-.25-.22-.05-.51-.08-.86-.08h-6.63c-.19,0-.29-.1-.29-.29v-1.33c0-.19.1-.29.29-.29h6.85ZM293.82,268.55c.17,0,.29-.04.36-.12.07-.08.1-.22.1-.42v-1.39h-5.8c-.33,0-.56.07-.69.2-.13.13-.2.33-.2.58v.33c0,.29.07.49.2.63.13.13.36.2.69.2h5.34Z"/>
          <path d="M306.31,261.59c.72,0,1.32.06,1.8.18.48.12.87.31,1.17.56.3.25.5.58.63.99.12.41.18.9.18,1.47v5.77c0,.58-.06,1.08-.18,1.48-.12.41-.33.74-.63,1-.3.26-.68.45-1.17.57-.48.12-1.08.18-1.8.18h-7.47c-.19,0-.29-.09-.29-.29v-1.33c0-.19.1-.29.29-.29h7.24c.35,0,.63-.03.86-.09.22-.06.4-.15.53-.29.13-.13.22-.31.28-.54s.08-.51.08-.85v-.41h-5.96c-.72,0-1.32-.06-1.8-.18-.48-.12-.87-.31-1.16-.57-.29-.26-.5-.59-.63-1-.13-.41-.19-.9-.19-1.48v-1.66c0-.58.06-1.08.19-1.48.13-.41.33-.74.63-1,.29-.26.68-.45,1.16-.57.48-.12,1.08-.18,1.8-.18h4.44ZM300.37,266.47c0,.27.03.5.08.69.05.18.15.34.28.46.13.12.31.21.53.26.22.05.5.08.84.08h5.74v-2.96c0-.56-.12-.96-.36-1.19s-.7-.35-1.39-.35h-3.99c-.34,0-.62.03-.84.08-.22.05-.4.14-.53.26-.13.12-.22.28-.28.47-.05.19-.08.42-.08.68v1.52Z"/>
          <path d="M320.12,261.59c.54,0,.99.04,1.34.13s.63.24.84.44c.21.21.35.48.44.81.08.33.13.74.13,1.21v1.51c0,.34-.07.57-.22.71-.15.13-.38.2-.68.2h-8v.38c0,.5.12.86.36,1.08.24.22.7.33,1.39.33h6.61c.19,0,.29.1.29.29v1.33c0,.19-.1.29-.29.29h-6.83c-.72,0-1.32-.06-1.8-.17-.48-.12-.87-.3-1.16-.56-.29-.26-.5-.59-.63-1-.13-.41-.19-.9-.19-1.47v-2.28c0-.57.06-1.06.19-1.47.13-.41.33-.74.63-1,.29-.26.68-.45,1.16-.57.48-.12,1.08-.18,1.8-.18h4.64ZM313.95,265.19h6.42c.18,0,.27-.09.27-.27v-.67c0-.33-.07-.56-.21-.7-.14-.14-.39-.21-.76-.21h-3.98c-.69,0-1.15.11-1.39.33-.24.22-.36.58-.36,1.09v.43Z"/>
        </g>
      </g>
      <rect class="cls-13" x="587.98" y="80.72" width="32.34" height="320.83"/>
      <g>
        <path d="M596.85,382.46c0-.96.1-1.78.29-2.47s.5-1.25.91-1.69c.41-.44.93-.76,1.56-.97.63-.21,1.38-.31,2.25-.31h2.41c.86,0,1.61.1,2.25.31.63.21,1.15.53,1.56.97s.71,1,.91,1.69.29,1.51.29,2.47v8.31c0,.35-.18.53-.53.53h-11.36c-.36,0-.53-.18-.53-.53v-8.31ZM606.58,388.58c.15,0,.23-.08.23-.23v-5.82c0-.52-.05-.96-.14-1.31-.09-.35-.25-.64-.46-.86-.21-.22-.5-.38-.85-.47-.35-.09-.79-.14-1.31-.14h-1.95c-.52,0-.96.05-1.31.14s-.64.25-.85.47c-.21.22-.37.51-.46.86-.09.36-.14.79-.14,1.31v5.82c0,.15.08.23.25.23h7.01Z"/>
        <path d="M599.53,365.77c0-.79.07-1.46.21-2.01.14-.54.35-.98.64-1.3s.66-.56,1.12-.7c.46-.14,1-.21,1.64-.21h2.56c.64,0,1.19.07,1.64.21.46.14.83.38,1.12.7s.5.76.63,1.3c.13.54.2,1.21.2,2.01v5.02c0,.81-.06,1.48-.2,2.02-.13.54-.34.97-.63,1.3-.29.33-.66.56-1.12.7-.46.14-1,.21-1.64.21h-2.56c-.64,0-1.19-.07-1.64-.21-.46-.14-.83-.38-1.12-.7-.29-.33-.5-.76-.64-1.3-.14-.54-.21-1.21-.21-2.02v-5.02ZM605.25,372.48c.38,0,.69-.03.94-.09.25-.06.45-.16.59-.31.15-.15.25-.35.32-.59.07-.25.1-.56.1-.94v-4.53c0-.39-.03-.71-.1-.96-.06-.25-.17-.45-.32-.59-.15-.15-.35-.25-.59-.31-.25-.06-.56-.09-.94-.09h-1.69c-.37,0-.67.03-.92.09-.25.06-.45.16-.6.31-.15.15-.26.35-.32.59-.06.25-.09.57-.09.96v4.53c0,.38.03.69.09.94.06.25.17.45.32.59.15.15.35.25.6.31.25.06.56.09.92.09h1.69Z"/>
        <path d="M599.53,358.26c0-.21.1-.35.28-.41l7.3-2.29c.08-.04.12-.09.12-.18v-.07c0-.11-.04-.17-.12-.18l-6.73-2.4c-.32-.12-.54-.26-.67-.42-.12-.16-.19-.4-.19-.72v-2.11c0-.32.06-.56.19-.72.12-.16.35-.3.67-.42l6.73-2.38c.08-.01.12-.07.12-.18v-.07c0-.08-.04-.14-.12-.18l-7.3-2.31c-.19-.04-.28-.17-.28-.41v-2.01c0-.15.04-.25.12-.29s.18-.04.31,0l8.22,2.7c.45.14.75.31.89.51.14.2.21.48.21.86v2.24c0,.31-.08.54-.24.71-.16.17-.45.33-.86.48l-6.48,2.34c-.07.02-.11.08-.11.16v.11c0,.09.04.15.11.16l6.48,2.33c.41.15.7.31.86.48.16.17.24.4.24.71v2.24c0,.38-.07.67-.21.86-.14.2-.44.36-.89.51l-8.22,2.66c-.13.04-.23.04-.31,0-.08-.04-.12-.14-.12-.3v-2.01Z"/>
        <path d="M599.53,330.12c0-.79.07-1.46.21-2.01.14-.54.35-.98.64-1.31.29-.33.66-.56,1.12-.7.46-.14,1-.21,1.64-.21h5.75c.26,0,.39.13.39.39v1.74c0,.26-.13.39-.39.39h-5.15c-.37,0-.68.02-.93.07-.25.05-.46.14-.6.28-.15.14-.25.32-.32.56-.06.24-.1.54-.1.92v4.72c0,.38.03.69.1.94.07.25.17.45.32.59.15.15.35.25.6.31.25.06.56.09.93.09h5.15c.26,0,.39.13.39.39v1.74c0,.27-.13.41-.39.41h-5.75c-.64,0-1.19-.07-1.64-.21-.46-.14-.83-.38-1.12-.7-.29-.33-.5-.76-.64-1.3-.14-.54-.21-1.21-.21-2.02v-5.1Z"/>
        <path d="M599.53,312.46c0-.21.11-.32.32-.32h1.42c.21,0,.32.11.32.32v8.01c0,.37.07.62.2.76.14.14.33.21.59.21h.27c.24,0,.42-.07.56-.21.14-.14.2-.4.2-.76v-5.98c0-.99.21-1.7.62-2.13s1-.64,1.76-.64h.99c.39,0,.74.05,1.05.14.31.09.57.25.78.47.21.22.38.51.49.86.11.35.17.79.17,1.31v9.09c0,.21-.11.32-.32.32h-1.42c-.21,0-.32-.11-.32-.32v-8.42c0-.37-.06-.62-.2-.77-.13-.15-.35-.22-.66-.22h-.48c-.24,0-.42.07-.55.22-.13.15-.2.41-.2.77v5.97c0,.99-.2,1.7-.61,2.13-.41.43-1,.64-1.78.64h-.78c-.37,0-.7-.05-1-.14s-.56-.25-.77-.47c-.21-.22-.38-.51-.49-.86-.11-.35-.17-.79-.17-1.31v-8.66Z"/>
        <path d="M599.53,308.6h-2.34c-.26,0-.39-.13-.39-.39v-1.76c0-.26.13-.39.39-.39h2.34v-3.11c0-.21.11-.32.32-.32h1.46c.21,0,.32.11.32.32v3.11h4.12c.5,0,.86-.1,1.09-.3.23-.2.35-.6.35-1.19v-1.72c0-.21.11-.32.32-.32h1.46c.21,0,.32.11.32.32v2.15c0,.71-.06,1.3-.2,1.76-.13.46-.34.83-.62,1.11-.28.28-.65.47-1.1.58-.45.11-.99.16-1.62.16h-4.12v1.69c0,.21-.11.32-.32.32h-1.46c-.21,0-.32-.11-.32-.32v-1.69Z"/>
        <path d="M599.53,291.95c0-.21.11-.32.32-.32h1.49c.21,0,.32.11.32.32v4.72c0,.38.03.69.1.94.07.25.17.45.32.59.15.15.35.25.6.31.25.06.57.09.93.09h5.27c.26,0,.39.13.39.39v1.74c0,.27-.13.41-.39.41h-5.75c-.64,0-1.19-.07-1.64-.21-.46-.14-.83-.38-1.12-.7-.29-.33-.5-.76-.64-1.3-.14-.54-.21-1.21-.21-2.02v-4.97Z"/>
        <path d="M599.53,281.18c0-.6.05-1.1.15-1.5.1-.4.27-.71.5-.94.23-.23.53-.39.91-.49s.83-.14,1.36-.14h1.69c.38,0,.64.08.79.25.15.17.22.42.22.76v8.97h.43c.56,0,.96-.13,1.21-.4.25-.27.37-.78.37-1.55v-7.4c0-.21.11-.32.32-.32h1.49c.21,0,.32.11.32.32v7.65c0,.81-.06,1.48-.2,2.02-.13.54-.34.97-.63,1.3s-.66.56-1.12.7c-.46.14-1,.21-1.64.21h-2.56c-.64,0-1.19-.07-1.64-.21-.46-.14-.83-.38-1.12-.7s-.5-.76-.64-1.3c-.14-.54-.21-1.21-.21-2.02v-5.2ZM603.56,288.08v-7.19c0-.2-.1-.3-.3-.3h-.75c-.37,0-.63.08-.78.23-.15.15-.23.44-.23.85v4.46c0,.77.12,1.29.36,1.55.24.27.65.4,1.22.4h.48Z"/>
        <path d="M599.53,268.32c0-.79.07-1.46.21-2.01.14-.54.35-.98.64-1.31.29-.33.66-.56,1.12-.7.46-.14,1-.21,1.64-.21h4.72c.28,0,.52.02.7.06s.33.11.43.21c.11.1.18.23.22.4.04.17.06.38.06.64v8.45c0,.52-.05.96-.15,1.3-.1.35-.25.63-.45.84-.2.21-.46.36-.78.45-.32.09-.7.13-1.14.13h-.85c-.37,0-.7-.04-.99-.13-.29-.09-.54-.24-.74-.45-.2-.21-.35-.49-.45-.84-.1-.35-.15-.78-.15-1.3v-7.23h-.34c-.28,0-.53.03-.73.09s-.36.16-.49.3c-.12.14-.22.34-.28.59s-.09.57-.09.96v7.42c0,.21-.11.32-.32.32h-1.49c-.21,0-.32-.11-.32-.32v-7.67ZM607.33,267.15c0-.19-.04-.32-.13-.4-.09-.08-.25-.12-.47-.12h-1.56v6.5c0,.37.07.62.22.77.15.15.36.22.65.22h.37c.32,0,.55-.07.7-.22.15-.15.22-.41.22-.77v-5.98Z"/>
        <path d="M599.53,248.95c0-.79.07-1.46.21-2,.14-.54.35-.97.64-1.3.29-.33.66-.56,1.12-.7.46-.14,1-.2,1.64-.2h5.75c.26,0,.39.13.39.39v1.74c0,.26-.13.39-.39.39h-5.15c-.37,0-.68.02-.93.07-.25.05-.46.14-.6.27-.15.13-.25.31-.32.55-.06.24-.1.55-.1.94v3.12h7.1c.26,0,.39.14.39.41v1.74c0,.26-.13.39-.39.39h-7.1v3.02c0,.38.03.69.1.94.07.25.17.45.32.59.15.15.35.25.6.31.25.06.56.09.93.09h5.15c.26,0,.39.13.39.39v1.74c0,.27-.13.41-.39.41h-5.75c-.64,0-1.19-.07-1.64-.21-.46-.14-.83-.38-1.12-.7-.29-.33-.5-.76-.64-1.3-.14-.54-.21-1.21-.21-2.02v-9.07Z"/>
        <path d="M596.85,234.22c0-.26.13-.39.39-.39h4.72v-2.5c0-.28,0-.52-.03-.71-.02-.19-.06-.35-.12-.5-.06-.14-.14-.27-.25-.39-.11-.12-.24-.24-.41-.37l-4.08-3.05c-.08-.06-.14-.12-.18-.18s-.05-.17-.05-.34v-2.2c0-.15.05-.25.15-.27.1-.03.19-.01.28.04l4.46,3.44c.27.2.5.39.69.56s.35.34.5.51c.28-.46.71-.91,1.28-1.35l4.62-3.64c.06-.05.15-.06.28-.05s.19.11.19.28v2.27c0,.15-.02.26-.05.32-.04.06-.09.12-.18.18l-4.23,3.27c-.31.24-.52.49-.63.76-.11.27-.17.68-.17,1.23v2.7h4.86c.26,0,.39.13.39.39v1.92c0,.27-.13.41-.39.41h-11.65c-.26,0-.39-.14-.39-.41v-1.92Z"/>
        <path d="M596.85,211c0-1.22.24-2.09.73-2.6.49-.52,1.22-.77,2.2-.77h.85c1.03,0,1.79.37,2.29,1.1.45-.79,1.2-1.19,2.25-1.19h1.03c.47,0,.9.05,1.28.16.38.11.7.28.97.53.27.25.47.57.61.98.14.4.21.89.21,1.47v7.71c0,.59-.07,1.09-.21,1.48-.14.4-.35.72-.61.97-.27.25-.59.43-.97.53s-.8.16-1.28.16h-1.03c-1.05,0-1.81-.4-2.25-1.19-.5.73-1.26,1.1-2.29,1.1h-.85c-.5,0-.93-.06-1.3-.19-.37-.12-.67-.32-.91-.59-.24-.27-.42-.61-.54-1.04-.12-.43-.18-.95-.18-1.56v-7.07ZM600.99,218.86c.34,0,.61-.1.79-.31s.28-.61.28-1.2v-5.65c0-.59-.09-.99-.28-1.2s-.45-.31-.79-.31h-.66c-.37,0-.65.1-.84.3-.2.2-.29.54-.29,1.01v6.04c0,.47.1.81.29,1.01.2.2.48.3.84.3h.66ZM605.85,218.88c.38,0,.65-.1.83-.3s.26-.54.26-1.01v-6.07c0-.47-.08-.81-.26-1.02s-.45-.31-.83-.31h-.78c-.37,0-.64.11-.83.33-.19.22-.28.62-.28,1.22v5.65c0,.59.09.99.28,1.21.19.21.47.32.83.32h.78Z"/>
        <path d="M599.53,194.15c0-.21.11-.32.32-.32h1.42c.21,0,.32.11.32.32v8.01c0,.37.07.62.2.76.14.14.33.21.59.21h.27c.24,0,.42-.07.56-.21.14-.14.2-.4.2-.76v-5.98c0-.99.21-1.7.62-2.13s1-.64,1.76-.64h.99c.39,0,.74.05,1.05.14.31.09.57.25.78.47.21.22.38.51.49.86.11.35.17.79.17,1.31v9.09c0,.21-.11.32-.32.32h-1.42c-.21,0-.32-.11-.32-.32v-8.42c0-.37-.06-.62-.2-.77-.13-.15-.35-.22-.66-.22h-.48c-.24,0-.42.07-.55.22-.13.15-.2.41-.2.77v5.97c0,.99-.2,1.7-.61,2.13-.41.43-1,.64-1.78.64h-.78c-.37,0-.7-.05-1-.14s-.56-.25-.77-.47c-.21-.22-.38-.51-.49-.86-.11-.35-.17-.79-.17-1.31v-8.66Z"/>
        <path d="M596.85,172.65c0-.26.13-.39.39-.39h1.74c.27,0,.41.13.41.39v7.9c0,.46.04.84.12,1.15.08.3.21.54.39.72.18.18.43.31.74.38.31.08.7.12,1.17.12h2.52c.47,0,.87-.04,1.18-.12.31-.08.56-.2.75-.38.18-.18.31-.42.39-.72.08-.3.12-.68.12-1.15v-7.9c0-.26.13-.39.39-.39h1.74c.26,0,.39.13.39.39v8.01c0,.9-.08,1.66-.25,2.29-.17.63-.43,1.14-.81,1.54-.37.4-.86.69-1.46.87s-1.32.27-2.17.27h-3.05c-.85,0-1.57-.09-2.17-.27s-1.07-.47-1.45-.87-.64-.91-.82-1.54c-.17-.63-.26-1.39-.26-2.29v-8.01Z"/>
        <path d="M595.97,168.27c0-.26.13-.39.39-.39h12.53c.26,0,.39.13.39.39v1.74c0,.26-.13.39-.39.39h-12.53c-.26,0-.39-.13-.39-.39v-1.74Z"/>
        <path d="M599.53,163.53c0-.26.14-.39.41-.39h5.13c.38,0,.69-.02.94-.07.25-.05.45-.14.59-.27.15-.13.25-.31.32-.55.07-.24.1-.55.1-.94v-4.56c0-.39-.03-.71-.1-.96-.06-.25-.17-.45-.32-.59-.15-.15-.35-.25-.59-.31-.25-.06-.56-.09-.94-.09h-5.13c-.27,0-.41-.13-.41-.39v-1.74c0-.26.14-.39.41-.39h5.75c.64,0,1.19.07,1.64.21.46.14.83.38,1.12.7.29.33.5.76.63,1.3.13.54.2,1.21.2,2.01v4.95c0,.81-.06,1.48-.2,2.02-.13.54-.34.97-.63,1.3-.29.33-.66.56-1.12.7-.46.14-1,.21-1.64.21h-5.75c-.27,0-.41-.14-.41-.41v-1.74Z"/>
        <path d="M599.53,138.83c0-.21.11-.32.32-.32h1.42c.21,0,.32.11.32.32v8.01c0,.37.07.62.2.76.14.14.33.21.59.21h.27c.24,0,.42-.07.56-.21.14-.14.2-.4.2-.76v-5.98c0-.99.21-1.7.62-2.13s1-.64,1.76-.64h.99c.39,0,.74.05,1.05.14.31.09.57.25.78.47.21.22.38.51.49.86.11.35.17.79.17,1.31v9.09c0,.21-.11.32-.32.32h-1.42c-.21,0-.32-.11-.32-.32v-8.42c0-.37-.06-.62-.2-.77-.13-.15-.35-.22-.66-.22h-.48c-.24,0-.42.07-.55.22-.13.15-.2.41-.2.77v5.97c0,.99-.2,1.7-.61,2.13-.41.43-1,.64-1.78.64h-.78c-.37,0-.7-.05-1-.14s-.56-.25-.77-.47c-.21-.22-.38-.51-.49-.86-.11-.35-.17-.79-.17-1.31v-8.66Z"/>
        <path d="M599.53,134.98h-2.34c-.26,0-.39-.13-.39-.39v-1.76c0-.26.13-.39.39-.39h2.34v-3.11c0-.21.11-.32.32-.32h1.46c.21,0,.32.11.32.32v3.11h4.12c.5,0,.86-.1,1.09-.3.23-.2.35-.6.35-1.19v-1.72c0-.21.11-.32.32-.32h1.46c.21,0,.32.11.32.32v2.15c0,.71-.06,1.3-.2,1.76-.13.46-.34.83-.62,1.11-.28.28-.65.47-1.1.58-.45.11-.99.16-1.62.16h-4.12v1.69c0,.21-.11.32-.32.32h-1.46c-.21,0-.32-.11-.32-.32v-1.69Z"/>
        <path d="M599.53,118.43c0-.6.05-1.1.15-1.5.1-.4.27-.71.5-.94.23-.23.53-.39.91-.49s.83-.14,1.36-.14h1.69c.38,0,.64.08.79.25.15.17.22.42.22.76v8.97h.43c.56,0,.96-.13,1.21-.4.25-.27.37-.78.37-1.55v-7.4c0-.21.11-.32.32-.32h1.49c.21,0,.32.11.32.32v7.65c0,.81-.06,1.48-.2,2.02-.13.54-.34.97-.63,1.3s-.66.56-1.12.7c-.46.14-1,.21-1.64.21h-2.56c-.64,0-1.19-.07-1.64-.21-.46-.14-.83-.38-1.12-.7s-.5-.76-.64-1.3c-.14-.54-.21-1.21-.21-2.02v-5.2ZM603.56,125.34v-7.19c0-.2-.1-.3-.3-.3h-.75c-.37,0-.63.08-.78.23-.15.15-.23.44-.23.85v4.46c0,.77.12,1.29.36,1.55.24.27.65.4,1.22.4h.48Z"/>
        <path d="M599.53,104.32c0-.21.11-.32.32-.32h1.49c.21,0,.32.11.32.32v4.72c0,.38.03.69.1.94.07.25.17.45.32.59.15.15.35.25.6.31.25.06.57.09.93.09h5.27c.26,0,.39.13.39.39v1.74c0,.27-.13.41-.39.41h-5.75c-.64,0-1.19-.07-1.64-.21-.46-.14-.83-.38-1.12-.7-.29-.33-.5-.76-.64-1.3-.14-.54-.21-1.21-.21-2.02v-4.97Z"/>
        <path d="M599.53,91.34c0-.21.11-.32.32-.32h1.42c.21,0,.32.11.32.32v8.01c0,.37.07.62.2.76.14.14.33.21.59.21h.27c.24,0,.42-.07.56-.21.14-.14.2-.4.2-.76v-5.98c0-.99.21-1.7.62-2.13s1-.64,1.76-.64h.99c.39,0,.74.05,1.05.14.31.09.57.25.78.47.21.22.38.51.49.86.11.35.17.79.17,1.31v9.09c0,.21-.11.32-.32.32h-1.42c-.21,0-.32-.11-.32-.32v-8.42c0-.37-.06-.62-.2-.77-.13-.15-.35-.22-.66-.22h-.48c-.24,0-.42.07-.55.22-.13.15-.2.41-.2.77v5.97c0,.99-.2,1.7-.61,2.13-.41.43-1,.64-1.78.64h-.78c-.37,0-.7-.05-1-.14s-.56-.25-.77-.47c-.21-.22-.38-.51-.49-.86-.11-.35-.17-.79-.17-1.31v-8.66Z"/>
      </g>
      <g>
        <image class="cls-27" width="353" height="324" transform="translate(507.2 -7.44) scale(.24)" xlink:href="EvoCloudMultiCloud-1.png"/>
        <g>
          <path class="cls-9" d="M579.92,56.29h-20.76c-20.86,0-37.77-16.91-37.77-37.77V4.74h58.53v51.55Z"/>
          <path class="cls-18" d="M579.92,56.29h-20.76c-20.86,0-37.77-16.91-37.77-37.77V4.74h58.53v51.55Z"/>
        </g>
      </g>
      <path class="cls-12" d="M519.1,167.2h58.53v51.55h-20.76c-20.84,0-37.77-16.92-37.77-37.77v-13.78h0Z"/>
      <path class="cls-10" d="M520.18,329.29h58.53v51.55h-20.76c-20.84,0-37.77-16.92-37.77-37.77v-13.78h0Z"/>
      <g class="cls-20">
        <path class="cls-25" d="M485.1,135.51c-1.94.01-3.78-.87-4.98-2.4l-18.64-23.19c-1.23-1.52-1.68-3.53-1.22-5.43l6.64-28.95c.43-1.9,1.72-3.5,3.49-4.31l26.97-12.91c1.75-.85,3.8-.85,5.55,0l26.98,12.85c1.76.83,3.04,2.42,3.46,4.32l6.64,28.94c.44,1.91-.01,3.91-1.23,5.44l-18.59,23.19c-1.22,1.51-3.04,2.39-4.98,2.41l-30.07.05h-.02Z"/>
        <path class="cls-9" d="M500.08,59.01c.76,0,1.5.16,2.19.48l27.02,12.84c1.4.68,2.41,1.96,2.77,3.47l6.64,28.95c.36,1.53-.02,3.14-1.03,4.34l-18.66,23.23c-.97,1.22-2.44,1.93-4,1.92h-29.91c-1.56,0-3.03-.7-4-1.92l-18.66-23.23c-.96-1.23-1.33-2.81-1.01-4.34l6.64-28.95c.35-1.52,1.37-2.79,2.77-3.47l27-12.9c.72-.27,1.47-.42,2.24-.42ZM500.08,56.52h0c-1.15,0-2.28.26-3.32.75l-26.96,12.88c-2.11.99-3.64,2.9-4.15,5.17l-6.64,28.95c-.55,2.26-.03,4.65,1.42,6.48l18.66,23.23c1.44,1.79,3.62,2.83,5.91,2.82h29.94c2.3.01,4.48-1.03,5.92-2.82l18.66-23.23c1.48-1.82,2.04-4.22,1.49-6.5l-6.64-28.95c-.52-2.27-2.04-4.17-4.15-5.17l-26.91-12.87c-1.02-.49-2.13-.74-3.25-.75v.02Z"/>
        <path class="cls-9" d="M527.11,102.45h-.05s-.11,0-.11-.05-.21-.05-.32-.05c-.33-.06-.67-.1-1.01-.11-.18,0-.36-.01-.54-.06h-.05c-.97-.05-1.94-.21-2.88-.47-.27-.11-.48-.32-.59-.59,0-.06-.05-.06-.05-.11h0l-.7-.22c.32-2.49.2-5.02-.37-7.47-.58-2.48-1.59-4.85-2.99-6.98l.54-.48v-.1c-.02-.3.07-.6.27-.83.74-.63,1.55-1.18,2.4-1.66h0c.16-.11.32-.16.48-.27.31-.16.61-.34.9-.53.05-.06.16-.11.27-.22s.11-.06.11-.11h0c.73-.58.9-1.62.37-2.4-.29-.38-.75-.6-1.23-.59-.43.01-.84.16-1.17.42h0l-.11.11c-.11.06-.16.17-.27.22-.25.24-.48.49-.7.75-.11.14-.23.26-.37.37h0c-.63.71-1.34,1.35-2.11,1.91-.14.1-.31.16-.48.17-.11,0-.22-.01-.32-.06h-.11l-.64.43c-.69-.72-1.42-1.39-2.19-2.03-3.23-2.52-7.12-4.06-11.2-4.42v-.7l-.11-.1c-.22-.17-.38-.42-.43-.7-.02-.96.04-1.92.17-2.88v-.07c0-.18.04-.37.11-.54l.16-1.01v-.48h0c.02-.92-.7-1.68-1.62-1.7-.45-.01-.89.16-1.21.48-.32.32-.49.76-.48,1.22h0v.43c0,.34.05.69.17,1.01.05.16.05.32.11.53v.06c.15.95.2,1.92.16,2.88-.05.28-.2.52-.43.69l-.1.11h0l-.06.7c-.97.08-1.93.23-2.88.42-4.05.88-7.73,2.97-10.57,5.99l-.54-.37h-.1c-.11,0-.22.05-.32.05-.17,0-.34-.06-.48-.16-.78-.59-1.49-1.27-2.13-2.01h0c-.11-.14-.24-.26-.37-.37-.22-.26-.45-.51-.69-.75-.1-.07-.19-.14-.27-.22-.05-.05-.1-.05-.1-.1h0c-.34-.27-.76-.41-1.19-.4-.48,0-.93.21-1.23.59-.52.78-.34,1.83.4,2.4h0c.06,0,.06.06.11.06s.16.16.27.21c.29.2.6.38.91.54.17.07.33.16.47.27h0c.85.47,1.66,1.03,2.41,1.66.21.22.31.53.27.83v.11h0l.53.48c-.11.13-.2.27-.27.42-2.65,4.19-3.71,9.2-2.99,14.1l-.7.22s-.05.05-.05.11c-.12.26-.33.46-.59.58-.94.26-1.9.42-2.88.48h-.05c-.18,0-.36.01-.53.06-.34.01-.68.04-1.02.1-.1,0-.21.06-.32.06-.06,0-.12.01-.16.05h0c-.92.18-1.53,1.05-1.39,1.97.2.76.91,1.27,1.7,1.23.15,0,.29-.01.43-.06h0s.1,0,.1-.05.22-.05.32-.05c.32-.13.63-.28.92-.46.16-.06.32-.17.48-.22h.05c.89-.38,1.82-.66,2.77-.83h.11c.26.01.5.11.7.27.05,0,.05.05.1.05h0l.75-.11c1.55,4.9,4.87,9.04,9.32,11.61l-.32.69c0,.06.05.06.05.11.15.26.19.57.11.86-.38.87-.84,1.71-1.39,2.49v.05c-.11.17-.21.27-.32.43s-.37.53-.59.83c-.07.08-.12.17-.16.27,0,.04-.03.08-.06.11h0c-.45.8-.16,1.81.64,2.26.02.01.04.02.06.03.2.1.42.16.64.16.67-.03,1.28-.42,1.6-1.01h0s.02-.08.05-.11c.04-.09.1-.18.16-.27.13-.31.23-.64.32-.96l.16-.47h0c.27-.93.64-1.83,1.12-2.67.18-.23.42-.4.7-.48t.11-.05h0l.37-.69c2.38.92,4.91,1.38,7.47,1.39,1.56.03,3.11-.12,4.63-.46.94-.22,1.87-.49,2.78-.83l.32.59q.06,0,.11.05c.29.05.55.22.7.48.44.86.82,1.75,1.12,2.66v.06l.16.47c.08.33.19.65.32.96.06.11.11.16.17.27,0,.04.02.08.05.11h0c.31.6.93.98,1.6.99.22,0,.44-.05.64-.16.4-.19.7-.54.83-.96.12-.44.09-.91-.1-1.33h0c0-.06-.06-.06-.06-.11-.04-.1-.09-.19-.16-.27-.16-.3-.36-.58-.59-.83-.11-.16-.22-.27-.32-.43v-.07c-.56-.77-1.03-1.61-1.39-2.49-.06-.28-.04-.56.05-.83,0-.05.05-.05.05-.11h0l-.27-.64c4.4-2.64,7.69-6.8,9.24-11.7l.65.11s.05-.06.1-.06c.2-.15.44-.24.7-.27h.15c.95.17,1.88.45,2.77.83h.05c.17.06.32.17.48.22.31.15.63.28.96.37.11,0,.22.06.32.06.06,0,.11.01.16.05h0c.14.04.28.06.42.05.77,0,1.46-.49,1.71-1.22-.09-.88-.73-1.6-1.59-1.8ZM502.43,99.85l-2.35,1.12-2.31-1.12-.58-2.49,1.6-2.03h2.6l1.6,2.03-.53,2.49h-.03ZM516.34,94.3c.42,1.76.55,3.58.37,5.38l-8.16-2.34c-.74-.21-1.18-.96-1.01-1.71.05-.22.16-.43.32-.59l6.45-5.81c.94,1.57,1.63,3.28,2.02,5.06h0ZM511.76,86l-6.98,4.98c-.61.38-1.42.24-1.87-.32-.14-.17-.23-.37-.27-.58l-.48-8.68c3.63.42,7.01,2.05,9.6,4.64v-.03ZM496.3,81.67c.59-.11,1.12-.22,1.71-.32l-.48,8.53c-.04.76-.66,1.36-1.42,1.39-.22,0-.44-.05-.64-.16l-7.09-5.07c2.18-2.18,4.94-3.69,7.95-4.37h-.02ZM485.8,89.24l6.35,5.65c.58.51.64,1.38.16,1.97-.15.22-.38.37-.64.42l-8.3,2.4c-.34-3.65.5-7.31,2.4-10.44h.03ZM484.36,103.68l8.48-1.44c.71-.05,1.34.43,1.49,1.12.06.28.05.56-.05.83h0l-3.25,7.83c-3.06-2-5.39-4.93-6.64-8.37l-.03.02ZM503.82,114.29c-1.23.28-2.48.42-3.73.43-1.83,0-3.64-.28-5.38-.83l4.21-7.62c.4-.49,1.09-.64,1.66-.37.25.15.47.35.65.58h0l4.1,7.42c-.47.16-1.01.27-1.54.42l.04-.02ZM514.21,106.88c-1.31,2.08-3.05,3.84-5.12,5.17l-3.32-8.05c-.18-.66.13-1.35.75-1.66.23-.11.49-.17.75-.17l8.54,1.44c-.33,1.16-.86,2.26-1.55,3.25h-.04Z"/>
      </g>
      <g class="cls-8">
        <path class="cls-25" d="M485.1,298.46c-1.94.01-3.78-.87-4.98-2.4l-18.64-23.19c-1.23-1.52-1.68-3.53-1.22-5.43l6.64-28.95c.43-1.9,1.72-3.5,3.49-4.31l26.97-12.91c1.75-.85,3.8-.85,5.55,0l26.98,12.85c1.76.83,3.04,2.42,3.46,4.32l6.64,28.94c.44,1.91-.01,3.91-1.23,5.44l-18.59,23.19c-1.22,1.51-3.04,2.39-4.98,2.41l-30.07.05h-.02Z"/>
        <path class="cls-9" d="M500.08,221.96c.76,0,1.5.16,2.19.48l27.02,12.84c1.4.68,2.41,1.96,2.77,3.47l6.64,28.95c.36,1.53-.02,3.14-1.03,4.34l-18.66,23.23c-.97,1.22-2.44,1.93-4,1.92h-29.91c-1.56,0-3.03-.7-4-1.92l-18.66-23.23c-.96-1.23-1.33-2.81-1.01-4.34l6.64-28.95c.35-1.52,1.37-2.79,2.77-3.47l27-12.9c.72-.27,1.47-.42,2.24-.42ZM500.08,219.47h0c-1.15,0-2.28.26-3.32.75l-26.96,12.88c-2.11.99-3.64,2.9-4.15,5.17l-6.64,28.95c-.55,2.26-.03,4.65,1.42,6.48l18.66,23.23c1.44,1.79,3.62,2.83,5.91,2.82h29.94c2.3.01,4.48-1.03,5.92-2.82l18.66-23.23c1.48-1.82,2.04-4.22,1.49-6.5l-6.64-28.95c-.52-2.27-2.04-4.17-4.15-5.17l-26.91-12.87c-1.02-.49-2.13-.74-3.25-.75v.02Z"/>
        <path class="cls-9" d="M527.11,265.4h-.05s-.11,0-.11-.05-.21-.05-.32-.05c-.33-.06-.67-.1-1.01-.11-.18,0-.36-.01-.54-.06h-.05c-.97-.05-1.94-.21-2.88-.47-.27-.11-.48-.32-.59-.59,0-.06-.05-.06-.05-.11h0l-.7-.22c.32-2.49.2-5.02-.37-7.47-.58-2.48-1.59-4.85-2.99-6.98l.54-.48v-.1c-.02-.3.07-.6.27-.83.74-.63,1.55-1.18,2.4-1.66h0c.16-.11.32-.16.48-.27.31-.16.61-.34.9-.53.05-.06.16-.11.27-.22s.11-.06.11-.11h0c.73-.58.9-1.62.37-2.4-.29-.38-.75-.6-1.23-.59-.43.01-.84.16-1.17.42h0l-.11.11c-.11.06-.16.17-.27.22-.25.24-.48.49-.7.75-.11.14-.23.26-.37.37h0c-.63.71-1.34,1.35-2.11,1.91-.14.1-.31.16-.48.17-.11,0-.22-.01-.32-.06h-.11l-.64.43c-.69-.72-1.42-1.39-2.19-2.03-3.23-2.52-7.12-4.06-11.2-4.42v-.7l-.11-.1c-.22-.17-.38-.42-.43-.7-.02-.96.04-1.92.17-2.88v-.07c0-.18.04-.37.11-.54l.16-1.01v-.48h0c.02-.92-.7-1.68-1.62-1.7-.45-.01-.89.16-1.21.48-.32.32-.49.76-.48,1.22h0v.43c0,.34.05.69.17,1.01.05.16.05.32.11.53v.06c.15.95.2,1.92.16,2.88-.05.28-.2.52-.43.69l-.1.11h0l-.06.7c-.97.08-1.93.23-2.88.42-4.05.88-7.73,2.97-10.57,5.99l-.54-.37h-.1c-.11,0-.22.05-.32.05-.17,0-.34-.06-.48-.16-.78-.59-1.49-1.27-2.13-2.01h0c-.11-.14-.24-.26-.37-.37-.22-.26-.45-.51-.69-.75-.1-.07-.19-.14-.27-.22-.05-.05-.1-.05-.1-.1h0c-.34-.27-.76-.41-1.19-.4-.48,0-.93.21-1.23.59-.52.78-.34,1.83.4,2.4h0c.06,0,.06.06.11.06s.16.16.27.21c.29.2.6.38.91.54.17.07.33.16.47.27h0c.85.47,1.66,1.03,2.41,1.66.21.22.31.53.27.83v.11h0l.53.48c-.11.13-.2.27-.27.42-2.65,4.19-3.71,9.2-2.99,14.1l-.7.22s-.05.05-.05.11c-.12.26-.33.46-.59.58-.94.26-1.9.42-2.88.48h-.05c-.18,0-.36.01-.53.06-.34.01-.68.04-1.02.1-.1,0-.21.06-.32.06-.06,0-.12.01-.16.05h0c-.92.18-1.53,1.05-1.39,1.97.2.76.91,1.27,1.7,1.23.15,0,.29-.01.43-.06h0s.1,0,.1-.05.22-.05.32-.05c.32-.13.63-.28.92-.46.16-.06.32-.17.48-.22h.05c.89-.38,1.82-.66,2.77-.83h.11c.26.01.5.11.7.27.05,0,.05.05.1.05h0l.75-.11c1.55,4.9,4.87,9.04,9.32,11.61l-.32.69c0,.06.05.06.05.11.15.26.19.57.11.86-.38.87-.84,1.71-1.39,2.49v.05c-.11.17-.21.27-.32.43s-.37.53-.59.83c-.07.08-.12.17-.16.27,0,.04-.03.08-.06.11h0c-.45.8-.16,1.81.64,2.26.02.01.04.02.06.03.2.1.42.16.64.16.67-.03,1.28-.42,1.6-1.01h0s.02-.08.05-.11c.04-.09.1-.18.16-.27.13-.31.23-.64.32-.96l.16-.47h0c.27-.93.64-1.83,1.12-2.67.18-.23.42-.4.7-.48t.11-.05h0l.37-.69c2.38.92,4.91,1.38,7.47,1.39,1.56.03,3.11-.12,4.63-.46.94-.22,1.87-.49,2.78-.83l.32.59q.06,0,.11.05c.29.05.55.22.7.48.44.86.82,1.75,1.12,2.66v.06l.16.47c.08.33.19.65.32.96.06.11.11.16.17.27,0,.04.02.08.05.11h0c.31.6.93.98,1.6.99.22,0,.44-.05.64-.16.4-.19.7-.54.83-.96.12-.44.09-.91-.1-1.33h0c0-.06-.06-.06-.06-.11-.04-.1-.09-.19-.16-.27-.16-.3-.36-.58-.59-.83-.11-.16-.22-.27-.32-.43v-.07c-.56-.77-1.03-1.61-1.39-2.49-.06-.28-.04-.56.05-.83,0-.05.05-.05.05-.11h0l-.27-.64c4.4-2.64,7.69-6.8,9.24-11.7l.65.11s.05-.06.1-.06c.2-.15.44-.24.7-.27h.15c.95.17,1.88.45,2.77.83h.05c.17.06.32.17.48.22.31.15.63.28.96.37.11,0,.22.06.32.06.06,0,.11.01.16.05h0c.14.04.28.06.42.05.77,0,1.46-.49,1.71-1.22-.09-.88-.73-1.6-1.59-1.8ZM502.43,262.8l-2.35,1.12-2.31-1.12-.58-2.49,1.6-2.03h2.6l1.6,2.03-.53,2.49h-.03ZM516.34,257.25c.42,1.76.55,3.58.37,5.38l-8.16-2.34c-.74-.21-1.18-.96-1.01-1.71.05-.22.16-.43.32-.59l6.45-5.81c.94,1.57,1.63,3.28,2.02,5.06h0ZM511.76,248.95l-6.98,4.98c-.61.38-1.42.24-1.87-.32-.14-.17-.23-.37-.27-.58l-.48-8.68c3.63.42,7.01,2.05,9.6,4.64v-.03ZM496.3,244.62c.59-.11,1.12-.22,1.71-.32l-.48,8.53c-.04.76-.66,1.36-1.42,1.39-.22,0-.44-.05-.64-.16l-7.09-5.07c2.18-2.18,4.94-3.69,7.95-4.37h-.02ZM485.8,252.19l6.35,5.65c.58.51.64,1.38.16,1.97-.15.22-.38.37-.64.42l-8.3,2.4c-.34-3.65.5-7.31,2.4-10.44h.03ZM484.36,266.63l8.48-1.44c.71-.05,1.34.43,1.49,1.12.06.28.05.56-.05.83h0l-3.25,7.83c-3.06-2-5.39-4.93-6.64-8.37l-.03.02ZM503.82,277.24c-1.23.28-2.48.42-3.73.43-1.83,0-3.64-.28-5.38-.83l4.21-7.62c.4-.49,1.09-.64,1.66-.37.25.15.47.35.65.58h0l4.1,7.42c-.47.16-1.01.27-1.54.42l.04-.02ZM514.21,269.83c-1.31,2.08-3.05,3.84-5.12,5.17l-3.32-8.05c-.18-.66.13-1.35.75-1.66.23-.11.49-.17.75-.17l8.54,1.44c-.33,1.16-.86,2.26-1.55,3.25h-.04Z"/>
      </g>
      <g class="cls-6">
        <path class="cls-25" d="M485.1,461.41c-1.94.01-3.78-.87-4.98-2.4l-18.64-23.19c-1.23-1.52-1.68-3.53-1.22-5.43l6.64-28.95c.43-1.9,1.72-3.5,3.49-4.31l26.97-12.91c1.75-.85,3.8-.85,5.55,0l26.98,12.85c1.76.83,3.04,2.42,3.46,4.32l6.64,28.94c.44,1.91-.01,3.91-1.23,5.44l-18.59,23.19c-1.22,1.51-3.04,2.39-4.98,2.41l-30.07.05h-.02Z"/>
        <path class="cls-9" d="M500.08,384.91c.76,0,1.5.16,2.19.48l27.02,12.84c1.4.68,2.41,1.96,2.77,3.47l6.64,28.95c.36,1.53-.02,3.14-1.03,4.34l-18.66,23.23c-.97,1.22-2.44,1.93-4,1.92h-29.91c-1.56,0-3.03-.7-4-1.92l-18.66-23.23c-.96-1.23-1.33-2.81-1.01-4.34l6.64-28.95c.35-1.52,1.37-2.79,2.77-3.47l27-12.9c.72-.27,1.47-.42,2.24-.42ZM500.08,382.42h0c-1.15,0-2.28.26-3.32.75l-26.96,12.88c-2.11.99-3.64,2.9-4.15,5.17l-6.64,28.95c-.55,2.26-.03,4.65,1.42,6.48l18.66,23.23c1.44,1.79,3.62,2.83,5.91,2.82h29.94c2.3.01,4.48-1.03,5.92-2.82l18.66-23.23c1.48-1.82,2.04-4.22,1.49-6.5l-6.64-28.95c-.52-2.27-2.04-4.17-4.15-5.17l-26.91-12.87c-1.02-.49-2.13-.74-3.25-.75v.02Z"/>
        <path class="cls-9" d="M527.11,428.35h-.05s-.11,0-.11-.05-.21-.05-.32-.05c-.33-.06-.67-.1-1.01-.11-.18,0-.36-.01-.54-.06h-.05c-.97-.05-1.94-.21-2.88-.47-.27-.11-.48-.32-.59-.59,0-.06-.05-.06-.05-.11h0l-.7-.22c.32-2.49.2-5.02-.37-7.47-.58-2.48-1.59-4.85-2.99-6.98l.54-.48v-.1c-.02-.3.07-.6.27-.83.74-.63,1.55-1.18,2.4-1.66h0c.16-.11.32-.16.48-.27.31-.16.61-.34.9-.53.05-.06.16-.11.27-.22s.11-.06.11-.11h0c.73-.58.9-1.62.37-2.4-.29-.38-.75-.6-1.23-.59-.43.01-.84.16-1.17.42h0l-.11.11c-.11.06-.16.17-.27.22-.25.24-.48.49-.7.75-.11.14-.23.26-.37.37h0c-.63.71-1.34,1.35-2.11,1.91-.14.1-.31.16-.48.17-.11,0-.22-.01-.32-.06h-.11l-.64.43c-.69-.72-1.42-1.39-2.19-2.03-3.23-2.52-7.12-4.06-11.2-4.42v-.7l-.11-.1c-.22-.17-.38-.42-.43-.7-.02-.96.04-1.92.17-2.88v-.07c0-.18.04-.37.11-.54l.16-1.01v-.48h0c.02-.92-.7-1.68-1.62-1.7-.45-.01-.89.16-1.21.48-.32.32-.49.76-.48,1.22h0v.43c0,.34.05.69.17,1.01.05.16.05.32.11.53v.06c.15.95.2,1.92.16,2.88-.05.28-.2.52-.43.69l-.1.11h0l-.06.7c-.97.08-1.93.23-2.88.42-4.05.88-7.73,2.97-10.57,5.99l-.54-.37h-.1c-.11,0-.22.05-.32.05-.17,0-.34-.06-.48-.16-.78-.59-1.49-1.27-2.13-2.01h0c-.11-.14-.24-.26-.37-.37-.22-.26-.45-.51-.69-.75-.1-.07-.19-.14-.27-.22-.05-.05-.1-.05-.1-.1h0c-.34-.27-.76-.41-1.19-.4-.48,0-.93.21-1.23.59-.52.78-.34,1.83.4,2.4h0c.06,0,.06.06.11.06s.16.16.27.21c.29.2.6.38.91.54.17.07.33.16.47.27h0c.85.47,1.66,1.03,2.41,1.66.21.22.31.53.27.83v.11h0l.53.48c-.11.13-.2.27-.27.42-2.65,4.19-3.71,9.2-2.99,14.1l-.7.22s-.05.05-.05.11c-.12.26-.33.46-.59.58-.94.26-1.9.42-2.88.48h-.05c-.18,0-.36.01-.53.06-.34.01-.68.04-1.02.1-.1,0-.21.06-.32.06-.06,0-.12.01-.16.05h0c-.92.18-1.53,1.05-1.39,1.97.2.76.91,1.27,1.7,1.23.15,0,.29-.01.43-.06h0s.1,0,.1-.05.22-.05.32-.05c.32-.13.63-.28.92-.46.16-.06.32-.17.48-.22h.05c.89-.38,1.82-.66,2.77-.83h.11c.26.01.5.11.7.27.05,0,.05.05.1.05h0l.75-.11c1.55,4.9,4.87,9.04,9.32,11.61l-.32.69c0,.06.05.06.05.11.15.26.19.57.11.86-.38.87-.84,1.71-1.39,2.49v.05c-.11.17-.21.27-.32.43s-.37.53-.59.83c-.07.08-.12.17-.16.27,0,.04-.03.08-.06.11h0c-.45.8-.16,1.81.64,2.26.02.01.04.02.06.03.2.1.42.16.64.16.67-.03,1.28-.42,1.6-1.01h0s.02-.08.05-.11c.04-.09.1-.18.16-.27.13-.31.23-.64.32-.96l.16-.47h0c.27-.93.64-1.83,1.12-2.67.18-.23.42-.4.7-.48t.11-.05h0l.37-.69c2.38.92,4.91,1.38,7.47,1.39,1.56.03,3.11-.12,4.63-.46.94-.22,1.87-.49,2.78-.83l.32.59q.06,0,.11.05c.29.05.55.22.7.48.44.86.82,1.75,1.12,2.66v.06l.16.47c.08.33.19.65.32.96.06.11.11.16.17.27,0,.04.02.08.05.11h0c.31.6.93.98,1.6.99.22,0,.44-.05.64-.16.4-.19.7-.54.83-.96.12-.44.09-.91-.1-1.33h0c0-.06-.06-.06-.06-.11-.04-.1-.09-.19-.16-.27-.16-.3-.36-.58-.59-.83-.11-.16-.22-.27-.32-.43v-.07c-.56-.77-1.03-1.61-1.39-2.49-.06-.28-.04-.56.05-.83,0-.05.05-.05.05-.11h0l-.27-.64c4.4-2.64,7.69-6.8,9.24-11.7l.65.11s.05-.06.1-.06c.2-.15.44-.24.7-.27h.15c.95.17,1.88.45,2.77.83h.05c.17.06.32.17.48.22.31.15.63.28.96.37.11,0,.22.06.32.06.06,0,.11.01.16.05h0c.14.04.28.06.42.05.77,0,1.46-.49,1.71-1.22-.09-.88-.73-1.6-1.59-1.8ZM502.43,425.75l-2.35,1.12-2.31-1.12-.58-2.49,1.6-2.03h2.6l1.6,2.03-.53,2.49h-.03ZM516.34,420.2c.42,1.76.55,3.58.37,5.38l-8.16-2.34c-.74-.21-1.18-.96-1.01-1.71.05-.22.16-.43.32-.59l6.45-5.81c.94,1.57,1.63,3.28,2.02,5.06h0ZM511.76,411.9l-6.98,4.98c-.61.38-1.42.24-1.87-.32-.14-.17-.23-.37-.27-.58l-.48-8.68c3.63.42,7.01,2.05,9.6,4.64v-.03ZM496.3,407.57c.59-.11,1.12-.22,1.71-.32l-.48,8.53c-.04.76-.66,1.36-1.42,1.39-.22,0-.44-.05-.64-.16l-7.09-5.07c2.18-2.18,4.94-3.69,7.95-4.37h-.02ZM485.8,415.14l6.35,5.65c.58.51.64,1.38.16,1.97-.15.22-.38.37-.64.42l-8.3,2.4c-.34-3.65.5-7.31,2.4-10.44h.03ZM484.36,429.58l8.48-1.44c.71-.05,1.34.43,1.49,1.12.06.28.05.56-.05.83h0l-3.25,7.83c-3.06-2-5.39-4.93-6.64-8.37l-.03.02ZM503.82,440.19c-1.23.28-2.48.42-3.73.43-1.83,0-3.64-.28-5.38-.83l4.21-7.62c.4-.49,1.09-.64,1.66-.37.25.15.47.35.65.58h0l4.1,7.42c-.47.16-1.01.27-1.54.42l.04-.02ZM514.21,432.78c-1.31,2.08-3.05,3.84-5.12,5.17l-3.32-8.05c-.18-.66.13-1.35.75-1.66.23-.11.49-.17.75-.17l8.54,1.44c-.33,1.16-.86,2.26-1.55,3.25h-.04Z"/>
      </g>
      <g class="cls-21">
        <path class="cls-1" d="M557.52,180.58h-13.84l-8.07,12.68,8.07,12.68h13.84l8.07-12.68-8.07-12.68ZM550.6,199.03c-3.23,0-5.77-2.54-5.77-5.77s2.54-5.77,5.77-5.77,5.77,2.54,5.77,5.77-2.54,5.77-5.77,5.77Z"/>
        <path class="cls-15" d="M563.06,173.89c-.58-.81-1.5-1.38-2.54-1.38h-19.83c-1.04,0-1.96.58-2.54,1.38l-6.69,10.95,5.3,8.42,7.26-11.53h23.75l-4.73-7.84ZM541.38,178.27c-.69,0-1.15-.46-1.15-1.15s.46-1.15,1.15-1.15,1.15.46,1.15,1.15-.46,1.15-1.15,1.15ZM559.83,178.27c-.69,0-1.15-.46-1.15-1.15s.46-1.15,1.15-1.15,1.15.46,1.15,1.15-.46,1.15-1.15,1.15Z"/>
        <path class="cls-2" d="M544.03,204.79l-12.57-19.83-4.15,6.8c-.58.92-.58,2.19,0,3.11l10.84,17.76c.58.92,1.5,1.38,2.54,1.38h10.49l5.88-9.23h-13.03ZM532.15,194.42c-.69,0-1.15-.46-1.15-1.15s.46-1.15,1.15-1.15,1.15.46,1.15,1.15-.46,1.15-1.15,1.15ZM541.38,210.56c-.69,0-1.15-.46-1.15-1.15s.46-1.15,1.15-1.15,1.15.46,1.15,1.15-.46,1.15-1.15,1.15Z"/>
        <path class="cls-31" d="M531.46,184.96l5.3,8.3,2.77-4.27-6.8-6.11-1.27,2.08Z"/>
        <path class="cls-30" d="M551.3,214.02l5.88-9.23h-5.54l-2.65,9.23h2.31Z"/>
        <path class="cls-35" d="M573.9,191.76l-6.11-10.03h-10.61l7.26,11.53-13.15,20.76h9.23c1.04,0,1.96-.58,2.54-1.38l10.95-17.76c.58-1.04.58-2.19-.12-3.11ZM559.83,210.56c-.69,0-1.15-.46-1.15-1.15s.46-1.15,1.15-1.15,1.15.46,1.15,1.15-.46,1.15-1.15,1.15ZM569.05,194.42c-.69,0-1.15-.46-1.15-1.15s.46-1.15,1.15-1.15,1.15.46,1.15,1.15-.46,1.15-1.15,1.15Z"/>
        <path class="cls-28" d="M567.79,181.73h-10.61l2.88,4.5,9.11-2.19-1.38-2.31Z"/>
      </g>
      <g class="cls-19">
        <path class="cls-34" d="M542.73,332.33h14.07l-14.61,43.28c-.31.91-1.16,1.53-2.13,1.53h-10.95c-1.24,0-2.24-1-2.24-2.24,0-.24.04-.49.12-.72l13.61-40.32c.31-.91,1.16-1.53,2.13-1.53h0Z"/>
        <path class="cls-33" d="M563.18,361.36h-22.31c-.57,0-1.03.46-1.03,1.03,0,.29.12.56.33.76l14.34,13.38c.42.39.97.61,1.54.61h12.63l-5.49-15.78Z"/>
        <path class="cls-3" d="M542.73,332.33c-.97,0-1.84.63-2.13,1.56l-13.59,40.26c-.42,1.16.19,2.44,1.35,2.86.24.09.5.13.76.13h11.23c.85-.15,1.56-.75,1.84-1.57l2.71-7.99,9.68,9.03c.41.34.91.52,1.44.53h12.59l-5.52-15.78h-16.09s9.85-29.03,9.85-29.03h-14.12Z"/>
        <path class="cls-22" d="M560.7,333.85c-.31-.91-1.16-1.52-2.12-1.52h-15.68c.96,0,1.82.61,2.12,1.52l13.61,40.33c.4,1.17-.23,2.44-1.41,2.84-.23.08-.47.12-.72.12h15.68c1.24,0,2.24-1,2.24-2.24,0-.24-.04-.49-.12-.72l-13.61-40.33Z"/>
      </g>
      <g>
        <path d="M540.39,26.8c0,.59.06,1.07.17,1.42.13.35.28.74.51,1.15.08.13.11.26.11.37,0,.16-.1.32-.3.48l-1,.67c-.14.1-.28.14-.41.14-.16,0-.32-.08-.47-.22-.22-.24-.41-.5-.57-.75-.16-.27-.32-.57-.49-.94-1.23,1.47-2.78,2.2-4.65,2.2-1.33,0-2.39-.38-3.16-1.15s-1.17-1.79-1.17-3.07c0-1.36.47-2.46,1.44-3.29s2.25-1.25,3.87-1.25c.54,0,1.09.05,1.68.13s1.19.21,1.82.35v-1.17c0-1.21-.25-2.06-.74-2.56-.51-.5-1.36-.74-2.58-.74-.55,0-1.12.06-1.71.21-.59.14-1.15.32-1.71.54-.25.11-.44.18-.55.21-.11.03-.19.05-.25.05-.22,0-.33-.16-.33-.5v-.78c0-.26.03-.45.11-.56s.22-.22.44-.34c.55-.29,1.22-.53,1.99-.72.77-.21,1.6-.3,2.47-.3,1.88,0,3.26.43,4.14,1.29.87.86,1.31,2.17,1.31,3.93v5.18h.03ZM533.97,29.23c.52,0,1.06-.1,1.63-.29.57-.19,1.08-.54,1.5-1.02.25-.3.44-.64.54-1.02.1-.38.16-.85.16-1.39v-.67c-.46-.11-.95-.21-1.46-.27-.51-.06-1-.1-1.49-.1-1.06,0-1.83.21-2.36.64s-.77,1.04-.77,1.84c0,.75.19,1.31.59,1.69.38.4.93.59,1.66.59ZM546.67,30.96c-.28,0-.47-.05-.6-.16-.13-.1-.24-.32-.33-.62l-3.72-12.35c-.1-.32-.14-.53-.14-.64,0-.26.13-.4.38-.4h1.55c.3,0,.51.05.62.16.13.1.22.32.32.62l2.66,10.57,2.47-10.57c.08-.32.17-.53.3-.62.13-.1.35-.16.63-.16h1.27c.3,0,.51.05.63.16.13.1.24.32.3.62l2.5,10.7,2.74-10.7c.1-.32.21-.53.32-.62.13-.1.33-.16.62-.16h1.47c.25,0,.4.13.4.4,0,.08-.02.16-.03.26s-.05.22-.11.4l-3.81,12.35c-.1.32-.21.53-.33.62s-.33.16-.6.16h-1.36c-.3,0-.51-.05-.63-.16-.13-.11-.24-.32-.3-.64l-2.45-10.3-2.44,10.29c-.08.32-.17.53-.3.64-.13.11-.35.16-.63.16h-1.36ZM566.99,31.39c-.82,0-1.64-.1-2.44-.29s-1.41-.4-1.82-.64c-.25-.14-.43-.3-.49-.45s-.1-.3-.1-.45v-.81c0-.34.13-.5.36-.5.1,0,.19.02.28.05.1.03.24.1.4.16.54.24,1.12.43,1.74.56.63.13,1.25.19,1.88.19,1,0,1.77-.18,2.31-.53.54-.35.82-.86.82-1.52,0-.45-.14-.81-.43-1.12-.28-.3-.82-.57-1.6-.83l-2.29-.72c-1.15-.37-2.01-.91-2.53-1.63-.52-.7-.79-1.49-.79-2.32,0-.67.14-1.26.43-1.77s.66-.96,1.14-1.31c.47-.37,1.01-.64,1.64-.83.63-.19,1.3-.27,1.99-.27.35,0,.71.02,1.06.06.36.05.7.11,1.03.18.32.08.62.16.9.26s.51.19.66.29c.22.13.38.26.47.4.1.13.14.3.14.53v.75c0,.34-.13.51-.36.51-.13,0-.33-.06-.6-.19-.9-.42-1.91-.62-3.04-.62-.9,0-1.61.14-2.1.45-.49.3-.74.77-.74,1.42,0,.45.16.83.47,1.13.32.3.9.61,1.74.88l2.25.72c1.14.37,1.96.88,2.45,1.53s.73,1.41.73,2.24c0,.69-.14,1.31-.41,1.85-.28.54-.66,1.02-1.15,1.41-.49.4-1.08.69-1.76.89-.71.22-1.46.34-2.26.34Z"/>
        <path class="cls-32" d="M569.98,39.15c-5.2,3.88-12.76,5.94-19.26,5.94-9.11,0-17.32-3.4-23.52-9.06-.49-.45-.05-1.05.54-.7,6.71,3.93,14.98,6.31,23.53,6.31,5.77,0,12.12-1.21,17.95-3.71.87-.4,1.61.57.76,1.21ZM572.14,36.66c-.66-.86-4.4-.42-6.09-.21-.51.06-.59-.38-.13-.72,2.97-2.11,7.86-1.5,8.43-.8.57.72-.16,5.65-2.94,8.02-.43.37-.84.18-.65-.3.63-1.58,2.04-5.14,1.38-5.99Z"/>
      </g>
      <g>
        <g class="cls-4">
          <path class="cls-13" d="M48.39,310.98h-10.24v5.51h9.43c.69,0,1.21.16,1.55.47.34.31.51.72.51,1.23s-.17.93-.51,1.25c-.34.32-.86.48-1.56.48h-9.43v6.38h10.59c.71,0,1.25.17,1.61.5s.54.77.54,1.32-.18.96-.54,1.29c-.36.33-.9.5-1.61.5h-12.35c-.99,0-1.7-.22-2.14-.66-.43-.44-.65-1.15-.65-2.13v-16.87c0-.65.1-1.19.29-1.6s.5-.71.91-.9c.41-.19.94-.28,1.58-.28h12c.72,0,1.26.16,1.61.48s.53.74.53,1.26-.18.96-.53,1.28c-.35.32-.89.48-1.61.48Z"/>
          <path class="cls-13" d="M56.64,312.71c.38,0,.6.13.75.44l7.43,12.94c.13.19.16.19.31.19h.16c.16,0,.22,0,.31-.19l7.4-12.94c.16-.31.34-.44.72-.44h3.45c.44,0,.63.38.44.78l-8.59,15.01c-.56,1.03-1.25,1.41-2.63,1.41h-2.54c-1.41,0-2.04-.38-2.6-1.41l-8.65-15.01c-.25-.41-.03-.78.41-.78h3.64Z"/>
          <path class="cls-13" d="M95.04,312.71c5.48,0,7.46,1.66,7.46,6.33v4.54c0,4.67-1.97,6.33-7.46,6.33h-8.87c-5.48,0-7.43-1.66-7.43-6.33v-4.54c0-4.67,1.94-6.33,7.43-6.33h8.87ZM83.19,322.8c0,2.63.69,3.29,3.42,3.29h7.99c2.76,0,3.45-.66,3.45-3.29v-2.98c0-2.6-.69-3.26-3.45-3.26h-7.99c-2.73,0-3.42.66-3.42,3.26v2.98Z"/>
          <path class="cls-7" d="M128.96,307.98c.47,0,.69.22.69.69v3.07c0,.47-.22.69-.69.69h-13.95c-3.23,0-4.17.97-4.17,4.29v4.45c0,3.32.94,4.29,4.17,4.29h13.95c.47,0,.69.22.69.69v3.07c0,.47-.22.69-.69.69h-14.1c-6.36,0-8.78-2.26-8.78-8.27v-5.39c0-6.02,2.41-8.27,8.78-8.27h14.1Z"/>
          <path class="cls-7" d="M136.7,306.41c.44,0,.69.22.69.69v22.13c0,.47-.25.69-.69.69h-3.07c-.47,0-.69-.22-.69-.69v-22.13c0-.47.22-.69.69-.69h3.07Z"/>
          <path class="cls-7" d="M157.42,312.71c5.48,0,7.46,1.66,7.46,6.33v4.54c0,4.67-1.97,6.33-7.46,6.33h-8.87c-5.48,0-7.43-1.66-7.43-6.33v-4.54c0-4.67,1.94-6.33,7.43-6.33h8.87ZM145.57,322.8c0,2.63.69,3.29,3.42,3.29h7.99c2.76,0,3.45-.66,3.45-3.29v-2.98c0-2.6-.69-3.26-3.45-3.26h-7.99c-2.73,0-3.42.66-3.42,3.26v2.98Z"/>
          <path class="cls-7" d="M172.28,312.71c.47,0,.69.25.69.69v9.12c0,2.76.63,3.42,3.23,3.42h8.06c2.7,0,3.45-.75,3.45-3.42v-9.12c0-.44.25-.69.69-.69h3.07c.47,0,.69.25.69.69v10.19c0,4.64-1.91,6.33-7.46,6.33h-8.74c-5.52,0-7.43-1.69-7.43-6.33v-10.19c0-.44.22-.69.69-.69h3.07Z"/>
          <path class="cls-7" d="M215,312.71v-5.61c0-.47.25-.69.69-.69h3.07c.47,0,.69.22.69.69v16.49c0,4.64-1.91,6.33-7.46,6.33h-8.78c-5.52,0-7.43-1.69-7.43-6.33v-4.54c0-4.61,1.91-6.33,7.43-6.33h11.78ZM215,322.71v-6.11h-11.35c-2.7,0-3.42.66-3.42,3.32v2.79c0,2.66.72,3.32,3.42,3.32h7.9c2.7,0,3.45-.66,3.45-3.32Z"/>
        </g>
        <g class="cls-26">
          <path class="cls-7" d="M187.68,186.45c-.69-.46-1.42-.96-2.18-1.45-1.74-1.11-3.61-1.99-5.4-3.02-1.89-1.09-3.85-2.08-5.76-3.15-1.88-1.04-3.76-2.08-5.64-3.11-1.88-1.04-3.76-2.08-5.64-3.11-1.92-1.05-3.86-2.06-5.78-3.12-1.84-1.02-3.66-2.08-5.51-3.11-2.18-1.21-4.38-2.4-6.58-3.58-.5-.27-1.07-.41-1.54-.72-1.43-.96-2.95-1.73-4.48-2.51-1.25-.64-2.47-1.34-3.68-2.02-1.68-.95-3.38-1.87-5.08-2.78-1.16-.62-2.28-1.32-3.4-1.97h-1.38c-.9.49-1.75.94-2.59,1.42-1.83,1.04-3.67,2.07-5.52,3.08-1.96,1.07-3.92,2.14-5.88,3.21-1.81.99-3.6,2.01-5.41,3.01-1.91,1.06-3.84,2.1-5.77,3.14-1.89,1.03-3.77,2.07-5.65,3.11-1.88,1.04-3.76,2.08-5.65,3.11-1.89,1.03-3.75,2.09-5.64,3.11-1.89,1.02-3.78,2.05-5.64,3.12-1.9,1.09-3.86,2.08-5.78,3.13-2.04,1.12-4.06,2.26-6.09,3.39-1.06.59-1.78,1.63-1.4,2.53.43,1.01-.1,2.11.52,3.04-.2,1.86.31,3.69.28,5.54,0,.57-.19,1.23.04,1.67.37.69.19,1.36.22,2.03.03.68.33,1.29.33,2,0,1.71.16,3.41.25,5.12,0,.05-.02.11,0,.14.47.62.33,1.35.25,2-.09.77.3,1.42.32,2.15.03.91-.11,1.81.24,2.73.2.54,0,1.21.05,1.82.04.58.21,1.15.26,1.72.09,1-.09,2,.26,3.01.19.55.11,1.23.01,1.82-.11.68.3,1.23.32,1.87.02.81-.22,1.67.27,2.43-.2,1.4.29,2.74.3,4.13,0,1,.17,2,.27,3,.51.43.15,1.05.35,1.55.19.49.43.98.48,1.49.05.54.14,1.06.3,1.58.37,1.26.65,2.56,1.04,3.81.35,1.12.81,2.22,1.19,3.32.8,2.32,1.86,4.52,2.89,6.73.48,1.03,1.08,2.01,1.62,3.01.44.81.8,1.67,1.31,2.42,1.6,2.32,3.19,4.65,4.91,6.87,1.32,1.71,2.79,3.31,4.29,4.87,1.32,1.37,2.73,2.67,4.19,3.89.64.53,1.21,1.14,1.87,1.61,2.2,1.53,4.3,3.19,6.56,4.63,1.69,1.08,3.31,2.25,4.97,3.37,2.4,1.61,4.8,3.21,7.2,4.83,1.66,1.12,3.33,2.23,4.96,3.39,2.71,1.92,5.62,3.53,8.19,5.65h2.26c.23-.18.45-.37.68-.54,1.05-.77,2.06-1.6,3.16-2.28,4.34-2.7,8.49-5.68,12.74-8.52.73-.49,1.51-.91,2.24-1.41.78-.53,1.46-1.25,2.29-1.65.82-.4,1.48-.99,2.21-1.48,2.92-1.98,5.89-3.9,8.66-6.09,1.77-1.4,3.4-2.97,5.08-4.49.68-.62,1.21-1.39,1.84-2.05,1.39-1.48,2.76-2.97,3.97-4.6.74-1.01,1.53-1.98,2.23-3.03.68-1.04,1.3-2.12,2.02-3.11,1.13-1.55,1.89-3.29,2.82-4.93,1.21-2.12,1.98-4.46,2.97-6.69.46-1.03.78-2.14,1.1-3.22.32-1.09.7-2.18.92-3.31.16-.82.4-1.63.6-2.44.21-.87.06-1.81.53-2.6.31-.52.26-1.05.27-1.59,0-.19-.08-.45.01-.55.36-.4.22-.86.28-1.31.06-.48.23-.96.26-1.44.07-.91-.02-1.81.25-2.72.2-.69.12-1.51.02-2.25-.1-.77.35-1.41.31-2.15-.11-1.81.5-3.58.28-5.4.41-1.02.26-2.08.28-3.14,0-.09-.04-.22,0-.28.49-.57.31-1.26.25-1.87-.08-.68.31-1.23.32-1.87.02-.96-.17-1.94.28-2.85-.14-2.05.5-4.06.29-6.11-.03-.32-.13-.77.03-.96.48-.56.15-1.17.24-1.75.11-.62.24-1.24.28-1.86.12-1.8.2-3.6.29-5.4,0-.09-.04-.23,0-.28.4-.38.22-.86.28-1.3.06-.48.15-.97.28-1.44.19-.68-.36-1.22-.29-2.01Z"/>
          <path class="cls-9" d="M182.88,191.23c-.11.17,0,.46-.02.7-.09,1.71-.02,3.44-.34,5.11-.24,1.25-.13,2.48-.24,3.71-.05.58-.22,1.15-.26,1.72-.05.61.16,1.3-.05,1.82-.33.83-.16,1.63-.25,2.44-.07.62-.22,1.24-.27,1.86-.05.61.16,1.29-.05,1.82-.38,1.01-.15,2.01-.25,3.01-.07.67-.2,1.34-.27,2.01-.07.63.16,1.29-.28,1.87-.07.09-.02.28,0,.42.21,1.77-.19,3.51-.35,5.25-.13,1.33-.14,2.66-.22,3.99-.03.58-.39,1.09-.3,1.72.08.57-.07,1.14-.22,1.73-.2.77-.06,1.61-.3,2.42-.38,1.27-.26,2.66-.87,3.89.12,1.43-.54,2.71-.91,4.02-.3,1.08-.6,2.19-1.07,3.23-.41.91-.8,1.84-1.13,2.78-.63,1.81-2.06,4.75-3,6.26-.44.7-.8,1.46-1.23,2.18-1.2,2.04-2.54,3.97-3.98,5.85-.89,1.16-1.87,2.25-2.77,3.39-1.32,1.66-2.81,3.13-4.36,4.53-1.74,1.58-3.54,3.11-5.48,4.47-1.5,1.05-3.07,1.99-4.51,3.1-1.42,1.1-2.95,2.02-4.42,3.04-1.42.98-2.95,1.82-4.33,2.86-3.09,2.34-6.45,4.29-9.6,6.53-1.75,1.24-3.6,2.33-5.26,3.68-3.29-2.21-6.45-4.5-9.77-6.57-2.23-1.39-4.33-2.98-6.5-4.47-1.8-1.24-3.59-2.48-5.4-3.7-1.06-.72-2.21-1.34-3.22-2.12-1.03-.8-2.16-1.45-3.19-2.25-1.47-1.15-2.91-2.32-4.35-3.5-1.57-1.27-2.98-2.69-4.33-4.16-1.66-1.8-3.23-3.68-4.67-5.68-.94-1.31-1.85-2.64-2.74-3.97-1.49-2.23-2.81-4.57-3.88-7.02-.8-1.83-1.6-3.68-2.24-5.58-.51-1.53-1.1-3.05-1.46-4.62-.19-.82-.37-1.63-.61-2.44-.23-.77-.1-1.65-.34-2.41-.42-1.33-.27-2.76-.82-4.04-.02-.04,0-.09,0-.14.21-1.63-.42-3.21-.28-4.83.11-1.21-.5-2.35-.29-3.56-.49-.76-.28-1.62-.27-2.43.04-1.72-.5-3.4-.3-5.12-.5-.96-.24-1.99-.27-3-.03-.73-.41-1.38-.32-2.15.07-.66.22-1.38-.25-2.01-.05-.06-.02-.19,0-.28.19-1.58-.22-3.13-.35-4.69-.11-1.33-.05-2.68-.28-3.98-.15-.87-.06-1.75-.26-2.57-.3-1.28-.09-2.59-.3-3.84-.15-.87-.21-1.71-.24-2.6,2.4-1.24,4.74-2.61,7.13-3.88,1.82-.97,3.6-2.01,5.41-3.01,1.96-1.08,3.97-2.06,5.89-3.2,1.81-1.07,3.68-2.06,5.52-3.09,1.91-1.07,3.87-2.05,5.77-3.13,2.06-1.17,4.14-2.3,6.23-3.41,1.9-1.01,3.76-2.08,5.64-3.11,1.89-1.03,3.75-2.09,5.65-3.1,1.93-1.03,3.85-2.1,5.76-3.15,1.3-.72,2.69-1.32,3.85-2.26,2.57,1.28,4.98,2.71,7.44,4.05,1.96,1.07,3.95,2.11,5.85,3.32,1.39.89,3.02,1.42,4.4,2.32,1.37.89,2.89,1.5,4.25,2.42,1.37.92,2.94,1.55,4.38,2.37,1.26.72,2.6,1.29,3.78,2.15.31.23.71.34,1.06.51,2.43,1.21,4.75,2.62,7.16,3.88,1.82.96,3.6,2.02,5.41,3.01,1.96,1.07,3.92,2.15,5.88,3.21,1.97,1.06,3.89,2.21,5.89,3.21.47.24.9.55,1.44.88-.13.72.23,1.55-.28,2.33Z"/>
          <path class="cls-7" d="M178.33,193.61c.06-.94-.39-1.53-1.2-2.08-1.11-.75-2.34-1.23-3.45-1.94-1.78-1.13-3.7-2.02-5.51-3.1-1.92-1.14-3.94-2.1-5.88-3.21-1.79-1.02-3.61-2-5.41-3-2.18-1.21-4.37-2.41-6.58-3.58-.5-.27-1.08-.4-1.54-.72-1.95-1.39-4.17-2.28-6.17-3.57-.91-.59-1.98-.95-2.89-1.54-.93-.6-2.06-.83-2.85-1.66-2.33-1.03-4.45-2.45-6.71-3.62-.47-.24-.92-.53-1.38-.77-.97-.51-1.89-1.28-3.15-.95-1.54.87-2.98,1.7-4.45,2.51-1.92,1.05-3.88,2.03-5.78,3.13-1.82,1.06-3.71,2.01-5.52,3.08-1.92,1.14-3.94,2.1-5.88,3.21-1.79,1.02-3.61,2.01-5.41,3-2.38,1.3-4.74,2.65-7.16,3.89-.35.18-.74.29-1.06.51-1.2.83-2.52,1.44-3.79,2.14-1.42.78-2.86,1.54-4.27,2.32-1.61.89-3.23,1.79-4.82,2.73-.75.44-1.59.75-2.32,1.23-.49.31-.92.79-.96,1.42-.05.75-.19,1.57.04,2.25.2.6.16,1.16.24,1.74.07.58.22,1.15.27,1.72.1,1.05.03,2.08.23,3.15.25,1.29.17,2.65.28,3.98.12,1.56.54,3.11.34,4.69-.01.09-.04.22,0,.28.49.67.19,1.43.28,2.15.09.72.23,1.43.27,2.15.12,1.89.2,3.79.29,5.68,0,.09-.04.23,0,.28.51.57.3,1.26.25,1.87-.06.68.3,1.23.32,1.87.04,1.24,0,2.46.21,3.71.2,1.2.55,2.43.36,3.69-.03.2.07.44.13.65.24.75.49,1.52.65,2.27.18.87.42,1.74.51,2.62.1.95.53,1.78.78,2.66.68,2.39,1.66,4.69,2.74,6.92.9,1.85,1.82,3.7,2.98,5.42.77,1.14,1.55,2.28,2.29,3.44,1.08,1.69,2.36,3.21,3.68,4.67,2.43,2.69,5.07,5.19,7.94,7.43.46.36.9.75,1.4,1.06,2.93,1.78,5.66,3.85,8.51,5.75,2.19,1.46,4.39,2.88,6.52,4.42,2.7,1.95,5.53,3.72,8.29,5.58.99.66,2,1.23,3.28.89.12-.12.23-.28.39-.38,1.73-1.17,3.48-2.32,5.19-3.51,2.2-1.52,4.48-2.91,6.63-4.52,1.52-1.15,3.17-2.12,4.76-3.18,1.66-1.11,3.32-2.23,4.98-3.35,2.39-1.61,4.8-3.22,6.89-5.19,2-1.89,4.02-3.77,5.76-5.93,1.02-1.27,2.01-2.56,3.01-3.85,1.52-1.98,2.73-4.15,3.96-6.3.65-1.14,1.34-2.28,1.76-3.51.25-.72.69-1.34.87-2.04.19-.73.5-1.4.76-2.1.48-1.32.88-2.66,1.24-4.01.25-.94.59-1.88.58-2.87.83-1.38.75-3,1.06-4.5.37-1.79.26-3.68.35-5.53.02-.33-.13-.78.03-.97.48-.56.15-1.17.26-1.74.1-.57.24-1.14.28-1.72.12-1.94.2-3.88.29-5.83,0-.09-.04-.22,0-.28.47-.57.2-1.24.28-1.87.08-.67.21-1.33.27-2.01.1-1.09.02-2.18.24-3.29.31-1.57.28-3.21.32-4.82.04-1.43.5-2.83.3-4.27,0-.05-.02-.11,0-.14.51-.71.19-1.53.28-2.29.09-.81.22-1.62.27-2.43Z"/>
          <path class="cls-9" d="M173.52,196.95c-.05.77-.22,1.52-.26,2.29-.05.8.15,1.65-.05,2.39-.23.82-.07,1.66-.27,2.43-.34,1.24-.07,2.5-.28,3.71-.21,1.19-.06,2.41-.31,3.55-.18.83-.14,1.63-.23,2.44-.06.58-.22,1.15-.27,1.72-.05.61.16,1.29-.05,1.82-.33.82-.18,1.63-.24,2.45-.09,1.33-.45,2.64-.28,3.99-.53,1.05-.14,2.19-.3,3.28-.22,1.5-.2,3.05-.73,4.5-.08.21-.11.45-.1.66.05.88-.23,1.67-.5,2.48-.21.64.08,1.35-.34,1.98-.24.35-.33.8-.55,1.38.24.82-.44,1.6-.73,2.47-1,2.94-2.31,5.75-3.83,8.46-.93,1.66-1.98,3.26-3.13,4.79-1.27,1.68-2.54,3.33-3.98,4.87-.55.59-1.01,1.32-1.64,1.84-2.27,1.88-4.35,3.98-6.87,5.59-1.34.86-2.64,1.83-3.97,2.73-1.32.89-2.72,1.7-3.99,2.64-3.36,2.51-6.95,4.67-10.39,7.05-1.18.81-2.33,1.67-3.39,2.42-.86.52-1.21-.39-1.83-.45-1.45-1.43-3.3-2.3-4.93-3.49-1.8-1.32-3.74-2.41-5.51-3.79-1.61-1.25-3.38-2.29-5.08-3.43-1.7-1.13-3.4-2.27-5.1-3.4-1.36-.91-2.63-1.91-3.87-2.98-1.35-1.17-2.86-2.18-4.03-3.54-1.63-1.89-3.3-3.74-4.78-5.78-1.13-1.56-2.2-3.15-3.21-4.77-.83-1.32-1.44-2.79-2.11-4.21-.77-1.62-1.41-3.28-2.02-4.97-.45-1.24-.76-2.51-1.2-3.74-.01-.04-.09-.07-.09-.1-.01-1.04-.37-2-.65-2.99-.27-.94-.16-1.96-.57-2.88-.04-.08-.01-.19,0-.28.19-1.58-.2-3.14-.35-4.69-.14-1.48-.19-2.94-.22-4.42-.01-.54-.39-1-.31-1.58.07-.48.16-1.01-.25-1.45-.07-.07-.02-.27,0-.41.2-1.77-.19-3.51-.35-5.25-.12-1.29-.01-2.6-.27-3.84-.22-1.06-.2-2.1-.22-3.15-.01-.64-.43-1.19-.31-1.87.1-.6.17-1.27-.01-1.82-.29-.87-.04-1.78-.29-2.57-.45-1.43-.06-2.85-.29-4.27.79-.46,1.51-.89,2.25-1.29,1.49-.83,3-1.65,4.49-2.48,1.69-.94,3.33-1.95,5.06-2.81,2.2-1.08,4.3-2.35,6.48-3.48,1.78-.92,3.55-1.92,5.29-2.96,2.19-1.31,4.5-2.38,6.66-3.75,1.4-.89,2.96-1.5,4.42-2.3,1.24-.67,2.43-1.43,3.65-2.13.34-.2.71-.33,1.06-.51,2.42-1.23,4.69-2.73,7.17-3.87.28-.13.5-.38.81-.63,1.11.96,2.57,1.33,3.73,2.24.3.24.71.34,1.06.51,2.43,1.2,4.75,2.63,7.16,3.88,1.79.92,3.55,1.92,5.29,2.94,2.19,1.3,4.48,2.42,6.67,3.74,1.19.72,2.43,1.4,3.68,2.03,1.53.77,3.05,1.56,4.48,2.51.4.26.86.42,1.29.63,2.37,1.14,4.6,2.53,6.94,3.73,1.91.97,3.73,2.12,5.66,3.07.48.23.89.61,1.29.89,0,.79.04,1.5,0,2.21Z"/>
          <path class="cls-16" d="M152.57,182.99l-20.93,13.38M135.98,173.13l-32.18,18.31M115.91,195.68l4.99-2.87v-10.96M106.62,268.33l26.82-18.02M122.98,279.16l28.45-18.72M138.46,257.93l-4.19,2.78.67,10.69M108.82,181.82l-16.91,9.33M89.85,190.08c-1.33-.03-2.43,1.03-2.46,2.36-.03,1.33,1.03,2.43,2.36,2.46s2.43-1.03,2.46-2.36c.03-1.33-1.03-2.43-2.36-2.46ZM110.99,178.25c-1.33-.03-2.43,1.03-2.46,2.36-.03,1.33,1.03,2.43,2.36,2.46s2.43-1.03,2.46-2.36c.03-1.33-1.03-2.43-2.36-2.46Z"/>
          <g>
            <path class="cls-13" d="M152.93,190.91c-.43-.49-.95-.84-1.65-.79-.23.02-.47,0-.71,0-16.21,0-32.41,0-48.62-.02-1.31,0-2.32.3-2.86,1.72v5.09h54.34v-5.17c-.18-.31-.3-.61-.5-.84Z"/>
            <path class="cls-5" d="M95.16,198.56h4.49v-5.09c.54-1.42,1.55-1.72,2.86-1.72,16.21.03,32.41.02,48.62.02.24,0,.47.01.71,0,.7-.05,1.22.3,1.65.79.2.23.32.53.5.84v5.17h4.53c0-1.74-.08-3.39.03-5.03.06-.98-.57-1.68-.69-2.56-1.09-1.32-1.99-2.86-3.85-3.29-.29-.07-.54-.28-.82-.43-17.06,0-34.13,0-51.2,0-1.39,0-2.63.4-3.77,1.15-.46.3-.85.72-1.24,1.11-1.24,1.23-1.85,2.72-1.86,4.46,0,1.18,0,2.36,0,3.54,0,.36.03.72.04,1.07Z"/>
          </g>
          <g>
            <path class="cls-13" d="M99.6,256.14c.43.49.95.84,1.65.79.23-.02.47,0,.71,0,16.21,0,32.41,0,48.62.02,1.31,0,2.32-.3,2.86-1.72v-5.09h-54.34v5.17c.18.31.3.61.5.84Z"/>
            <path class="cls-5" d="M153.44,250.13v5.09c-.54,1.42-1.55,1.72-2.86,1.72-16.21-.03-32.41-.02-48.62-.02-.24,0-.47-.01-.71,0-.7.05-1.22-.3-1.65-.79-.2-.23-.32-.53-.5-.84v-5.17h-4.53c0,1.55,0,3.01,0,4.47-.01,1.34.37,2.52,1.1,3.65.34.52.76.92,1.17,1.34,1.21,1.25,2.72,1.85,4.46,1.85,16.6,0,33.2,0,49.8.01,1.39,0,2.64-.39,3.77-1.16.53-.36.97-.86,1.45-1.3.78-.72,1.13-1.69,1.48-2.64.17-.45.16-.99.17-1.48.02-1.23.01-2.45,0-3.68,0-.36-.03-.72-.04-1.07h-4.49Z"/>
          </g>
          <g>
            <g>
              <rect class="cls-7" x="99.1" y="234.23" width="54.34" height="15.31"/>
              <rect class="cls-14" x="101.39" y="231.85" width="49.76" height="2.38"/>
              <ellipse class="cls-9" cx="106.45" cy="242.17" rx="1.43" ry="1.16"/>
              <path class="cls-23" d="M113.08,243.5c-.91,0-1.65-.6-1.65-1.34s.74-1.34,1.65-1.34,1.65.6,1.65,1.34-.74,1.34-1.65,1.34ZM113.08,241.19c-.66,0-1.2.44-1.2.98s.54.98,1.2.98,1.2-.44,1.2-.98-.54-.98-1.2-.98Z"/>
              <g>
                <path class="cls-23" d="M148.78,239.76h-23.27v-1.93h23.27v1.93ZM125.95,239.4h22.38v-1.21h-22.38v1.21Z"/>
                <path class="cls-23" d="M148.78,243.13h-23.27v-1.93h23.27v1.93ZM125.95,242.77h22.38v-1.21h-22.38v1.21Z"/>
                <path class="cls-23" d="M148.78,246.5h-23.27v-1.93h23.27v1.93ZM125.95,246.14h22.38v-1.21h-22.38v1.21Z"/>
              </g>
            </g>
            <g>
              <rect class="cls-7" x="99.1" y="216.54" width="54.34" height="15.31"/>
              <rect class="cls-14" x="101.39" y="214.16" width="49.76" height="2.38"/>
              <ellipse class="cls-9" cx="106.45" cy="224.48" rx="1.43" ry="1.16"/>
              <path class="cls-23" d="M113.08,225.81c-.91,0-1.65-.6-1.65-1.34s.74-1.34,1.65-1.34,1.65.6,1.65,1.34-.74,1.34-1.65,1.34ZM113.08,223.5c-.66,0-1.2.44-1.2.98s.54.98,1.2.98,1.2-.44,1.2-.98-.54-.98-1.2-.98Z"/>
              <g>
                <path class="cls-23" d="M148.78,222.06h-23.27v-1.93h23.27v1.93ZM125.95,221.7h22.38v-1.21h-22.38v1.21Z"/>
                <path class="cls-23" d="M148.78,225.44h-23.27v-1.93h23.27v1.93ZM125.95,225.08h22.38v-1.21h-22.38v1.21Z"/>
                <path class="cls-23" d="M148.78,228.81h-23.27v-1.93h23.27v1.93ZM125.95,228.45h22.38v-1.21h-22.38v1.21Z"/>
              </g>
            </g>
            <g>
              <rect class="cls-7" x="99.1" y="198.85" width="54.34" height="15.31"/>
              <path class="cls-9" d="M107.88,206.78c0,.64-.64,1.16-1.43,1.16s-1.43-.52-1.43-1.16.64-1.16,1.43-1.16,1.43.52,1.43,1.16Z"/>
              <path class="cls-23" d="M113.08,208.12c-.91,0-1.65-.6-1.65-1.34s.74-1.34,1.65-1.34,1.65.6,1.65,1.34-.74,1.34-1.65,1.34ZM113.08,205.81c-.66,0-1.2.44-1.2.98s.54.98,1.2.98,1.2-.44,1.2-.98-.54-.98-1.2-.98Z"/>
              <g>
                <path class="cls-23" d="M148.78,204.37h-23.27v-1.93h23.27v1.93ZM125.95,204.01h22.38v-1.21h-22.38v1.21Z"/>
                <path class="cls-23" d="M148.78,207.75h-23.27v-1.93h23.27v1.93ZM125.95,207.39h22.38v-1.21h-22.38v1.21Z"/>
                <path class="cls-23" d="M148.78,211.12h-23.27v-1.93h23.27v1.93ZM125.95,210.76h22.38v-1.21h-22.38v1.21Z"/>
              </g>
            </g>
          </g>
        </g>
      </g>
    </g>
  </g>
</svg>